SplineFontDB: 3.0
FontName: FugazOne-Regular
FullName: Fugaz One
FamilyName: Fugaz One
Weight: Book
Copyright: Copyright (c) 2011 by LatinoType Limitada (info@latinotype.com),  with Reserved Font Names "Fugaz" and "Fugaz One"
Version: 1.002
ItalicAngle: 0
UnderlinePosition: -50
UnderlineWidth: 50
Ascent: 800
Descent: 200
sfntRevision: 0x00010083
LayerCount: 2
Layer: 0 1 "Back"  1
Layer: 1 1 "Fore"  0
XUID: [1021 679 897531796 8421216]
FSType: 0
OS2Version: 2
OS2_WeightWidthSlopeOnly: 0
OS2_UseTypoMetrics: 1
CreationTime: 1326410107
ModificationTime: 1326407125
PfmFamily: 81
TTFWeight: 400
TTFWidth: 5
LineGap: 0
VLineGap: 0
Panose: 0 0 0 0 0 0 0 0 0 0
OS2TypoAscent: 246
OS2TypoAOffset: 1
OS2TypoDescent: -222
OS2TypoDOffset: 1
OS2TypoLinegap: 0
OS2WinAscent: 0
OS2WinAOffset: 1
OS2WinDescent: 0
OS2WinDOffset: 1
HheadAscent: 0
HheadAOffset: 1
HheadDescent: 0
HheadDOffset: 1
OS2SubXSize: 700
OS2SubYSize: 650
OS2SubXOff: 0
OS2SubYOff: 140
OS2SupXSize: 700
OS2SupYSize: 650
OS2SupXOff: 0
OS2SupYOff: 477
OS2StrikeYSize: 50
OS2StrikeYPos: 250
OS2Vendor: 'pyrs'
OS2CodePages: 00000001.00000000
OS2UnicodeRanges: 800000af.4000004a.00000000.00000000
Lookup: 258 0 0 "'kern' Horizontal Kerning in Latin lookup 0"  {"'kern' Horizontal Kerning in Latin lookup 0 subtable"  } ['kern' ('DFLT' <'dflt' > 'latn' <'dflt' > ) ]
DEI: 91125
TtTable: prep
PUSHW_1
 511
SCANCTRL
PUSHB_1
 4
SCANTYPE
EndTTInstrs
ShortTable: maxp 16
  1
  0
  229
  207
  17
  61
  4
  2
  0
  1
  1
  0
  64
  0
  2
  1
EndShort
LangName: 1033 "" "" "" "DanielHernandez: Fugaz One: 2011" "" "Version 1.002" "" "Fugaz is a trademark of LatinoType Limitada" "Daniel Hernandez" "Daniel Hernandez" "" "www.latinotype.com" "www.hernandeztype.com" "This Font Software is licensed under the SIL Open Font License, Version 1.1. This license is available with a FAQ at: http://scripts.sil.org/OFL" "http://scripts.sil.org/OFL" 
GaspTable: 1 65535 15 1
Encoding: UnicodeBmp
UnicodeInterp: none
NameList: Adobe Glyph List
DisplaySize: -24

StartChar: exclam
Encoding: 33 33 4
Width: 294
GlyphClass: 2
Flags: W
LayerCount: 2
Fore
SplineSet
205 262 m 1,0,-1
 72 262 l 1,1,-1
 144 791 l 1,2,-1
 314 791 l 1,3,-1
 205 262 l 1,0,-1
11 58 m 0,4,5
 11 122 11 122 39 151.5 c 128,-1,6
 67 181 67 181 128 181 c 0,7,8
 212 181 212 181 212 107 c 0,9,10
 212 44 212 44 183.5 15 c 128,-1,11
 155 -14 155 -14 94 -14 c 0,12,13
 11 -14 11 -14 11 58 c 0,4,5
EndSplineSet
EndChar

StartChar: quotedbl
Encoding: 34 34 5
Width: 393
GlyphClass: 2
Flags: W
LayerCount: 2
Fore
SplineSet
204 584 m 1,0,-1
 102 584 l 1,1,-1
 139 820 l 1,2,-1
 252 820 l 1,3,-1
 204 584 l 1,0,-1
392 584 m 1,4,-1
 290 584 l 1,5,-1
 327 820 l 1,6,-1
 440 820 l 1,7,-1
 392 584 l 1,4,-1
EndSplineSet
EndChar

StartChar: numbersign
Encoding: 35 35 6
Width: 646
GlyphClass: 2
Flags: W
LayerCount: 2
Fore
SplineSet
507 107 m 1,0,-1
 429 107 l 1,1,-1
 407 49 l 1,2,-1
 287 49 l 1,3,-1
 309 107 l 1,4,-1
 207 107 l 1,5,-1
 185 49 l 1,6,-1
 65 49 l 1,7,-1
 87 107 l 1,8,-1
 -1 107 l 1,9,-1
 36 197 l 1,10,-1
 123 197 l 1,11,-1
 171 321 l 1,12,-1
 94 321 l 1,13,-1
 131 411 l 1,14,-1
 206 411 l 1,15,-1
 238 492 l 1,16,-1
 357 492 l 1,17,-1
 326 411 l 1,18,-1
 428 411 l 1,19,-1
 460 492 l 1,20,-1
 579 492 l 1,21,-1
 548 411 l 1,22,-1
 639 411 l 1,23,-1
 602 321 l 1,24,-1
 513 321 l 1,25,-1
 464 197 l 1,26,-1
 544 197 l 1,27,-1
 507 107 l 1,0,-1
345 197 m 1,28,-1
 393 321 l 1,29,-1
 291 321 l 1,30,-1
 242 197 l 1,31,-1
 345 197 l 1,28,-1
EndSplineSet
EndChar

StartChar: dollar
Encoding: 36 36 7
Width: 630
GlyphClass: 2
Flags: W
LayerCount: 2
Fore
SplineSet
201 204 m 0,0,1
 201 136 201 136 300.5 136 c 128,-1,2
 400 136 400 136 400 198 c 0,3,4
 400 231 400 231 366 252 c 128,-1,5
 332 273 332 273 283.5 287 c 128,-1,6
 235 301 235 301 186 319.5 c 128,-1,7
 137 338 137 338 103 377.5 c 128,-1,8
 69 417 69 417 69 476 c 0,9,10
 69 581 69 581 132.5 645.5 c 128,-1,11
 196 710 196 710 329 724 c 1,12,-1
 350 845 l 1,13,-1
 500 845 l 1,14,-1
 478 720 l 1,15,16
 554 706 554 706 593 663.5 c 128,-1,17
 632 621 632 621 632 558 c 0,18,19
 632 529 632 529 624 503 c 128,-1,20
 616 477 616 477 608 466 c 2,21,-1
 600 454 l 1,22,-1
 423 454 l 1,23,24
 445 477 445 477 445 512 c 0,25,26
 445 577 445 577 360 577 c 0,27,28
 311 577 311 577 282.5 560 c 128,-1,29
 254 543 254 543 254 509 c 128,-1,30
 254 475 254 475 288 455 c 128,-1,31
 322 435 322 435 370.5 423.5 c 128,-1,32
 419 412 419 412 468 395 c 128,-1,33
 517 378 517 378 551 338.5 c 128,-1,34
 585 299 585 299 585 236 c 0,35,36
 585 130 585 130 528.5 68.5 c 128,-1,37
 472 7 472 7 350 -9 c 1,38,-1
 326 -144 l 1,39,-1
 176 -144 l 1,40,-1
 199 -11 l 1,41,42
 89 0 89 0 46 56 c 0,43,44
 16 94 16 94 16 157 c 0,45,46
 16 185 16 185 22 219 c 2,47,-1
 25 235 l 1,48,-1
 205 235 l 1,49,-1
 203 223 l 2,50,51
 201 213 201 213 201 204 c 0,0,1
EndSplineSet
EndChar

StartChar: percent
Encoding: 37 37 8
Width: 835
GlyphClass: 2
Flags: W
LayerCount: 2
Fore
SplineSet
256 727 m 0,0,1
 383 727 383 727 383 618 c 0,2,3
 383 600 383 600 379 578 c 2,4,-1
 367 508 l 2,5,6
 340 356 340 356 190 356 c 0,7,8
 62 356 62 356 62 465 c 0,9,10
 62 485 62 485 66 508 c 2,11,-1
 78 578 l 2,12,13
 103 727 103 727 256 727 c 0,0,1
168 482 m 0,14,15
 168 444 168 444 206 444 c 0,16,17
 228 444 228 444 241.5 458 c 128,-1,18
 255 472 255 472 262 510 c 2,19,-1
 274 576 l 2,20,21
 276 588 276 588 276 598 c 0,22,23
 276 639 276 639 240 639 c 0,24,25
 194 639 194 639 183 576 c 2,26,-1
 171 510 l 2,27,28
 168 494 168 494 168 482 c 0,14,15
101 0 m 1,29,-1
 622 727 l 1,30,-1
 762 727 l 1,31,-1
 241 0 l 1,32,-1
 101 0 l 1,29,-1
668 355 m 0,33,34
 796 355 796 355 796 248 c 0,35,36
 796 229 796 229 792 206 c 2,37,-1
 779 136 l 2,38,39
 765 59 765 59 722.5 21.5 c 128,-1,40
 680 -16 680 -16 603 -16 c 0,41,42
 474 -16 474 -16 474 93 c 0,43,44
 474 112 474 112 478 136 c 2,45,-1
 491 206 l 2,46,47
 518 355 518 355 668 355 c 0,33,34
582 111 m 0,48,49
 582 72 582 72 618 72 c 0,50,51
 640 72 640 72 654.5 86 c 128,-1,52
 669 100 669 100 675 138 c 2,53,-1
 686 204 l 2,54,55
 688 216 688 216 688 226 c 0,56,57
 688 267 688 267 652 267 c 0,58,59
 606 267 606 267 595 204 c 2,60,-1
 584 138 l 2,61,62
 582 123 582 123 582 111 c 0,48,49
EndSplineSet
EndChar

StartChar: ampersand
Encoding: 38 38 9
Width: 667
GlyphClass: 2
Flags: W
LayerCount: 2
Fore
SplineSet
264 -14 m 0,0,1
 22 -14 22 -14 22 154 c 0,2,3
 22 236 22 236 67.5 288.5 c 128,-1,4
 113 341 113 341 179 341 c 1,5,-1
 179 344 l 1,6,7
 134 344 134 344 108 385 c 128,-1,8
 82 426 82 426 82 479 c 0,9,10
 82 588 82 588 166 657.5 c 128,-1,11
 250 727 250 727 400 727 c 0,12,13
 516 727 516 727 575.5 683.5 c 128,-1,14
 635 640 635 640 635 563 c 0,15,16
 635 535 635 535 627.5 510 c 128,-1,17
 620 485 620 485 612 474 c 2,18,-1
 604 464 l 1,19,-1
 427 464 l 1,20,21
 448 485 448 485 448 522 c 0,22,23
 448 572 448 572 371 572 c 0,24,25
 323 572 323 572 292 546.5 c 128,-1,26
 261 521 261 521 261 483 c 128,-1,27
 261 445 261 445 285 422 c 128,-1,28
 309 399 309 399 351 398 c 1,29,-1
 658 398 l 1,30,-1
 638 289 l 1,31,-1
 594 289 l 1,32,-1
 583 228 l 2,33,34
 561 106 561 106 477.5 46 c 128,-1,35
 394 -14 394 -14 264 -14 c 0,0,1
210 207 m 0,36,37
 210 178 210 178 231 159.5 c 128,-1,38
 252 141 252 141 287 141 c 0,39,40
 398 141 398 141 413 228 c 2,41,-1
 424 289 l 1,42,-1
 310 289 l 2,43,44
 210 289 210 289 210 207 c 0,36,37
EndSplineSet
EndChar

StartChar: quotesingle
Encoding: 39 39 10
Width: 205
GlyphClass: 2
Flags: W
LayerCount: 2
Fore
SplineSet
204 584 m 1,0,-1
 102 584 l 1,1,-1
 139 820 l 1,2,-1
 252 820 l 1,3,-1
 204 584 l 1,0,-1
EndSplineSet
EndChar

StartChar: parenleft
Encoding: 40 40 11
Width: 352
GlyphClass: 2
Flags: W
LayerCount: 2
Fore
SplineSet
37.5 -111 m 128,-1,1
 17 -15 17 -15 17 97 c 128,-1,2
 17 209 17 209 43.5 323 c 128,-1,3
 70 437 70 437 108 514 c 128,-1,4
 146 591 146 591 184 650.5 c 128,-1,5
 222 710 222 710 248 738 c 2,6,-1
 275 766 l 1,7,-1
 409 704 l 1,8,9
 378 673 378 673 335.5 608.5 c 128,-1,10
 293 544 293 544 263.5 479 c 128,-1,11
 234 414 234 414 210 311.5 c 128,-1,12
 186 209 186 209 186 110 c 128,-1,13
 186 11 186 11 201 -68.5 c 128,-1,14
 216 -148 216 -148 232 -182 c 1,15,-1
 247 -217 l 1,16,-1
 91 -279 l 1,17,18
 83 -264 83 -264 70.5 -235.5 c 128,-1,0
 58 -207 58 -207 37.5 -111 c 128,-1,1
EndSplineSet
EndChar

StartChar: parenright
Encoding: 41 41 12
Width: 352
GlyphClass: 2
Flags: W
LayerCount: 2
Fore
SplineSet
124 173 m 128,-1,1
 148 275 148 275 148 357.5 c 128,-1,2
 148 440 148 440 141.5 494.5 c 128,-1,3
 135 549 135 549 126 585 c 0,4,5
 109 661 109 661 94 691 c 1,6,-1
 87 704 l 1,7,-1
 243 766 l 1,8,9
 251 751 251 751 263.5 722 c 128,-1,10
 276 693 276 693 296.5 597 c 128,-1,11
 317 501 317 501 317 388 c 128,-1,12
 317 275 317 275 290.5 161 c 128,-1,13
 264 47 264 47 226 -29 c 0,14,15
 146 -188 146 -188 86 -252 c 1,16,-1
 59 -279 l 1,17,-1
 -75 -217 l 1,18,19
 -66 -208 -66 -208 -51 -191.5 c 128,-1,20
 -36 -175 -36 -175 2.5 -117 c 128,-1,21
 41 -59 41 -59 70.5 6 c 128,-1,0
 100 71 100 71 124 173 c 128,-1,1
EndSplineSet
EndChar

StartChar: asterisk
Encoding: 42 42 13
Width: 438
GlyphClass: 2
Flags: W
LayerCount: 2
Fore
SplineSet
360 506 m 1,0,-1
 281 474 l 1,1,-1
 261 601 l 1,2,-1
 169 494 l 1,3,-1
 111 542 l 1,4,-1
 226 644 l 1,5,-1
 91 652 l 1,6,-1
 113 734 l 1,7,-1
 241 700 l 1,8,-1
 205 823 l 1,9,-1
 285 856 l 1,10,-1
 302 722 l 1,11,-1
 398 836 l 1,12,-1
 455 788 l 1,13,-1
 343 686 l 1,14,-1
 475 677 l 1,15,-1
 452 596 l 1,16,-1
 323 627 l 1,17,-1
 360 506 l 1,0,-1
EndSplineSet
EndChar

StartChar: plus
Encoding: 43 43 14
Width: 446
GlyphClass: 2
Flags: W
LayerCount: 2
Fore
SplineSet
122 62 m 1,0,-1
 145 191 l 1,1,-1
 19 191 l 1,2,-1
 40 309 l 1,3,-1
 166 309 l 1,4,-1
 188 433 l 1,5,-1
 306 433 l 1,6,-1
 284 309 l 1,7,-1
 411 309 l 1,8,-1
 390 191 l 1,9,-1
 263 191 l 1,10,-1
 240 62 l 1,11,-1
 122 62 l 1,0,-1
EndSplineSet
EndChar

StartChar: comma
Encoding: 44 44 15
Width: 295
GlyphClass: 2
Flags: W
LayerCount: 2
Fore
SplineSet
5 58 m 0,0,1
 5 122 5 122 33.5 151.5 c 128,-1,2
 62 181 62 181 123 181 c 0,3,4
 213 181 213 181 213 92 c 0,5,6
 213 -202 213 -202 -65 -202 c 1,7,-1
 -52 -130 l 1,8,9
 1 -130 1 -130 53 -80 c 0,10,11
 82 -52 82 -52 88 -14 c 1,12,13
 5 -14 5 -14 5 58 c 0,0,1
EndSplineSet
EndChar

StartChar: hyphen
Encoding: 45 45 16
Width: 412
GlyphClass: 2
Flags: W
LayerCount: 2
Fore
SplineSet
340 209 m 1,0,-1
 41 209 l 1,1,-1
 63 335 l 1,2,-1
 362 335 l 1,3,-1
 340 209 l 1,0,-1
EndSplineSet
EndChar

StartChar: period
Encoding: 46 46 17
Width: 284
GlyphClass: 2
Flags: W
LayerCount: 2
Fore
SplineSet
5 58 m 0,0,1
 5 122 5 122 33 151.5 c 128,-1,2
 61 181 61 181 122 181 c 0,3,4
 206 181 206 181 206 107 c 0,5,6
 206 44 206 44 177.5 15 c 128,-1,7
 149 -14 149 -14 88 -14 c 0,8,9
 5 -14 5 -14 5 58 c 0,0,1
EndSplineSet
EndChar

StartChar: slash
Encoding: 47 47 18
Width: 568
GlyphClass: 2
Flags: W
LayerCount: 2
Fore
SplineSet
132 -277 m 1,0,-1
 -77 -277 l 1,1,-1
 419 760 l 1,2,-1
 627 760 l 1,3,-1
 132 -277 l 1,0,-1
EndSplineSet
EndChar

StartChar: zero
Encoding: 48 48 19
Width: 661
GlyphClass: 2
Flags: W
LayerCount: 2
Fore
SplineSet
407 727 m 0,0,1
 643 727 643 727 643 515 c 0,2,3
 643 476 643 476 635 429 c 2,4,-1
 611 289 l 2,5,6
 585 136 585 136 503.5 61 c 128,-1,7
 422 -14 422 -14 277.5 -14 c 128,-1,8
 133 -14 133 -14 78 60 c 0,9,10
 41 111 41 111 41 198 c 0,11,12
 41 240 41 240 49 289 c 2,13,-1
 73 429 l 2,14,15
 125 727 125 727 407 727 c 0,0,1
223 229 m 0,16,17
 223 141 223 141 304 141 c 0,18,19
 354 141 354 141 385.5 174 c 128,-1,20
 417 207 417 207 432 293 c 2,21,-1
 455 425 l 2,22,23
 461 458 461 458 461 482 c 0,24,25
 461 572 461 572 381 572 c 1,26,27
 279 570 279 570 253 425 c 2,28,-1
 229 293 l 2,29,30
 223 256 223 256 223 229 c 0,16,17
EndSplineSet
EndChar

StartChar: one
Encoding: 49 49 20
Width: 506
GlyphClass: 2
Flags: W
LayerCount: 2
Fore
SplineSet
384 0 m 1,0,-1
 203 0 l 1,1,-1
 288 480 l 1,2,3
 264 441 264 441 200 405 c 128,-1,4
 136 369 136 369 66 369 c 1,5,-1
 53 537 l 1,6,7
 147 537 147 537 229 594.5 c 128,-1,8
 311 652 311 652 330 720 c 1,9,-1
 510 720 l 1,10,-1
 384 0 l 1,0,-1
EndSplineSet
EndChar

StartChar: two
Encoding: 50 50 21
Width: 636
GlyphClass: 2
Flags: W
LayerCount: 2
Fore
SplineSet
249 442 m 0,0,1
 249 413 249 413 256 399 c 1,2,-1
 79 399 l 1,3,4
 73 423 73 423 73 461 c 0,5,6
 73 582 73 582 154.5 654.5 c 128,-1,7
 236 727 236 727 388 727 c 0,8,9
 631 727 631 727 631 531 c 0,10,11
 631 461 631 461 597 400.5 c 128,-1,12
 563 340 563 340 514 301.5 c 128,-1,13
 465 263 465 263 416 234.5 c 128,-1,14
 367 206 367 206 331 186.5 c 128,-1,15
 295 167 295 167 292 157 c 1,16,-1
 292 156 l 1,17,-1
 559 156 l 1,18,-1
 531 0 l 1,19,-1
 8 0 l 1,20,-1
 21 74 l 2,21,22
 32 137 32 137 69 186.5 c 128,-1,23
 106 236 106 236 153 264 c 128,-1,24
 200 292 200 292 252.5 319.5 c 128,-1,25
 305 347 305 347 348 368.5 c 128,-1,26
 391 390 391 390 419.5 424 c 128,-1,27
 448 458 448 458 448 500 c 0,28,29
 448 572 448 572 367 572 c 0,30,31
 311 572 311 572 280 536.5 c 128,-1,32
 249 501 249 501 249 442 c 0,0,1
EndSplineSet
EndChar

StartChar: three
Encoding: 51 51 22
Width: 635
GlyphClass: 2
Flags: W
LayerCount: 2
Fore
SplineSet
259 474 m 0,0,1
 259 459 259 459 264 444 c 1,2,-1
 87 444 l 1,3,4
 82 462 82 462 82 491 c 0,5,6
 82 600 82 600 161 663.5 c 128,-1,7
 240 727 240 727 388 727 c 0,8,9
 506 727 506 727 567 677.5 c 128,-1,10
 628 628 628 628 628 541 c 0,11,12
 628 470 628 470 581 407 c 128,-1,13
 534 344 534 344 473 344 c 1,14,-1
 473 341 l 1,15,16
 520 341 520 341 548 308 c 128,-1,17
 576 275 576 275 576 222 c 0,18,19
 576 -14 576 -14 262 -14 c 0,20,21
 131 -14 131 -14 69 46 c 0,22,23
 23 90 23 90 23 168 c 0,24,25
 23 196 23 196 29 228 c 1,26,-1
 209 228 l 1,27,28
 207 217 207 217 207 207 c 0,29,30
 207 141 207 141 293 141 c 0,31,32
 338 141 338 141 368 167 c 128,-1,33
 398 193 398 193 398 231 c 0,34,35
 398 289 398 289 322 289 c 2,36,-1
 221 289 l 1,37,-1
 241 398 l 1,38,-1
 321 398 l 1,39,40
 373 399 373 399 408.5 430.5 c 128,-1,41
 444 462 444 462 444 499 c 128,-1,42
 444 536 444 536 421.5 554 c 128,-1,43
 399 572 399 572 355 572 c 128,-1,44
 311 572 311 572 285 545.5 c 128,-1,45
 259 519 259 519 259 474 c 0,0,1
EndSplineSet
EndChar

StartChar: four
Encoding: 52 52 23
Width: 622
GlyphClass: 2
Flags: W
LayerCount: 2
Fore
SplineSet
447 0 m 1,0,-1
 269 0 l 1,1,-1
 291 127 l 1,2,-1
 7 127 l 1,3,-1
 48 358 l 1,4,-1
 331 700 l 1,5,-1
 521 700 l 1,6,-1
 232 329 l 1,7,-1
 222 271 l 1,8,-1
 329 271 l 1,9,-1
 354 408 l 1,10,-1
 519 408 l 1,11,-1
 494 271 l 1,12,-1
 593 271 l 1,13,-1
 568 127 l 1,14,-1
 469 127 l 1,15,-1
 447 0 l 1,0,-1
EndSplineSet
EndChar

StartChar: five
Encoding: 53 53 24
Width: 634
GlyphClass: 2
Flags: W
LayerCount: 2
Fore
SplineSet
214 199 m 0,0,1
 214 173 214 173 234.5 157 c 128,-1,2
 255 141 255 141 301 141 c 128,-1,3
 347 141 347 141 378.5 170.5 c 128,-1,4
 410 200 410 200 410 244 c 128,-1,5
 410 288 410 288 387.5 313.5 c 128,-1,6
 365 339 365 339 332 339 c 0,7,8
 273 339 273 339 241 313 c 2,9,-1
 230 304 l 1,10,-1
 59 304 l 1,11,-1
 132 720 l 1,12,-1
 621 720 l 1,13,-1
 593 563 l 1,14,-1
 274 563 l 1,15,-1
 257 464 l 1,16,17
 301 487 301 487 389.5 487 c 128,-1,18
 478 487 478 487 535.5 432 c 128,-1,19
 593 377 593 377 593 283 c 0,20,21
 593 151 593 151 513 68.5 c 128,-1,22
 433 -14 433 -14 281 -14 c 128,-1,23
 129 -14 129 -14 72 42 c 0,24,25
 30 83 30 83 30 157 c 0,26,27
 30 183 30 183 35 213 c 1,28,-1
 215 213 l 1,29,30
 214 206 214 206 214 199 c 0,0,1
EndSplineSet
EndChar

StartChar: six
Encoding: 54 54 25
Width: 646
GlyphClass: 2
Flags: W
LayerCount: 2
Fore
SplineSet
419 422 m 2,0,1
 506 422 506 422 549.5 376.5 c 128,-1,2
 593 331 593 331 593 257 c 0,3,4
 593 129 593 129 515 57.5 c 128,-1,5
 437 -14 437 -14 283 -14 c 128,-1,6
 129 -14 129 -14 74 48 c 0,7,8
 36 92 36 92 36 171 c 0,9,10
 36 205 36 205 43 244 c 2,11,-1
 84 474 l 2,12,13
 129 727 129 727 404 727 c 0,14,15
 521 727 521 727 581 685.5 c 128,-1,16
 641 644 641 644 641 570 c 0,17,18
 641 541 641 541 632.5 514.5 c 128,-1,19
 624 488 624 488 615 476 c 2,20,-1
 606 464 l 1,21,-1
 429 464 l 1,22,23
 453 489 453 489 453 526 c 0,24,25
 453 572 453 572 376 572 c 0,26,27
 281 572 281 572 261 460 c 2,28,-1
 254 422 l 1,29,-1
 419 422 l 2,0,1
334 287 m 2,30,-1
 231 287 l 1,31,-1
 226 258 l 2,32,33
 222 233 222 233 222 208 c 0,34,35
 222 141 222 141 300 141 c 0,36,37
 409 141 409 141 409 225 c 0,38,39
 409 287 409 287 334 287 c 2,30,-1
EndSplineSet
EndChar

StartChar: seven
Encoding: 55 55 26
Width: 570
GlyphClass: 2
Flags: W
LayerCount: 2
Fore
SplineSet
243 0 m 1,0,-1
 63 0 l 1,1,2
 79 88 79 88 115.5 170 c 128,-1,3
 152 252 152 252 194 310 c 128,-1,4
 236 368 236 368 276.5 415.5 c 128,-1,5
 317 463 317 463 346 501.5 c 128,-1,6
 375 540 375 540 379 564 c 1,7,-1
 72 564 l 1,8,-1
 100 720 l 1,9,-1
 623 720 l 1,10,-1
 610 646 l 2,11,12
 591 535 591 535 478 407 c 0,13,14
 432 354 432 354 385 297.5 c 128,-1,15
 338 241 338 241 298 164 c 128,-1,16
 258 87 258 87 243 0 c 1,0,-1
EndSplineSet
EndChar

StartChar: eight
Encoding: 56 56 27
Width: 625
GlyphClass: 2
Flags: W
LayerCount: 2
Fore
SplineSet
17 158 m 0,0,1
 17 207 17 207 31.5 248 c 128,-1,2
 46 289 46 289 62.5 310.5 c 128,-1,3
 79 332 79 332 104 350 c 128,-1,4
 129 368 129 368 136.5 371 c 128,-1,5
 144 374 144 374 155 378 c 1,6,7
 134 385 134 385 114 416 c 1,8,9
 96 446 96 446 96 497 c 0,10,11
 96 603 96 603 175.5 664.5 c 128,-1,12
 255 726 255 726 379 726 c 128,-1,13
 503 726 503 726 560 685 c 128,-1,14
 617 644 617 644 617 570 c 0,15,16
 617 532 617 532 604 500 c 128,-1,17
 591 468 591 468 572 450 c 1,18,19
 533 410 533 410 504 399 c 2,20,-1
 491 394 l 1,21,22
 571 347 571 347 571 240 c 0,23,24
 571 108 571 108 490.5 47 c 128,-1,25
 410 -14 410 -14 254 -14 c 0,26,27
 146 -14 146 -14 81.5 28.5 c 128,-1,28
 17 71 17 71 17 158 c 0,0,1
199 207 m 0,29,30
 199 141 199 141 282 141 c 0,31,32
 336 141 336 141 366.5 164.5 c 128,-1,33
 397 188 397 188 397 230 c 128,-1,34
 397 272 397 272 349 284 c 1,35,-1
 283 299 l 1,36,37
 280 298 280 298 274 296.5 c 128,-1,38
 268 295 268 295 253.5 288 c 128,-1,39
 239 281 239 281 228 272 c 0,40,41
 199 246 199 246 199 207 c 0,29,30
419 518 m 128,-1,43
 419 540 419 540 403.5 556 c 128,-1,44
 388 572 388 572 354.5 572 c 128,-1,45
 321 572 321 572 298 550.5 c 128,-1,46
 275 529 275 529 275 506.5 c 128,-1,47
 275 484 275 484 282 472 c 0,48,49
 292 452 292 452 305 449 c 2,50,-1
 363 435 l 1,51,52
 369 435 369 435 380.5 441 c 128,-1,53
 392 447 392 447 399.5 454.5 c 128,-1,54
 407 462 407 462 413 479 c 128,-1,42
 419 496 419 496 419 518 c 128,-1,43
EndSplineSet
EndChar

StartChar: nine
Encoding: 57 57 28
Width: 646
GlyphClass: 2
Flags: W
LayerCount: 2
Fore
SplineSet
248 291 m 2,0,1
 162 291 162 291 118.5 336.5 c 128,-1,2
 75 382 75 382 75 456 c 0,3,4
 75 584 75 584 153 655.5 c 128,-1,5
 231 727 231 727 385 727 c 128,-1,6
 539 727 539 727 594 664 c 0,7,8
 632 621 632 621 632 542 c 0,9,10
 632 508 632 508 625 469 c 2,11,-1
 584 239 l 2,12,13
 539 -14 539 -14 264 -14 c 0,14,15
 147 -14 147 -14 87 27.5 c 128,-1,16
 27 69 27 69 27 143 c 0,17,18
 27 170 27 170 34.5 196.5 c 128,-1,19
 42 223 42 223 50 236 c 2,20,-1
 57 249 l 1,21,-1
 234 249 l 1,22,23
 216 224 216 224 216 195 c 0,24,25
 216 141 216 141 292 141 c 0,26,27
 387 141 387 141 407 253 c 2,28,-1
 414 291 l 1,29,-1
 248 291 l 2,0,1
334 426 m 2,30,-1
 437 426 l 1,31,-1
 442 455 l 2,32,33
 446 480 446 480 446 505 c 0,34,35
 446 572 446 572 368 572 c 0,36,37
 259 572 259 572 259 488 c 0,38,39
 259 426 259 426 334 426 c 2,30,-1
EndSplineSet
EndChar

StartChar: colon
Encoding: 58 58 29
Width: 311
GlyphClass: 2
Flags: W
LayerCount: 2
Fore
SplineSet
18 58 m 0,0,1
 18 122 18 122 46 151.5 c 128,-1,2
 74 181 74 181 135 181 c 0,3,4
 219 181 219 181 219 107 c 0,5,6
 219 44 219 44 190.5 15 c 128,-1,7
 162 -14 162 -14 101 -14 c 0,8,9
 18 -14 18 -14 18 58 c 0,0,1
73 373 m 0,10,11
 73 437 73 437 101.5 466.5 c 128,-1,12
 130 496 130 496 181 496 c 128,-1,13
 232 496 232 496 253 478.5 c 128,-1,14
 274 461 274 461 274 422 c 0,15,16
 274 359 274 359 245.5 330 c 128,-1,17
 217 301 217 301 156 301 c 0,18,19
 73 301 73 301 73 373 c 0,10,11
EndSplineSet
EndChar

StartChar: semicolon
Encoding: 59 59 30
Width: 319
GlyphClass: 2
Flags: W
LayerCount: 2
Fore
SplineSet
74 373 m 0,0,1
 74 437 74 437 102.5 466.5 c 128,-1,2
 131 496 131 496 191 496 c 0,3,4
 275 496 275 496 275 422 c 0,5,6
 275 359 275 359 246 330 c 128,-1,7
 217 301 217 301 157 301 c 0,8,9
 74 301 74 301 74 373 c 0,0,1
18 58 m 0,10,11
 18 122 18 122 46.5 151.5 c 128,-1,12
 75 181 75 181 136 181 c 0,13,14
 226 181 226 181 226 92 c 0,15,16
 226 -202 226 -202 -52 -202 c 1,17,-1
 -39 -130 l 1,18,19
 14 -130 14 -130 66 -80 c 0,20,21
 95 -52 95 -52 101 -14 c 1,22,23
 18 -14 18 -14 18 58 c 0,10,11
EndSplineSet
EndChar

StartChar: less
Encoding: 60 60 31
Width: 422
GlyphClass: 2
Flags: W
LayerCount: 2
Fore
SplineSet
321 7 m 1,0,-1
 11 216 l 1,1,-1
 29 319 l 1,2,-1
 413 529 l 1,3,-1
 389 389 l 1,4,-1
 168 267 l 1,5,-1
 346 147 l 1,6,-1
 321 7 l 1,0,-1
EndSplineSet
EndChar

StartChar: equal
Encoding: 61 61 32
Width: 489
GlyphClass: 2
Flags: W
LayerCount: 2
Fore
SplineSet
432 306 m 1,0,-1
 61 306 l 1,1,-1
 82 424 l 1,2,-1
 453 424 l 1,3,-1
 432 306 l 1,0,-1
395 95 m 1,4,-1
 24 95 l 1,5,-1
 45 213 l 1,6,-1
 416 213 l 1,7,-1
 395 95 l 1,4,-1
EndSplineSet
EndChar

StartChar: greater
Encoding: 62 62 33
Width: 422
GlyphClass: 2
Flags: W
LayerCount: 2
Fore
SplineSet
383 216 m 1,0,-1
 -1 7 l 1,1,-1
 24 147 l 1,2,-1
 244 267 l 1,3,-1
 66 389 l 1,4,-1
 91 529 l 1,5,-1
 401 319 l 1,6,-1
 383 216 l 1,0,-1
EndSplineSet
EndChar

StartChar: question
Encoding: 63 63 34
Width: 592
GlyphClass: 2
Flags: W
LayerCount: 2
Fore
SplineSet
246 494 m 0,0,1
 246 471 246 471 253 452 c 1,2,-1
 76 452 l 1,3,4
 70 476 70 476 70 514 c 0,5,6
 70 630 70 630 151 697.5 c 128,-1,7
 232 765 232 765 383 765 c 0,8,9
 502 765 502 765 559.5 720.5 c 128,-1,10
 617 676 617 676 617 598 c 0,11,12
 617 543 617 543 590.5 496 c 128,-1,13
 564 449 564 449 525 418 c 128,-1,14
 486 387 486 387 447 361 c 128,-1,15
 408 335 408 335 378 310 c 128,-1,16
 348 285 348 285 344 262 c 2,17,-1
 332 197 l 1,18,-1
 164 197 l 1,19,-1
 175 262 l 2,20,21
 184 311 184 311 212 345.5 c 128,-1,22
 240 380 240 380 273.5 398.5 c 128,-1,23
 307 417 307 417 340 435 c 0,24,25
 416 477 416 477 416 556 c 0,26,27
 416 610 416 610 346 610 c 0,28,29
 298 610 298 610 272 578.5 c 128,-1,30
 246 547 246 547 246 494 c 0,0,1
119 33 m 0,31,32
 119 97 119 97 147.5 126.5 c 128,-1,33
 176 156 176 156 236 156 c 0,34,35
 320 156 320 156 320 82 c 0,36,37
 320 19 320 19 291.5 -10 c 128,-1,38
 263 -39 263 -39 202 -39 c 0,39,40
 119 -39 119 -39 119 33 c 0,31,32
EndSplineSet
EndChar

StartChar: at
Encoding: 64 64 35
Width: 982
GlyphClass: 2
Flags: W
LayerCount: 2
Fore
SplineSet
512.5 638 m 128,-1,1
 491 637 491 637 451 633.5 c 128,-1,2
 411 630 411 630 383.5 619.5 c 128,-1,3
 356 609 356 609 326 592 c 0,4,5
 267 558 267 558 252 479 c 2,6,-1
 202 197 l 2,7,8
 200 184 200 184 200 164.5 c 128,-1,9
 200 145 200 145 214 118 c 128,-1,10
 228 91 228 91 257 74 c 128,-1,11
 286 57 286 57 328 46 c 0,12,13
 393 30 393 30 472 30 c 128,-1,14
 551 30 551 30 623 42 c 128,-1,15
 695 54 695 54 727 66 c 2,16,-1
 759 79 l 1,17,-1
 785 -66 l 1,18,19
 719 -87 719 -87 612.5 -106 c 128,-1,20
 506 -125 506 -125 437 -125 c 0,21,22
 197 -125 197 -125 98 -40 c 0,23,24
 22 25 22 25 22 140 c 0,25,26
 22 175 22 175 29 214 c 2,27,-1
 76 479 l 2,28,29
 101 620 101 620 230.5 707 c 128,-1,30
 360 794 360 794 600 794 c 0,31,32
 715 794 715 794 797.5 770 c 128,-1,33
 880 746 880 746 923 702 c 0,34,35
 991 634 991 634 991 539 c 0,36,37
 991 514 991 514 986 487 c 2,38,-1
 970 392 l 2,39,40
 947 259 947 259 857 190 c 128,-1,41
 767 121 767 121 644 121 c 0,42,43
 552 121 552 121 540 190 c 1,44,45
 526 165 526 165 494 143 c 128,-1,46
 462 121 462 121 412 121 c 0,47,48
 333 121 333 121 300 164 c 1,49,50
 276 193 276 193 276 242 c 0,51,52
 276 262 276 262 280 286 c 2,53,-1
 297 385 l 2,54,55
 311 462 311 462 360.5 507.5 c 128,-1,56
 410 553 410 553 488.5 553 c 128,-1,57
 567 553 567 553 594 516 c 1,58,-1
 599 542 l 1,59,-1
 746 542 l 1,60,-1
 706 313 l 2,61,62
 704 303 704 303 704 296 c 0,63,64
 704 269 704 269 727 269 c 0,65,66
 774 269 774 269 790 350 c 2,67,-1
 817 489 l 2,68,69
 820 505 820 505 820 524 c 128,-1,70
 820 543 820 543 809 568 c 128,-1,71
 798 593 798 593 776.5 607.5 c 128,-1,72
 755 622 755 622 714 630 c 0,73,74
 662 639 662 639 627 639 c 0,75,76
 591 639 591 639 562.5 639 c 128,-1,0
 534 639 534 639 512.5 638 c 128,-1,1
480 262 m 0,77,78
 519 262 519 262 539 289 c 1,79,-1
 557 391 l 1,80,81
 550 413 550 413 506 413 c 0,82,83
 488 413 488 413 475 401 c 128,-1,84
 462 389 462 389 458 369 c 2,85,-1
 446 304 l 2,86,87
 445 299 445 299 445 290 c 128,-1,88
 445 281 445 281 454 271.5 c 128,-1,89
 463 262 463 262 480 262 c 0,77,78
EndSplineSet
EndChar

StartChar: A
Encoding: 65 65 36
Width: 641
GlyphClass: 2
Flags: W
LayerCount: 2
Fore
SplineSet
375 0 m 1,0,-1
 381 157 l 1,1,-1
 214 157 l 1,2,-1
 165 0 l 1,3,-1
 -26 0 l 1,4,-1
 231 720 l 1,5,-1
 561 720 l 1,6,-1
 565 0 l 1,7,-1
 375 0 l 1,0,-1
334 545 m 1,8,-1
 255 291 l 1,9,-1
 386 291 l 1,10,-1
 397 545 l 1,11,-1
 334 545 l 1,8,-1
EndSplineSet
EndChar

StartChar: B
Encoding: 66 66 37
Width: 657
GlyphClass: 2
Flags: W
LayerCount: 2
Fore
SplineSet
436 720 m 2,0,1
 550 720 550 720 598 670 c 0,2,3
 634 632 634 632 634 574 c 0,4,5
 634 554 634 554 630 532 c 2,6,-1
 621 484 l 2,7,8
 610 427 610 427 578.5 395 c 128,-1,9
 547 363 547 363 523 363 c 1,10,-1
 522 355 l 1,11,12
 550 355 550 355 579 324 c 128,-1,13
 608 293 608 293 608 251 c 0,14,15
 608 234 608 234 604 215 c 2,16,-1
 598 184 l 2,17,18
 582 98 582 98 521.5 49 c 128,-1,19
 461 0 461 0 353 0 c 2,20,-1
 19 0 l 1,21,-1
 146 720 l 1,22,-1
 436 720 l 2,0,1
346 294 m 2,23,-1
 251 294 l 1,24,-1
 227 156 l 1,25,-1
 322 156 l 2,26,27
 324 156 324 156 326 156 c 0,28,29
 372 156 372 156 399 177.5 c 128,-1,30
 426 199 426 199 426 230 c 0,31,32
 426 294 426 294 346 294 c 2,23,-1
373 564 m 2,33,-1
 298 564 l 1,34,-1
 272 415 l 1,35,-1
 346 415 l 2,36,37
 442 415 442 415 442 499 c 0,38,39
 442 528 442 528 424.5 546 c 128,-1,40
 407 564 407 564 373 564 c 2,33,-1
EndSplineSet
EndChar

StartChar: C
Encoding: 67 67 38
Width: 647
GlyphClass: 2
Flags: W
LayerCount: 2
Fore
SplineSet
272 -14 m 0,0,1
 129 -14 129 -14 74 48 c 0,2,3
 36 92 36 92 36 171 c 0,4,5
 36 205 36 205 43 244 c 2,6,-1
 84 474 l 2,7,8
 129 727 129 727 409 727 c 0,9,10
 525 727 525 727 585 677.5 c 128,-1,11
 645 628 645 628 645 542 c 0,12,13
 645 502 645 502 633.5 462.5 c 128,-1,14
 622 423 622 423 611 404 c 2,15,-1
 600 384 l 1,16,-1
 423 384 l 1,17,18
 456 422 456 422 456 492 c 0,19,20
 456 529 456 529 437 550.5 c 128,-1,21
 418 572 418 572 381 572 c 0,22,23
 280 572 280 572 261 460 c 2,24,-1
 226 258 l 2,25,26
 221 232 221 232 221 207 c 0,27,28
 221 141 221 141 300 141 c 0,29,30
 395 141 395 141 414 248 c 1,31,-1
 594 248 l 1,32,-1
 589 219 l 2,33,34
 549 -14 549 -14 272 -14 c 0,0,1
EndSplineSet
EndChar

StartChar: D
Encoding: 68 68 39
Width: 669
GlyphClass: 2
Flags: W
LayerCount: 2
Fore
SplineSet
426 720 m 2,0,1
 557 720 557 720 613 654 c 1,2,3
 654 604 654 604 654 529 c 0,4,5
 654 502 654 502 649 472 c 2,6,-1
 610 249 l 2,7,8
 590 136 590 136 512 68 c 128,-1,9
 434 0 434 0 310 0 c 2,10,-1
 19 0 l 1,11,-1
 146 720 l 1,12,-1
 426 720 l 2,0,1
363 564 m 2,13,-1
 298 564 l 1,14,-1
 227 156 l 1,15,-1
 322 156 l 2,16,17
 369 156 369 156 395.5 181.5 c 128,-1,18
 422 207 422 207 432 265 c 2,19,-1
 461 429 l 2,20,21
 465 451 465 451 465 469 c 0,22,23
 465 564 465 564 363 564 c 2,13,-1
EndSplineSet
EndChar

StartChar: E
Encoding: 69 69 40
Width: 617
GlyphClass: 2
Flags: W
LayerCount: 2
Fore
SplineSet
521 0 m 1,0,-1
 19 0 l 1,1,-1
 146 720 l 1,2,-1
 648 720 l 1,3,-1
 620 564 l 1,4,-1
 298 564 l 1,5,-1
 275 429 l 1,6,-1
 541 429 l 1,7,-1
 513 273 l 1,8,-1
 247 273 l 1,9,-1
 227 156 l 1,10,-1
 549 156 l 1,11,-1
 521 0 l 1,0,-1
EndSplineSet
EndChar

StartChar: F
Encoding: 70 70 41
Width: 602
GlyphClass: 2
Flags: W
LayerCount: 2
Fore
SplineSet
512 264 m 1,0,-1
 246 264 l 1,1,-1
 200 0 l 1,2,-1
 19 0 l 1,3,-1
 146 720 l 1,4,-1
 648 720 l 1,5,-1
 620 564 l 1,6,-1
 298 564 l 1,7,-1
 273 420 l 1,8,-1
 539 420 l 1,9,-1
 512 264 l 1,0,-1
EndSplineSet
EndChar

StartChar: G
Encoding: 71 71 42
Width: 649
GlyphClass: 2
Flags: W
LayerCount: 2
Fore
SplineSet
270 -14 m 0,0,1
 128 -14 128 -14 74 52 c 0,2,3
 37 98 37 98 37 178 c 0,4,5
 37 215 37 215 45 259 c 2,6,-1
 80 459 l 2,7,8
 127 727 127 727 408 727 c 0,9,10
 524 727 524 727 584 677.5 c 128,-1,11
 644 628 644 628 644 542 c 0,12,13
 644 507 644 507 634.5 471 c 128,-1,14
 625 435 625 435 616 417 c 2,15,-1
 606 399 l 1,16,-1
 429 399 l 1,17,18
 455 435 455 435 455 482 c 0,19,20
 455 572 455 572 380 572 c 0,21,22
 279 572 279 572 259 455 c 2,23,-1
 225 263 l 2,24,25
 220 236 220 236 220 210 c 0,26,27
 220 141 220 141 301.5 141 c 128,-1,28
 383 141 383 141 406 223 c 1,29,-1
 324 223 l 1,30,-1
 344 334 l 1,31,-1
 609 334 l 1,32,-1
 593 248 l 1,33,-1
 588 219 l 1,34,35
 546 -14 546 -14 270 -14 c 0,0,1
EndSplineSet
EndChar

StartChar: H
Encoding: 72 72 43
Width: 697
GlyphClass: 2
Flags: W
LayerCount: 2
Fore
SplineSet
701 720 m 1,0,-1
 575 0 l 1,1,-1
 394 0 l 1,2,-1
 440 260 l 1,3,-1
 245 260 l 1,4,-1
 200 0 l 1,5,-1
 19 0 l 1,6,-1
 146 720 l 1,7,-1
 326 720 l 1,8,-1
 272 416 l 1,9,-1
 467 416 l 1,10,-1
 521 720 l 1,11,-1
 701 720 l 1,0,-1
EndSplineSet
EndChar

StartChar: I
Encoding: 73 73 44
Width: 322
GlyphClass: 2
Flags: W
LayerCount: 2
Fore
SplineSet
326 720 m 1,0,-1
 200 0 l 1,1,-1
 19 0 l 1,2,-1
 146 720 l 1,3,-1
 326 720 l 1,0,-1
EndSplineSet
EndChar

StartChar: J
Encoding: 74 74 45
Width: 632
GlyphClass: 2
Flags: W
LayerCount: 2
Fore
SplineSet
239 -14 m 0,0,1
 -2 -14 -2 -14 -2 161 c 0,2,3
 -2 188 -2 188 4 219 c 2,4,-1
 17 293 l 1,5,-1
 197 293 l 1,6,-1
 191 260 l 2,7,8
 187 235 187 235 187 209 c 128,-1,9
 187 183 187 183 200 166 c 0,10,11
 220 141 220 141 266 141 c 128,-1,12
 312 141 312 141 340.5 166 c 128,-1,13
 369 191 369 191 381 258 c 2,14,-1
 463 721 l 1,15,-1
 642 721 l 1,16,-1
 558 244 l 2,17,18
 535 111 535 111 458 48.5 c 128,-1,19
 381 -14 381 -14 239 -14 c 0,0,1
EndSplineSet
EndChar

StartChar: K
Encoding: 75 75 46
Width: 656
GlyphClass: 2
Flags: W
LayerCount: 2
Fore
SplineSet
717 720 m 1,0,-1
 488 357 l 1,1,-1
 590 0 l 1,2,-1
 400 0 l 1,3,-1
 325 264 l 1,4,-1
 246 264 l 1,5,-1
 199 0 l 1,6,-1
 19 0 l 1,7,-1
 146 720 l 1,8,-1
 326 720 l 1,9,-1
 273 420 l 1,10,-1
 337 420 l 1,11,-1
 527 720 l 1,12,-1
 717 720 l 1,0,-1
EndSplineSet
EndChar

StartChar: L
Encoding: 76 76 47
Width: 536
GlyphClass: 2
Flags: W
LayerCount: 2
Fore
SplineSet
475 0 m 1,0,-1
 19 0 l 1,1,-1
 146 720 l 1,2,-1
 326 720 l 1,3,-1
 227 156 l 1,4,-1
 503 156 l 1,5,-1
 475 0 l 1,0,-1
EndSplineSet
EndChar

StartChar: M
Encoding: 77 77 48
Width: 856
GlyphClass: 2
Flags: W
LayerCount: 2
Fore
SplineSet
334 720 m 1,0,-1
 441 375 l 1,1,-1
 671 720 l 1,2,-1
 860 720 l 1,3,-1
 733 0 l 1,4,-1
 552 0 l 1,5,-1
 624 406 l 1,6,-1
 470 164 l 1,7,-1
 339 164 l 1,8,-1
 271 406 l 1,9,-1
 199 0 l 1,10,-1
 19 0 l 1,11,-1
 146 720 l 1,12,-1
 334 720 l 1,0,-1
EndSplineSet
EndChar

StartChar: N
Encoding: 78 78 49
Width: 697
GlyphClass: 2
Flags: W
LayerCount: 2
Fore
SplineSet
701 720 m 1,0,-1
 575 0 l 1,1,-1
 394 0 l 1,2,-1
 268 394 l 1,3,-1
 200 0 l 1,4,-1
 19 0 l 1,5,-1
 146 720 l 1,6,-1
 332 720 l 1,7,-1
 456 352 l 1,8,-1
 521 720 l 1,9,-1
 701 720 l 1,0,-1
EndSplineSet
EndChar

StartChar: O
Encoding: 79 79 50
Width: 664
GlyphClass: 2
Flags: W
LayerCount: 2
Fore
SplineSet
408 727 m 0,0,1
 649 727 649 727 649 530 c 0,2,3
 649 497 649 497 642 459 c 2,4,-1
 607 259 l 2,5,6
 583 120 583 120 503 53 c 128,-1,7
 423 -14 423 -14 278 -14 c 128,-1,8
 133 -14 133 -14 76 53 c 0,9,10
 37 99 37 99 37 180 c 0,11,12
 37 216 37 216 45 259 c 2,13,-1
 80 459 l 2,14,15
 127 727 127 727 408 727 c 0,0,1
305 141 m 0,16,17
 355 141 355 141 385 167 c 128,-1,18
 415 193 415 193 427 263 c 2,19,-1
 461 455 l 2,20,21
 464 475 464 475 464 491 c 0,22,23
 464 572 464 572 382 572 c 1,24,25
 279 570 279 570 259 455 c 2,26,-1
 225 263 l 2,27,28
 221 238 221 238 221 211 c 0,29,30
 221 141 221 141 305 141 c 0,16,17
EndSplineSet
EndChar

StartChar: P
Encoding: 80 80 51
Width: 638
GlyphClass: 2
Flags: W
LayerCount: 2
Fore
SplineSet
357 219 m 2,0,-1
 238 219 l 1,1,-1
 199 0 l 1,2,-1
 19 0 l 1,3,-1
 146 720 l 1,4,-1
 451 720 l 2,5,6
 564 720 564 720 612 668 c 1,7,8
 647 628 647 628 647 566 c 0,9,10
 647 545 647 545 643 522 c 2,11,-1
 623 409 l 2,12,13
 608 326 608 326 535 272.5 c 128,-1,14
 462 219 462 219 357 219 c 2,0,-1
388 564 m 2,15,-1
 298 564 l 1,16,-1
 265 375 l 1,17,-1
 354 375 l 2,18,19
 436 375 436 375 449 448 c 2,20,-1
 456 489 l 2,21,22
 458 498 458 498 458 513 c 128,-1,23
 458 528 458 528 443 546 c 128,-1,24
 428 564 428 564 388 564 c 2,15,-1
EndSplineSet
EndChar

StartChar: Q
Encoding: 81 81 52
Width: 667
GlyphClass: 2
Flags: W
LayerCount: 2
Fore
SplineSet
409 727 m 0,0,1
 651 727 651 727 651 539 c 0,2,3
 651 509 651 509 645 474 c 2,4,-1
 604 244 l 2,5,6
 584 128 584 128 521.5 65.5 c 128,-1,7
 459 3 459 3 347 -10 c 1,8,9
 358 -46 358 -46 400.5 -67.5 c 128,-1,10
 443 -89 443 -89 511 -89 c 1,11,-1
 506 -231 l 1,12,13
 430 -231 430 -231 372.5 -214 c 128,-1,14
 315 -197 315 -197 283.5 -172.5 c 128,-1,15
 252 -148 252 -148 232 -115 c 0,16,17
 202 -64 202 -64 200 -8 c 1,18,19
 35 17 35 17 35 173 c 0,20,21
 35 206 35 206 42 244 c 2,22,-1
 83 474 l 2,23,24
 128 727 128 727 409 727 c 0,0,1
305 141 m 0,25,26
 355 141 355 141 385 166 c 128,-1,27
 415 191 415 191 427 258 c 2,28,-1
 463 460 l 2,29,30
 466 479 466 479 466 494 c 0,31,32
 466 572 466 572 382 572 c 1,33,34
 279 570 279 570 260 460 c 2,35,-1
 225 258 l 2,36,37
 221 234 221 234 221 208 c 0,38,39
 221 141 221 141 305 141 c 0,25,26
EndSplineSet
EndChar

StartChar: R
Encoding: 82 82 53
Width: 656
GlyphClass: 2
Flags: W
LayerCount: 2
Fore
SplineSet
436 720 m 2,0,1
 550 720 550 720 598 670 c 0,2,3
 634 632 634 632 634 574 c 0,4,5
 634 554 634 554 630 532 c 2,6,-1
 616 454 l 2,7,8
 604 389 604 389 574.5 349 c 128,-1,9
 545 309 545 309 509 292 c 1,10,-1
 600 0 l 1,11,-1
 398 0 l 1,12,-1
 314 269 l 1,13,-1
 252 269 l 1,14,-1
 211 0 l 1,15,-1
 19 0 l 1,16,-1
 146 720 l 1,17,-1
 436 720 l 2,0,1
373 564 m 2,18,-1
 298 564 l 1,19,-1
 272 390 l 1,20,-1
 342 390 l 2,21,22
 395 390 395 390 418 415.5 c 128,-1,23
 441 441 441 441 441 483 c 0,24,25
 441 564 441 564 373 564 c 2,18,-1
EndSplineSet
EndChar

StartChar: S
Encoding: 83 83 54
Width: 648
GlyphClass: 2
Flags: W
LayerCount: 2
Fore
SplineSet
210 205 m 0,0,1
 210 136 210 136 309.5 136 c 128,-1,2
 409 136 409 136 409 198 c 0,3,4
 409 231 409 231 375 252 c 128,-1,5
 341 273 341 273 292.5 287 c 128,-1,6
 244 301 244 301 195.5 319.5 c 128,-1,7
 147 338 147 338 113 377.5 c 128,-1,8
 79 417 79 417 79 476 c 0,9,10
 79 727 79 727 402 727 c 0,11,12
 520 727 520 727 580.5 682.5 c 128,-1,13
 641 638 641 638 641 559 c 0,14,15
 641 530 641 530 633.5 503.5 c 128,-1,16
 626 477 626 477 618 466 c 2,17,-1
 610 454 l 1,18,-1
 433 454 l 1,19,20
 455 477 455 477 455 512 c 0,21,22
 455 577 455 577 370 577 c 0,23,24
 263 577 263 577 263 509 c 0,25,26
 263 475 263 475 297 455 c 128,-1,27
 331 435 331 435 379.5 423.5 c 128,-1,28
 428 412 428 412 477 395 c 128,-1,29
 526 378 526 378 560 338.5 c 128,-1,30
 594 299 594 299 594 236 c 0,31,32
 594 109 594 109 518 47.5 c 128,-1,33
 442 -14 442 -14 284 -14 c 128,-1,34
 126 -14 126 -14 68 42 c 0,35,36
 25 84 25 84 25 158 c 0,37,38
 25 186 25 186 31 219 c 2,39,-1
 34 235 l 1,40,-1
 214 235 l 1,41,-1
 212 223 l 2,42,43
 210 213 210 213 210 205 c 0,0,1
EndSplineSet
EndChar

StartChar: T
Encoding: 84 84 55
Width: 696
GlyphClass: 2
Flags: W
LayerCount: 2
Fore
SplineSet
732 564 m 1,0,-1
 486 564 l 1,1,-1
 387 0 l 1,2,-1
 206 0 l 1,3,-1
 305 564 l 1,4,-1
 58 564 l 1,5,-1
 86 720 l 1,6,-1
 760 720 l 1,7,-1
 732 564 l 1,0,-1
EndSplineSet
EndChar

StartChar: U
Encoding: 85 85 56
Width: 691
GlyphClass: 2
Flags: W
LayerCount: 2
Fore
SplineSet
291 -14 m 128,-1,1
 146 -14 146 -14 90 53 c 1,2,3
 50 99 50 99 50 180 c 0,4,5
 50 216 50 216 58 259 c 2,6,-1
 139 720 l 1,7,-1
 319 720 l 1,8,-1
 238 263 l 2,9,10
 234 238 234 238 234 211 c 0,11,12
 234 141 234 141 318 141 c 0,13,14
 368 141 368 141 398 167 c 128,-1,15
 428 193 428 193 440 263 c 2,16,-1
 521 720 l 1,17,-1
 701 720 l 1,18,-1
 620 259 l 2,19,20
 595 119 595 119 515.5 52.5 c 128,-1,0
 436 -14 436 -14 291 -14 c 128,-1,1
EndSplineSet
EndChar

StartChar: V
Encoding: 86 86 57
Width: 648
GlyphClass: 2
Flags: W
LayerCount: 2
Fore
SplineSet
315 175 m 1,0,-1
 505 720 l 1,1,-1
 700 720 l 1,2,-1
 427 0 l 1,3,-1
 107 0 l 1,4,-1
 99 720 l 1,5,-1
 295 720 l 1,6,-1
 292 175 l 1,7,-1
 315 175 l 1,0,-1
EndSplineSet
EndChar

StartChar: W
Encoding: 87 87 58
Width: 1000
GlyphClass: 2
Flags: W
LayerCount: 2
Fore
SplineSet
672 720 m 1,0,-1
 655 175 l 1,1,-1
 678 175 l 1,2,-1
 852 720 l 1,3,-1
 1048 720 l 1,4,-1
 801 0 l 1,5,-1
 501 0 l 1,6,-1
 528 461 l 1,7,-1
 394 0 l 1,8,-1
 94 0 l 1,9,-1
 101 720 l 1,10,-1
 297 720 l 1,11,-1
 279 175 l 1,12,-1
 302 175 l 1,13,-1
 477 720 l 1,14,-1
 672 720 l 1,0,-1
EndSplineSet
EndChar

StartChar: X
Encoding: 88 88 59
Width: 688
GlyphClass: 2
Flags: W
LayerCount: 2
Fore
SplineSet
756 720 m 1,0,-1
 474 357 l 1,1,-1
 629 0 l 1,2,-1
 424 0 l 1,3,-1
 326 230 l 1,4,-1
 161 0 l 1,5,-1
 -44 0 l 1,6,-1
 221 357 l 1,7,-1
 83 720 l 1,8,-1
 288 720 l 1,9,-1
 371 486 l 1,10,-1
 551 720 l 1,11,-1
 756 720 l 1,0,-1
EndSplineSet
EndChar

StartChar: Y
Encoding: 89 89 60
Width: 644
GlyphClass: 2
Flags: W
LayerCount: 2
Fore
SplineSet
367 467 m 1,0,-1
 536 720 l 1,1,-1
 716 720 l 1,2,-1
 408 277 l 1,3,-1
 359 0 l 1,4,-1
 178 0 l 1,5,-1
 227 277 l 1,6,-1
 75 720 l 1,7,-1
 266 720 l 1,8,-1
 344 467 l 1,9,-1
 367 467 l 1,0,-1
EndSplineSet
EndChar

StartChar: Z
Encoding: 90 90 61
Width: 618
GlyphClass: 2
Flags: W
LayerCount: 2
Fore
SplineSet
520 0 m 1,0,-1
 -7 0 l 1,1,-1
 21 156 l 1,2,-1
 22 156 l 1,3,-1
 409 564 l 1,4,-1
 92 564 l 1,5,-1
 120 720 l 1,6,-1
 648 720 l 1,7,-1
 620 564 l 1,8,-1
 233 156 l 1,9,-1
 548 156 l 1,10,-1
 520 0 l 1,0,-1
EndSplineSet
EndChar

StartChar: bracketleft
Encoding: 91 91 62
Width: 431
GlyphClass: 2
Flags: W
LayerCount: 2
Fore
SplineSet
297 -278 m 1,0,-1
 -36 -278 l 1,1,-1
 147 759 l 1,2,-1
 480 759 l 1,3,-1
 452 603 l 1,4,-1
 288 603 l 1,5,-1
 161 -122 l 1,6,-1
 325 -122 l 1,7,-1
 297 -278 l 1,0,-1
EndSplineSet
EndChar

StartChar: backslash
Encoding: 92 92 63
Width: 564
GlyphClass: 2
Flags: W
LayerCount: 2
Fore
SplineSet
441 -277 m 1,0,-1
 232 -277 l 1,1,-1
 103 760 l 1,2,-1
 311 760 l 1,3,-1
 441 -277 l 1,0,-1
EndSplineSet
EndChar

StartChar: bracketright
Encoding: 93 93 64
Width: 431
GlyphClass: 2
Flags: W
LayerCount: 2
Fore
SplineSet
265 -278 m 1,0,-1
 -68 -278 l 1,1,-1
 -40 -122 l 1,2,-1
 124 -122 l 1,3,-1
 251 603 l 1,4,-1
 87 603 l 1,5,-1
 115 759 l 1,6,-1
 448 759 l 1,7,-1
 265 -278 l 1,0,-1
EndSplineSet
EndChar

StartChar: asciicircum
Encoding: 94 94 65
Width: 523
GlyphClass: 2
Flags: W
LayerCount: 2
Fore
SplineSet
293 568 m 1,0,-1
 150 568 l 1,1,-1
 313 807 l 1,2,-1
 494 807 l 1,3,-1
 573 568 l 1,4,-1
 430 568 l 1,5,-1
 382 686 l 1,6,-1
 293 568 l 1,0,-1
EndSplineSet
EndChar

StartChar: underscore
Encoding: 95 95 66
Width: 664
GlyphClass: 2
Flags: W
LayerCount: 2
Fore
SplineSet
453 -422 m 1,0,-1
 -41 -422 l 1,1,-1
 -19 -296 l 1,2,-1
 475 -296 l 1,3,-1
 453 -422 l 1,0,-1
EndSplineSet
EndChar

StartChar: grave
Encoding: 96 96 67
Width: 402
GlyphClass: 2
Flags: W
LayerCount: 2
Fore
SplineSet
452 568 m 1,0,-1
 304 568 l 1,1,-1
 192 807 l 1,2,-1
 372 807 l 1,3,-1
 452 568 l 1,0,-1
EndSplineSet
EndChar

StartChar: a
Encoding: 97 97 68
Width: 602
GlyphClass: 2
Flags: W
LayerCount: 2
Fore
SplineSet
491 154 m 0,0,1
 491 128 491 128 517.5 128 c 128,-1,2
 544 128 544 128 562 138 c 1,3,-1
 557 25 l 1,4,5
 509 -14 509 -14 449 -14 c 0,6,7
 339 -14 339 -14 327 66 c 1,8,9
 277 -14 277 -14 180 -14 c 0,10,11
 16 -14 16 -14 16 127 c 0,12,13
 16 151 16 151 21 180 c 2,14,-1
 42 297 l 2,15,16
 58 387 58 387 115.5 440.5 c 128,-1,17
 173 494 173 494 265.5 494 c 128,-1,18
 358 494 358 494 391 451 c 1,19,-1
 396 481 l 1,20,-1
 548 481 l 1,21,-1
 492 166 l 2,22,23
 491 160 491 160 491 154 c 0,0,1
195 202 m 2,24,25
 193 193 193 193 193 177 c 128,-1,26
 193 161 193 161 208 145.5 c 128,-1,27
 223 130 223 130 258.5 130 c 128,-1,28
 294 130 294 130 320 158 c 1,29,-1
 350 326 l 1,30,31
 339 351 339 351 298 351 c 0,32,33
 221 351 221 351 208 277 c 2,34,-1
 195 202 l 2,24,25
EndSplineSet
EndChar

StartChar: b
Encoding: 98 98 69
Width: 570
GlyphClass: 2
Flags: W
LayerCount: 2
Fore
SplineSet
365 495 m 0,0,1
 464 495 464 495 504 440 c 1,2,3
 534 401 534 401 534 345 c 0,4,5
 534 322 534 322 529 297 c 2,6,-1
 509 185 l 2,7,8
 492 89 492 89 420.5 37.5 c 128,-1,9
 349 -14 349 -14 240.5 -14 c 128,-1,10
 132 -14 132 -14 74 29 c 0,11,12
 28 63 28 63 28 124 c 0,13,14
 28 140 28 140 31 157 c 2,15,-1
 137 759 l 1,16,-1
 307 759 l 1,17,-1
 256 468 l 1,18,19
 298 495 298 495 365 495 c 0,0,1
356 282 m 2,20,21
 357 290 357 290 357 304.5 c 128,-1,22
 357 319 357 319 344.5 335.5 c 128,-1,23
 332 352 332 352 290.5 352 c 128,-1,24
 249 352 249 352 231 327 c 1,25,-1
 202 160 l 1,26,27
 214 130 214 130 252 130 c 0,28,29
 329 130 329 130 343 207 c 2,30,-1
 356 282 l 2,20,21
EndSplineSet
EndChar

StartChar: c
Encoding: 99 99 70
Width: 550
GlyphClass: 2
Flags: W
LayerCount: 2
Fore
SplineSet
224 -14 m 0,0,1
 16 -14 16 -14 16 130 c 0,2,3
 16 150 16 150 20 173 c 2,4,-1
 41 297 l 2,5,6
 57 393 57 393 128.5 444 c 128,-1,7
 200 495 200 495 310 496 c 1,8,9
 523 496 523 496 523 348 c 0,10,11
 523 316 523 316 515.5 290.5 c 128,-1,12
 508 265 508 265 500 256 c 2,13,-1
 492 246 l 1,14,-1
 322 246 l 1,15,16
 347 268 347 268 347 298 c 0,17,18
 347 352 347 352 293 352 c 0,19,20
 261 352 261 352 238 333 c 128,-1,21
 215 314 215 314 208 275 c 2,22,-1
 195 202 l 2,23,24
 193 192 193 192 193 183 c 0,25,26
 193 130 193 130 259 130 c 0,27,28
 281 130 281 130 298.5 144 c 128,-1,29
 316 158 316 158 319 175 c 1,30,-1
 485 173 l 1,31,32
 452 -14 452 -14 224 -14 c 0,0,1
EndSplineSet
EndChar

StartChar: d
Encoding: 100 100 71
Width: 621
GlyphClass: 2
Flags: W
LayerCount: 2
Fore
SplineSet
491 154 m 0,0,1
 491 128 491 128 517.5 128 c 128,-1,2
 544 128 544 128 562 138 c 1,3,-1
 557 25 l 1,4,5
 509 -14 509 -14 449 -14 c 0,6,7
 339 -14 339 -14 327 66 c 1,8,9
 277 -14 277 -14 180 -14 c 0,10,11
 16 -14 16 -14 16 127 c 0,12,13
 16 151 16 151 21 180 c 2,14,-1
 42 297 l 2,15,16
 58 387 58 387 115.5 440.5 c 128,-1,17
 173 494 173 494 275 494 c 0,18,19
 338 494 338 494 375 467 c 1,20,-1
 426 759 l 1,21,-1
 597 759 l 1,22,-1
 492 166 l 2,23,24
 491 160 491 160 491 154 c 0,0,1
195 202 m 2,25,26
 193 193 193 193 193 177 c 128,-1,27
 193 161 193 161 208 145.5 c 128,-1,28
 223 130 223 130 258.5 130 c 128,-1,29
 294 130 294 130 320 158 c 1,30,-1
 350 326 l 1,31,32
 339 351 339 351 298 351 c 0,33,34
 221 351 221 351 208 277 c 2,35,-1
 195 202 l 2,25,26
EndSplineSet
EndChar

StartChar: e
Encoding: 101 101 72
Width: 552
GlyphClass: 2
Flags: W
LayerCount: 2
Fore
SplineSet
224 -14 m 0,0,1
 16 -14 16 -14 16 130 c 0,2,3
 16 150 16 150 20 173 c 2,4,-1
 41 297 l 2,5,6
 58 393 58 393 129.5 444.5 c 128,-1,7
 201 496 201 496 319 496 c 0,8,9
 520 496 520 496 520 344 c 0,10,11
 520 322 520 322 516 296 c 2,12,-1
 504 225 l 1,13,-1
 199 225 l 1,14,-1
 195 202 l 2,15,16
 193 190 193 190 193 180 c 0,17,18
 193 125 193 125 258 125 c 0,19,20
 282 125 282 125 299 140 c 128,-1,21
 316 155 316 155 319 175 c 1,22,-1
 485 173 l 1,23,24
 452 -14 452 -14 224 -14 c 0,0,1
344 286 m 1,25,26
 348 303 348 303 348 317.5 c 128,-1,27
 348 332 348 332 335 347 c 128,-1,28
 322 362 322 362 293.5 362 c 128,-1,29
 265 362 265 362 241.5 343 c 128,-1,30
 218 324 218 324 209 286 c 1,31,-1
 344 286 l 1,25,26
EndSplineSet
EndChar

StartChar: f
Encoding: 102 102 73
Width: 519
GlyphClass: 2
Flags: W
LayerCount: 2
Fore
SplineSet
456 -18 m 0,0,1
 456 -164 456 -164 381.5 -257.5 c 128,-1,2
 307 -351 307 -351 179.5 -351 c 128,-1,3
 52 -351 52 -351 10 -288 c 0,4,5
 -16 -248 -16 -248 -16 -190.5 c 128,-1,6
 -16 -133 -16 -133 -6 -76 c 2,7,-1
 122 648 l 1,8,-1
 292 648 l 1,9,-1
 262 481 l 1,10,-1
 511 481 l 1,11,-1
 486 340 l 1,12,-1
 290 340 l 1,13,14
 361 283 361 283 408.5 192 c 128,-1,15
 456 101 456 101 456 -18 c 0,0,1
258 -158 m 128,-1,17
 280 -108 280 -108 280 -26.5 c 128,-1,18
 280 55 280 55 263.5 138 c 128,-1,19
 247 221 247 221 224 268 c 1,20,-1
 164 -75 l 2,21,22
 158 -110 158 -110 158 -136 c 0,23,24
 158 -208 158 -208 205 -208 c 0,25,16
 236 -208 236 -208 258 -158 c 128,-1,17
EndSplineSet
EndChar

StartChar: g
Encoding: 103 103 74
Width: 557
GlyphClass: 2
Flags: W
LayerCount: 2
Fore
SplineSet
361.5 -217 m 128,-1,1
 283 -291 283 -291 182 -291 c 128,-1,2
 81 -291 81 -291 36.5 -254 c 128,-1,3
 -8 -217 -8 -217 -8 -157 c 0,4,5
 -8 -69 -8 -69 104 -4 c 1,6,7
 19 23 19 23 19 125 c 0,8,9
 19 150 19 150 24 180 c 2,10,-1
 44 297 l 2,11,12
 60 387 60 387 118 440.5 c 128,-1,13
 176 494 176 494 268.5 494 c 128,-1,14
 361 494 361 494 395 449 c 1,15,-1
 401 481 l 1,16,-1
 550 481 l 1,17,-1
 462 -16 l 2,18,0
 440 -143 440 -143 361.5 -217 c 128,-1,1
198 202 m 2,19,20
 196 193 196 193 196 177 c 128,-1,21
 196 161 196 161 211 145.5 c 128,-1,22
 226 130 226 130 261.5 130 c 128,-1,23
 297 130 297 130 323 158 c 1,24,-1
 353 326 l 1,25,26
 339 351 339 351 300 351 c 128,-1,27
 261 351 261 351 239 331 c 128,-1,28
 217 311 217 311 211 277 c 2,29,-1
 198 202 l 2,19,20
205 -148 m 0,30,31
 270 -148 270 -148 290 -30 c 2,32,-1
 300 28 l 1,33,34
 161 -37 161 -37 161 -103 c 0,35,36
 161 -123 161 -123 172.5 -135.5 c 128,-1,37
 184 -148 184 -148 205 -148 c 0,30,31
EndSplineSet
EndChar

StartChar: h
Encoding: 104 104 75
Width: 619
GlyphClass: 2
Flags: W
LayerCount: 2
Fore
SplineSet
541 128 m 0,0,1
 564 128 564 128 582 138 c 1,2,-1
 577 25 l 1,3,4
 530 -14 530 -14 470 -14 c 0,5,6
 334 -14 334 -14 334 100 c 0,7,8
 334 120 334 120 338 143 c 2,9,-1
 360 266 l 2,10,11
 363 284 363 284 363 302 c 0,12,13
 363 350 363 350 312.5 350 c 128,-1,14
 262 350 262 350 234 316 c 1,15,-1
 178 0 l 1,16,-1
 8 0 l 1,17,-1
 142 759 l 1,18,-1
 312 759 l 1,19,-1
 255 436 l 1,20,21
 310 495 310 495 393 495 c 0,22,23
 494 495 494 495 524 450 c 0,24,25
 545 420 545 420 545 383 c 128,-1,26
 545 346 545 346 539 315 c 2,27,-1
 512 166 l 2,28,29
 511 160 511 160 511 155 c 0,30,31
 511 128 511 128 541 128 c 0,0,1
EndSplineSet
EndChar

StartChar: i
Encoding: 105 105 76
Width: 313
GlyphClass: 2
Flags: W
LayerCount: 2
Fore
SplineSet
233 128 m 0,0,1
 256 128 256 128 274 138 c 1,2,-1
 269 25 l 1,3,4
 222 -14 222 -14 162 -14 c 0,5,6
 71 -14 71 -14 44 28 c 0,7,8
 26 56 26 56 26 87.5 c 128,-1,9
 26 119 26 119 30 143 c 2,10,-1
 90 481 l 1,11,-1
 260 481 l 1,12,-1
 204 166 l 2,13,14
 203 160 203 160 203 155 c 0,15,16
 203 128 203 128 233 128 c 0,0,1
110 644 m 0,17,18
 110 708 110 708 138.5 737.5 c 128,-1,19
 167 767 167 767 227 767 c 0,20,21
 311 767 311 767 311 693 c 0,22,23
 311 630 311 630 282.5 601 c 128,-1,24
 254 572 254 572 193 572 c 0,25,26
 110 572 110 572 110 644 c 0,17,18
EndSplineSet
EndChar

StartChar: j
Encoding: 106 106 77
Width: 270
GlyphClass: 2
Flags: W
LayerCount: 2
Fore
SplineSet
-33 -287 m 0,0,1
 -60 -287 -60 -287 -83.5 -277.5 c 128,-1,2
 -107 -268 -107 -268 -117 -258 c 2,3,-1
 -127 -248 l 1,4,-1
 -92 -135 l 1,5,6
 -80 -145 -80 -145 -54 -145 c 0,7,8
 -19 -145 -19 -145 -12 -107 c 2,9,-1
 92 481 l 1,10,-1
 262 481 l 1,11,-1
 154 -130 l 2,12,13
 141 -202 141 -202 98.5 -244.5 c 128,-1,14
 56 -287 56 -287 -33 -287 c 0,0,1
110 644 m 0,15,16
 110 708 110 708 138.5 737.5 c 128,-1,17
 167 767 167 767 227 767 c 0,18,19
 311 767 311 767 311 693 c 0,20,21
 311 630 311 630 282 601 c 128,-1,22
 253 572 253 572 193 572 c 0,23,24
 110 572 110 572 110 644 c 0,15,16
EndSplineSet
EndChar

StartChar: k
Encoding: 107 107 78
Width: 602
GlyphClass: 2
Flags: W
LayerCount: 2
Fore
SplineSet
501 128 m 0,0,1
 524 128 524 128 542 138 c 1,2,-1
 537 25 l 1,3,4
 490 -14 490 -14 422 -14 c 128,-1,5
 354 -14 354 -14 321.5 22 c 128,-1,6
 289 58 289 58 271 143 c 2,7,-1
 268 157 l 1,8,9
 247 154 247 154 205 152 c 1,10,-1
 178 0 l 1,11,-1
 8 0 l 1,12,-1
 142 759 l 1,13,-1
 312 759 l 1,14,-1
 254 430 l 1,15,16
 313 495 313 495 414 495 c 0,17,18
 482 495 482 495 514.5 461.5 c 128,-1,19
 547 428 547 428 547 372 c 0,20,21
 547 264 547 264 434 203 c 1,22,-1
 445 166 l 2,23,24
 456 128 456 128 501 128 c 0,0,1
328 359 m 0,25,26
 274 359 274 359 232 308 c 1,27,-1
 221 242 l 1,28,29
 369 248 369 248 369 321 c 0,30,31
 369 338 369 338 358.5 348.5 c 128,-1,32
 348 359 348 359 328 359 c 0,25,26
EndSplineSet
EndChar

StartChar: l
Encoding: 108 108 79
Width: 319
GlyphClass: 2
Flags: W
LayerCount: 2
Fore
SplineSet
208 154 m 0,0,1
 208 128 208 128 234.5 128 c 128,-1,2
 261 128 261 128 279 138 c 1,3,-1
 274 25 l 1,4,5
 226 -14 226 -14 166 -14 c 0,6,7
 75 -14 75 -14 48 28 c 0,8,9
 31 55 31 55 31 87 c 128,-1,10
 31 119 31 119 35 143 c 2,11,-1
 144 759 l 1,12,-1
 314 759 l 1,13,-1
 209 166 l 2,14,15
 208 160 208 160 208 154 c 0,0,1
EndSplineSet
EndChar

StartChar: m
Encoding: 109 109 80
Width: 928
GlyphClass: 2
Flags: W
LayerCount: 2
Fore
SplineSet
850 128 m 0,0,1
 873 128 873 128 891 138 c 1,2,-1
 886 25 l 1,3,4
 839 -14 839 -14 779 -14 c 0,5,6
 643 -14 643 -14 643 100 c 0,7,8
 643 120 643 120 647 143 c 2,9,-1
 668 266 l 2,10,11
 671 284 671 284 671 302 c 0,12,13
 671 350 671 350 618.5 350 c 128,-1,14
 566 350 566 350 536 309 c 1,15,-1
 482 0 l 1,16,-1
 312 0 l 1,17,-1
 359 266 l 2,18,19
 362 284 362 284 362 302 c 0,20,21
 362 350 362 350 308 350 c 0,22,23
 265 350 265 350 234 317 c 1,24,-1
 178 0 l 1,25,-1
 8 0 l 1,26,-1
 93 481 l 1,27,-1
 251 481 l 1,28,-1
 240 421 l 1,29,30
 300 495 300 495 392 495 c 0,31,32
 522 495 522 495 540 409 c 1,33,34
 600 495 600 495 700.5 495 c 128,-1,35
 801 495 801 495 831 450 c 0,36,37
 851 419 851 419 851 382 c 128,-1,38
 851 345 851 345 846 315 c 2,39,-1
 821 166 l 2,40,41
 820 160 820 160 820 155 c 0,42,43
 820 128 820 128 850 128 c 0,0,1
EndSplineSet
EndChar

StartChar: n
Encoding: 110 110 81
Width: 598
GlyphClass: 2
Flags: W
LayerCount: 2
Fore
SplineSet
344 307 m 0,0,1
 344 350 344 350 302.5 350 c 128,-1,2
 261 350 261 350 234 319 c 1,3,-1
 178 0 l 1,4,-1
 8 0 l 1,5,-1
 93 481 l 1,6,-1
 251 481 l 1,7,-1
 240 422 l 1,8,9
 299 495 299 495 389 495 c 128,-1,10
 479 495 479 495 506 451 c 0,11,12
 523 423 523 423 523 387 c 128,-1,13
 523 351 523 351 518 320 c 2,14,-1
 491 166 l 2,15,16
 490 160 490 160 490 155 c 0,17,18
 490 128 490 128 520 128 c 0,19,20
 543 128 543 128 561 138 c 1,21,-1
 556 25 l 1,22,23
 509 -14 509 -14 449 -14 c 0,24,25
 313 -14 313 -14 313 100 c 0,26,27
 313 120 313 120 317 143 c 2,28,-1
 341 276 l 2,29,30
 344 294 344 294 344 307 c 0,0,1
EndSplineSet
EndChar

StartChar: o
Encoding: 111 111 82
Width: 564
GlyphClass: 2
Flags: W
LayerCount: 2
Fore
SplineSet
321 495 m 0,0,1
 429 495 429 495 484 448 c 0,2,3
 527 411 527 411 527 345 c 0,4,5
 527 323 527 323 522 297 c 2,6,-1
 501 180 l 2,7,8
 482 74 482 74 412.5 30 c 128,-1,9
 343 -14 343 -14 227 -14 c 128,-1,10
 111 -14 111 -14 57 30 c 0,11,12
 17 63 17 63 17 129 c 0,13,14
 17 152 17 152 22 180 c 2,15,-1
 43 297 l 2,16,17
 78 495 78 495 321 495 c 0,0,1
348 277 m 2,18,19
 350 287 350 287 350 302.5 c 128,-1,20
 350 318 350 318 337 337 c 128,-1,21
 324 356 324 356 291.5 356 c 128,-1,22
 259 356 259 356 237 334.5 c 128,-1,23
 215 313 215 313 209 277 c 2,24,-1
 196 202 l 2,25,26
 194 192 194 192 194 176.5 c 128,-1,27
 194 161 194 161 207 143 c 128,-1,28
 220 125 220 125 252.5 125 c 128,-1,29
 285 125 285 125 307 147.5 c 128,-1,30
 329 170 329 170 335 202 c 2,31,-1
 348 277 l 2,18,19
EndSplineSet
EndChar

StartChar: p
Encoding: 112 112 83
Width: 576
GlyphClass: 2
Flags: W
LayerCount: 2
Fore
SplineSet
369 494 m 0,0,1
 471 494 471 494 510 440 c 1,2,3
 538 403 538 403 538 346 c 0,4,5
 538 323 538 323 533 297 c 2,6,-1
 513 180 l 2,7,8
 496 85 496 85 440 35.5 c 128,-1,9
 384 -14 384 -14 300 -14 c 128,-1,10
 216 -14 216 -14 183 31 c 1,11,-1
 129 -278 l 1,12,-1
 -41 -278 l 1,13,-1
 93 481 l 1,14,-1
 247 481 l 1,15,-1
 242 454 l 1,16,17
 289 494 289 494 369 494 c 0,0,1
265 130 m 0,18,19
 293 130 293 130 317 148 c 128,-1,20
 341 166 341 166 347 202 c 2,21,-1
 360 277 l 2,22,23
 362 287 362 287 362 302 c 128,-1,24
 362 317 362 317 349 334 c 128,-1,25
 336 351 336 351 304 351 c 0,26,27
 252 351 252 351 236 326 c 1,28,-1
 206 158 l 1,29,30
 220 130 220 130 265 130 c 0,18,19
EndSplineSet
EndChar

StartChar: q
Encoding: 113 113 84
Width: 555
GlyphClass: 2
Flags: W
LayerCount: 2
Fore
SplineSet
175 -14 m 0,0,1
 82 -14 82 -14 43 36 c 0,2,3
 16 71 16 71 16 127 c 0,4,5
 16 151 16 151 21 180 c 2,6,-1
 42 297 l 2,7,8
 58 387 58 387 115.5 440.5 c 128,-1,9
 173 494 173 494 265.5 494 c 128,-1,10
 358 494 358 494 391 451 c 1,11,-1
 396 481 l 1,12,-1
 547 481 l 1,13,-1
 413 -278 l 1,14,-1
 243 -278 l 1,15,-1
 298 31 l 1,16,17
 247 -14 247 -14 175 -14 c 0,0,1
195 202 m 2,18,19
 193 193 193 193 193 177 c 128,-1,20
 193 161 193 161 208 145.5 c 128,-1,21
 223 130 223 130 258.5 130 c 128,-1,22
 294 130 294 130 320 158 c 1,23,-1
 350 326 l 1,24,25
 339 351 339 351 298 351 c 0,26,27
 221 351 221 351 208 277 c 2,28,-1
 195 202 l 2,18,19
EndSplineSet
EndChar

StartChar: r
Encoding: 114 114 85
Width: 514
GlyphClass: 2
Flags: W
LayerCount: 2
Fore
SplineSet
507 379 m 0,0,1
 507 345 507 345 495.5 313 c 128,-1,2
 484 281 484 281 473 266 c 2,3,-1
 462 252 l 1,4,-1
 311 252 l 1,5,6
 336 275 336 275 336 309 c 0,7,8
 336 327 336 327 324.5 338.5 c 128,-1,9
 313 350 313 350 293 350 c 0,10,11
 259 350 259 350 234 316 c 1,12,-1
 178 0 l 1,13,-1
 8 0 l 1,14,-1
 93 481 l 1,15,-1
 251 481 l 1,16,-1
 239 414 l 1,17,18
 296 495 296 495 377 495 c 0,19,20
 442 495 442 495 474.5 464 c 128,-1,21
 507 433 507 433 507 379 c 0,0,1
EndSplineSet
EndChar

StartChar: s
Encoding: 115 115 86
Width: 549
GlyphClass: 2
Flags: W
LayerCount: 2
Fore
SplineSet
522 377 m 0,0,1
 522 344 522 344 502 316 c 1,2,-1
 338 316 l 1,3,4
 346 322 346 322 346 336 c 128,-1,5
 346 350 346 350 330 358.5 c 128,-1,6
 314 367 314 367 289 367 c 0,7,8
 214 367 214 367 214 321 c 0,9,10
 214 303 214 303 242 295 c 128,-1,11
 270 287 270 287 310 282 c 128,-1,12
 350 277 350 277 390 267.5 c 128,-1,13
 430 258 430 258 458 230 c 128,-1,14
 486 202 486 202 486 155 c 0,15,16
 486 72 486 72 419.5 29 c 128,-1,17
 353 -14 353 -14 226 -14 c 128,-1,18
 99 -14 99 -14 48 27 c 0,19,20
 8 59 8 59 8 115 c 0,21,22
 8 131 8 131 11 148 c 1,23,-1
 178 150 l 1,24,25
 176 136 176 136 194.5 125.5 c 128,-1,26
 213 115 213 115 249 115 c 128,-1,27
 285 115 285 115 301 122.5 c 128,-1,28
 317 130 317 130 317 151 c 0,29,30
 317 165 317 165 289 170.5 c 128,-1,31
 261 176 261 176 220.5 180 c 128,-1,32
 180 184 180 184 139.5 193 c 128,-1,33
 99 202 99 202 71 231 c 128,-1,34
 43 260 43 260 43 307 c 0,35,36
 43 398 43 398 113.5 447 c 128,-1,37
 184 496 184 496 317 496 c 0,38,39
 522 496 522 496 522 377 c 0,0,1
EndSplineSet
EndChar

StartChar: t
Encoding: 116 116 87
Width: 549
GlyphClass: 2
Flags: W
LayerCount: 2
Fore
SplineSet
236 -14 m 0,0,1
 120 -14 120 -14 69 38 c 0,2,3
 31 76 31 76 31 140 c 0,4,5
 31 161 31 161 35 185 c 2,6,-1
 103 572 l 1,7,-1
 286 648 l 1,8,-1
 257 481 l 1,9,-1
 533 481 l 1,10,-1
 508 340 l 1,11,-1
 232 340 l 1,12,-1
 212 227 l 2,13,14
 208 208 208 208 208 193 c 0,15,16
 208 130 208 130 268 130 c 0,17,18
 300 130 300 130 321.5 157 c 128,-1,19
 343 184 343 184 351 229 c 1,20,-1
 517 229 l 1,21,22
 475 -14 475 -14 236 -14 c 0,0,1
EndSplineSet
EndChar

StartChar: u
Encoding: 117 117 88
Width: 615
GlyphClass: 2
Flags: W
LayerCount: 2
Fore
SplineSet
504 154 m 0,0,1
 504 128 504 128 530.5 128 c 128,-1,2
 557 128 557 128 575 138 c 1,3,-1
 570 25 l 1,4,5
 522 -14 522 -14 462 -14 c 0,6,7
 349 -14 349 -14 339 73 c 1,8,9
 279 -14 279 -14 177.5 -14 c 128,-1,10
 76 -14 76 -14 46 32 c 0,11,12
 26 61 26 61 26 98 c 128,-1,13
 26 135 26 135 32 166 c 2,14,-1
 88 481 l 1,15,-1
 258 481 l 1,16,-1
 211 215 l 2,17,18
 208 197 208 197 208 179 c 0,19,20
 208 131 208 131 262 131 c 0,21,22
 307 131 307 131 334 162 c 1,23,-1
 391 481 l 1,24,-1
 561 481 l 1,25,-1
 505 166 l 2,26,27
 504 160 504 160 504 154 c 0,0,1
EndSplineSet
EndChar

StartChar: v
Encoding: 118 118 89
Width: 577
GlyphClass: 2
Flags: W
LayerCount: 2
Fore
SplineSet
529 481 m 1,0,1
 543 439 543 439 543 369.5 c 128,-1,2
 543 300 543 300 526 236 c 128,-1,3
 509 172 509 172 474.5 114.5 c 128,-1,4
 440 57 440 57 378.5 21.5 c 128,-1,5
 317 -14 317 -14 237 -14 c 0,6,7
 112 -14 112 -14 64 37 c 0,8,9
 32 71 32 71 32 141 c 0,10,11
 32 174 32 174 40 216 c 2,12,-1
 87 481 l 1,13,-1
 257 481 l 1,14,-1
 210 215 l 2,15,16
 207 200 207 200 207 188 c 0,17,18
 207 131 207 131 266 131 c 0,19,20
 370 131 370 131 370 349 c 0,21,22
 370 400 370 400 362 462 c 1,23,-1
 359 481 l 1,24,-1
 529 481 l 1,0,1
EndSplineSet
EndChar

StartChar: w
Encoding: 119 119 90
Width: 888
GlyphClass: 2
Flags: W
LayerCount: 2
Fore
SplineSet
839 481 m 1,0,1
 853 439 853 439 853 369.5 c 128,-1,2
 853 300 853 300 836 236 c 128,-1,3
 819 172 819 172 784.5 114.5 c 128,-1,4
 750 57 750 57 688.5 21.5 c 128,-1,5
 627 -14 627 -14 547 -14 c 0,6,7
 427 -14 427 -14 387 53 c 1,8,9
 315 -14 315 -14 226 -14 c 0,10,11
 106 -14 106 -14 61 37 c 0,12,13
 31 71 31 71 31 138 c 0,14,15
 31 173 31 173 39 216 c 2,16,-1
 86 481 l 1,17,-1
 256 481 l 1,18,-1
 209 215 l 2,19,20
 206 200 206 200 206 188 c 0,21,22
 206 131 206 131 265 131 c 0,23,24
 306 131 306 131 327 166.5 c 128,-1,25
 348 202 348 202 363 291 c 2,26,-1
 397 481 l 1,27,-1
 567 481 l 1,28,-1
 520 215 l 2,29,30
 517 200 517 200 517 188 c 0,31,32
 517 131 517 131 576 131 c 0,33,34
 680 131 680 131 680 349 c 0,35,36
 680 400 680 400 672 462 c 1,37,-1
 669 481 l 1,38,-1
 839 481 l 1,0,1
EndSplineSet
EndChar

StartChar: x
Encoding: 120 120 91
Width: 584
GlyphClass: 2
Flags: W
LayerCount: 2
Fore
SplineSet
522 0 m 1,0,-1
 336 0 l 1,1,-1
 265 139 l 1,2,-1
 145 0 l 1,3,-1
 -41 0 l 1,4,-1
 175 246 l 1,5,-1
 45 488 l 1,6,-1
 234 488 l 1,7,-1
 302 351 l 1,8,-1
 419 488 l 1,9,-1
 608 488 l 1,10,-1
 391 245 l 1,11,-1
 522 0 l 1,0,-1
EndSplineSet
EndChar

StartChar: y
Encoding: 121 121 92
Width: 570
GlyphClass: 2
Flags: W
LayerCount: 2
Fore
SplineSet
213 215 m 2,0,1
 210 197 210 197 210 179 c 0,2,3
 210 131 210 131 264 131 c 0,4,5
 308 131 308 131 337 162 c 1,6,-1
 393 481 l 1,7,-1
 563 481 l 1,8,-1
 475 -16 l 2,9,10
 453 -143 453 -143 374.5 -217 c 128,-1,11
 296 -291 296 -291 195 -291 c 128,-1,12
 94 -291 94 -291 49.5 -254 c 128,-1,13
 5 -217 5 -217 5 -157 c 0,14,15
 5 -72 5 -72 110 -6 c 1,16,17
 53 8 53 8 38 51 c 0,18,19
 29 75 29 75 29 105 c 128,-1,20
 29 135 29 135 34 166 c 2,21,-1
 90 481 l 1,22,-1
 260 481 l 1,23,-1
 213 215 l 2,0,1
218 -148 m 0,24,25
 283 -148 283 -148 303 -30 c 2,26,-1
 313 28 l 1,27,28
 174 -37 174 -37 174 -103 c 0,29,30
 174 -123 174 -123 185.5 -135.5 c 128,-1,31
 197 -148 197 -148 218 -148 c 0,24,25
EndSplineSet
EndChar

StartChar: z
Encoding: 122 122 93
Width: 541
GlyphClass: 2
Flags: W
LayerCount: 2
Fore
SplineSet
443 0 m 1,0,-1
 -6 0 l 1,1,-1
 19 140 l 1,2,-1
 301 341 l 1,3,-1
 54 341 l 1,4,-1
 79 481 l 1,5,-1
 528 481 l 1,6,-1
 503 341 l 1,7,-1
 230 140 l 1,8,-1
 468 140 l 1,9,-1
 443 0 l 1,0,-1
EndSplineSet
EndChar

StartChar: braceleft
Encoding: 123 123 94
Width: 387
GlyphClass: 2
Flags: W
LayerCount: 2
Fore
SplineSet
81 -232 m 0,0,1
 26 -192 26 -192 26 -107 c 0,2,3
 26 -79 26 -79 32 -48 c 2,4,-1
 59 106 l 2,5,6
 61 115 61 115 61 129.5 c 128,-1,7
 61 144 61 144 46.5 158.5 c 128,-1,8
 32 173 32 173 7 173 c 2,9,-1
 -3 173 l 1,10,-1
 21 309 l 1,11,-1
 31 309 l 2,12,13
 57 309 57 309 79 326 c 128,-1,14
 101 343 101 343 107 376 c 2,15,-1
 134 528 l 2,16,17
 158 660 158 660 248 712 c 1,18,19
 330 758 330 758 434 758 c 1,20,-1
 407 605 l 1,21,22
 306 605 306 605 286 493 c 2,23,-1
 258 336 l 2,24,25
 245 259 245 259 194 242 c 1,26,27
 200 240 200 240 208 230 c 0,28,29
 226 208 226 208 226 170 c 0,30,31
 226 158 226 158 224 146 c 2,32,-1
 196 -13 l 2,33,34
 193 -31 193 -31 193 -47 c 0,35,36
 193 -125 193 -125 278 -125 c 1,37,-1
 251 -278 l 1,38,39
 146 -278 146 -278 81 -232 c 0,0,1
EndSplineSet
EndChar

StartChar: bar
Encoding: 124 124 95
Width: 280
GlyphClass: 2
Flags: W
LayerCount: 2
Fore
SplineSet
114 -278 m 1,0,-1
 -36 -278 l 1,1,-1
 147 759 l 1,2,-1
 297 759 l 1,3,-1
 114 -278 l 1,0,-1
EndSplineSet
EndChar

StartChar: braceright
Encoding: 125 125 96
Width: 387
GlyphClass: 2
Flags: W
LayerCount: 2
Fore
SplineSet
140 305 m 0,0,1
 140 319 140 319 143 336 c 2,2,-1
 171 493 l 2,3,4
 174 511 174 511 174 527 c 0,5,6
 174 605 174 605 89 605 c 1,7,-1
 116 758 l 1,8,9
 221 758 221 758 286 712 c 0,10,11
 341 672 341 672 341 585 c 0,12,13
 341 559 341 559 335 528 c 2,14,-1
 308 376 l 2,15,16
 306 367 306 367 306 352.5 c 128,-1,17
 306 338 306 338 320.5 323.5 c 128,-1,18
 335 309 335 309 361 309 c 2,19,-1
 371 309 l 1,20,-1
 347 173 l 1,21,-1
 337 173 l 2,22,23
 311 173 311 173 289 156 c 128,-1,24
 267 139 267 139 261 106 c 2,25,-1
 234 -48 l 2,26,27
 222 -113 222 -113 192 -160 c 128,-1,28
 162 -207 162 -207 120 -232 c 0,29,30
 39 -278 39 -278 -67 -278 c 1,31,-1
 -40 -125 l 1,32,33
 62 -125 62 -125 82 -13 c 2,34,-1
 110 146 l 2,35,36
 115 174 115 174 129.5 197.5 c 128,-1,37
 144 221 144 221 156 231 c 128,-1,38
 168 241 168 241 173 242 c 1,39,40
 140 257 140 257 140 305 c 0,0,1
EndSplineSet
EndChar

StartChar: asciitilde
Encoding: 126 126 97
Width: 527
GlyphClass: 2
Flags: W
LayerCount: 2
Fore
SplineSet
340.5 210 m 128,-1,1
 308 210 308 210 254.5 231.5 c 128,-1,2
 201 253 201 253 166 253 c 0,3,4
 107 253 107 253 56 234 c 1,5,-1
 39 227 l 1,6,-1
 59 338 l 1,7,8
 63 344 63 344 71.5 353 c 128,-1,9
 80 362 80 362 112.5 377 c 128,-1,10
 145 392 145 392 186 392 c 128,-1,11
 227 392 227 392 287.5 369 c 128,-1,12
 348 346 348 346 383.5 346 c 128,-1,13
 419 346 419 346 444.5 353.5 c 128,-1,14
 470 361 470 361 480 368 c 1,15,-1
 489 376 l 1,16,-1
 469 256 l 1,17,18
 447 238 447 238 410 224 c 128,-1,0
 373 210 373 210 340.5 210 c 128,-1,1
EndSplineSet
EndChar

StartChar: exclamdown
Encoding: 161 161 98
Width: 282
GlyphClass: 2
Flags: W
LayerCount: 2
Fore
SplineSet
62 219 m 1,0,-1
 195 219 l 1,1,-1
 123 -310 l 1,2,-1
 -47 -310 l 1,3,-1
 62 219 l 1,0,-1
256 423 m 0,4,5
 256 359 256 359 228 329.5 c 128,-1,6
 200 300 200 300 139 300 c 0,7,8
 55 300 55 300 55 374 c 0,9,10
 55 437 55 437 83.5 466 c 128,-1,11
 112 495 112 495 173 495 c 0,12,13
 256 495 256 495 256 423 c 0,4,5
EndSplineSet
EndChar

StartChar: cent
Encoding: 162 162 99
Width: 538
GlyphClass: 2
Flags: W
LayerCount: 2
Fore
SplineSet
368 492 m 1,0,1
 517 473 517 473 517 354 c 0,2,3
 517 337 517 337 514 317 c 1,4,-1
 341 295 l 1,5,6
 342 301 342 301 342 307 c 0,7,8
 342 333 342 333 320 345 c 1,9,-1
 284 138 l 1,10,11
 310 152 310 152 313 175 c 1,12,-1
 479 173 l 1,13,14
 451 11 451 11 280 -10 c 1,15,-1
 264 -100 l 1,16,-1
 134 -100 l 1,17,-1
 150 -9 l 1,18,19
 10 11 10 11 10 130 c 0,20,21
 10 150 10 150 14 173 c 2,22,-1
 36 297 l 2,23,24
 65 459 65 459 238 489 c 1,25,-1
 259 610 l 1,26,-1
 389 610 l 1,27,-1
 368 492 l 1,0,1
187 184 m 0,28,29
 187 157 187 157 205 142 c 1,30,-1
 239 338 l 1,31,32
 209 318 209 318 202 275 c 2,33,-1
 189 202 l 2,34,35
 187 192 187 192 187 184 c 0,28,29
EndSplineSet
EndChar

StartChar: sterling
Encoding: 163 163 100
Width: 602
GlyphClass: 2
Flags: W
LayerCount: 2
Fore
SplineSet
611 595 m 0,0,1
 611 580 611 580 608 563 c 1,2,-1
 434 536 l 1,3,4
 435 542 435 542 435 551.5 c 128,-1,5
 435 561 435 561 424.5 572 c 128,-1,6
 414 583 414 583 390.5 583 c 128,-1,7
 367 583 367 583 347 568.5 c 128,-1,8
 327 554 327 554 322 526 c 2,9,-1
 314 481 l 1,10,-1
 530 481 l 1,11,-1
 502 325 l 1,12,-1
 286 325 l 1,13,-1
 257 156 l 1,14,-1
 534 156 l 1,15,-1
 506 0 l 1,16,-1
 -3 0 l 1,17,-1
 25 156 l 1,18,-1
 77 156 l 1,19,-1
 106 325 l 1,20,-1
 54 325 l 1,21,-1
 82 481 l 1,22,-1
 134 481 l 1,23,-1
 142 528 l 2,24,25
 159 624 159 624 225.5 675 c 128,-1,26
 292 726 292 726 405 726.5 c 128,-1,27
 518 727 518 727 570 685 c 0,28,29
 611 652 611 652 611 595 c 0,0,1
EndSplineSet
EndChar

StartChar: currency
Encoding: 164 164 101
Width: 543
GlyphClass: 2
Flags: W
LayerCount: 2
Fore
SplineSet
352 142 m 1,0,1
 298 112 298 112 239.5 112 c 128,-1,2
 181 112 181 112 138 144 c 1,3,-1
 60 78 l 1,4,-1
 11 138 l 1,5,-1
 89 204 l 1,6,7
 73 238 73 238 73 282 c 0,8,9
 73 350 73 350 124 416 c 1,10,-1
 70 481 l 1,11,-1
 145 544 l 1,12,-1
 197 479 l 1,13,14
 252 512 252 512 311 512 c 128,-1,15
 370 512 370 512 413 480 c 1,16,-1
 487 543 l 1,17,-1
 537 483 l 1,18,-1
 464 420 l 1,19,20
 480 385 480 385 480 340 c 0,21,22
 480 270 480 270 423 201 c 1,23,-1
 476 138 l 1,24,-1
 405 78 l 1,25,-1
 352 142 l 1,0,1
348 239.5 m 128,-1,27
 388 277 388 277 388 322 c 128,-1,28
 388 367 388 367 362 394.5 c 128,-1,29
 336 422 336 422 290.5 422 c 128,-1,30
 245 422 245 422 205 384 c 128,-1,31
 165 346 165 346 165 301 c 128,-1,32
 165 256 165 256 191 229 c 128,-1,33
 217 202 217 202 262.5 202 c 128,-1,26
 308 202 308 202 348 239.5 c 128,-1,27
EndSplineSet
EndChar

StartChar: yen
Encoding: 165 165 102
Width: 686
GlyphClass: 2
Flags: W
LayerCount: 2
Fore
SplineSet
500 95 m 1,0,-1
 398 95 l 1,1,-1
 381 0 l 1,2,-1
 200 0 l 1,3,-1
 217 95 l 1,4,-1
 94 95 l 1,5,-1
 114 213 l 1,6,-1
 237 213 l 1,7,-1
 248 273 l 1,8,-1
 80 273 l 1,9,-1
 101 391 l 1,10,-1
 210 391 l 1,11,-1
 97 720 l 1,12,-1
 288 720 l 1,13,-1
 366 467 l 1,14,-1
 389 467 l 1,15,-1
 558 720 l 1,16,-1
 738 720 l 1,17,-1
 509 391 l 1,18,-1
 602 391 l 1,19,-1
 581 273 l 1,20,-1
 429 273 l 1,21,-1
 418 213 l 1,22,-1
 520 213 l 1,23,-1
 500 95 l 1,0,-1
EndSplineSet
EndChar

StartChar: brokenbar
Encoding: 166 166 103
Width: 282
GlyphClass: 2
Flags: W
LayerCount: 2
Fore
SplineSet
222 328 m 1,0,-1
 72 328 l 1,1,-1
 148 759 l 1,2,-1
 298 759 l 1,3,-1
 222 328 l 1,0,-1
47 187 m 1,4,-1
 197 187 l 1,5,-1
 115 -278 l 1,6,-1
 -35 -278 l 1,7,-1
 47 187 l 1,4,-1
EndSplineSet
EndChar

StartChar: section
Encoding: 167 167 104
Width: 659
GlyphClass: 2
Flags: W
LayerCount: 2
Fore
SplineSet
165 -76 m 0,0,1
 165 -145 165 -145 264.5 -145 c 128,-1,2
 364 -145 364 -145 364 -83 c 0,3,4
 364 -50 364 -50 330 -29 c 128,-1,5
 296 -8 296 -8 247.5 6 c 128,-1,6
 199 20 199 20 150.5 38.5 c 128,-1,7
 102 57 102 57 68 96.5 c 128,-1,8
 34 136 34 136 34 195 c 0,9,10
 34 306 34 306 115 376 c 1,11,12
 83 414 83 414 83 476 c 0,13,14
 83 595 83 595 162 661 c 128,-1,15
 241 727 241 727 407 727 c 0,16,17
 525 727 525 727 585.5 682.5 c 128,-1,18
 646 638 646 638 646 559 c 0,19,20
 646 530 646 530 638 503.5 c 128,-1,21
 630 477 630 477 622 466 c 2,22,-1
 614 454 l 1,23,-1
 437 454 l 1,24,25
 459 477 459 477 459 512 c 0,26,27
 459 577 459 577 374 577 c 0,28,29
 268 577 268 577 268 509 c 0,30,31
 268 475 268 475 302 455 c 128,-1,32
 336 435 336 435 384.5 423.5 c 128,-1,33
 433 412 433 412 482 395 c 128,-1,34
 531 378 531 378 565 338.5 c 128,-1,35
 599 299 599 299 599 236 c 0,36,37
 599 123 599 123 521 54 c 1,38,39
 549 16 549 16 549 -45 c 0,40,41
 549 -172 549 -172 473 -233.5 c 128,-1,42
 397 -295 397 -295 239 -295 c 128,-1,43
 81 -295 81 -295 22 -238 c 0,44,45
 -20 -197 -20 -197 -20 -123 c 0,46,47
 -20 -95 -20 -95 -14 -62 c 2,48,-1
 -11 -46 l 1,49,-1
 169 -46 l 1,50,-1
 167 -58 l 2,51,52
 165 -68 165 -68 165 -76 c 0,0,1
414 198 m 0,53,54
 414 241 414 241 356 265 c 0,55,56
 325 278 325 278 280 291 c 1,57,58
 218 278 218 278 218 228 c 0,59,60
 218 189 218 189 259 170 c 0,61,62
 290 155 290 155 351 139 c 1,63,64
 414 150 414 150 414 198 c 0,53,54
EndSplineSet
EndChar

StartChar: dieresis
Encoding: 168 168 105
Width: 538
GlyphClass: 2
Flags: W
LayerCount: 2
Fore
SplineSet
161 622 m 0,0,1
 161 673 161 673 184 696.5 c 128,-1,2
 207 720 207 720 255 720 c 0,3,4
 322 720 322 720 322 662 c 0,5,6
 322 611 322 611 299 587.5 c 128,-1,7
 276 564 276 564 227 564 c 0,8,9
 161 564 161 564 161 622 c 0,0,1
443 622 m 0,10,11
 443 673 443 673 466 696.5 c 128,-1,12
 489 720 489 720 537 720 c 0,13,14
 604 720 604 720 604 662 c 0,15,16
 604 611 604 611 581 587.5 c 128,-1,17
 558 564 558 564 509 564 c 0,18,19
 443 564 443 564 443 622 c 0,10,11
EndSplineSet
EndChar

StartChar: copyright
Encoding: 169 169 106
Width: 709
GlyphClass: 2
Flags: W
LayerCount: 2
Fore
SplineSet
193.5 664 m 128,-1,1
 280 729 280 729 432 729 c 128,-1,2
 584 729 584 729 647 664 c 0,3,4
 696 613 696 613 696 541 c 0,5,6
 696 520 696 520 692 498 c 2,7,-1
 656 293 l 2,8,9
 635 174 635 174 551 115 c 128,-1,10
 467 56 467 56 311 56 c 128,-1,11
 155 56 155 56 94 116 c 0,12,13
 48 160 48 160 48 237 c 0,14,15
 48 263 48 263 53 293 c 2,16,-1
 89 498 l 2,17,0
 107 599 107 599 193.5 664 c 128,-1,1
161 278 m 2,18,19
 159 266 159 266 159 249.5 c 128,-1,20
 159 233 159 233 172 210.5 c 128,-1,21
 185 188 185 188 216 176 c 0,22,23
 271 154 271 154 316 154 c 128,-1,24
 361 154 361 154 391 159 c 128,-1,25
 421 164 421 164 455 176 c 128,-1,26
 489 188 489 188 513.5 214.5 c 128,-1,27
 538 241 538 241 545 278 c 2,28,-1
 583 494 l 2,29,30
 585 508 585 508 585 523.5 c 128,-1,31
 585 539 585 539 578 559.5 c 128,-1,32
 571 580 571 580 555.5 593 c 128,-1,33
 540 606 540 606 513 613 c 0,34,35
 474 623 474 623 447 623 c 128,-1,36
 420 623 420 623 406 623 c 128,-1,37
 392 623 392 623 377.5 622.5 c 128,-1,38
 363 622 363 622 336.5 619 c 128,-1,39
 310 616 310 616 291 607.5 c 128,-1,40
 272 599 272 599 252 586 c 0,41,42
 212 559 212 559 199 494 c 1,43,-1
 161 278 l 2,18,19
343 225 m 0,45,46
 278 225 278 225 252 254 c 0,47,48
 235 274 235 274 235 300 c 128,-1,49
 235 326 235 326 238 344 c 2,50,-1
 257 451 l 2,51,52
 277 568 277 568 410 568 c 0,53,54
 463 568 463 568 489.5 545 c 128,-1,55
 516 522 516 522 516 482 c 0,56,57
 516 449 516 449 502 418 c 1,58,-1
 497 409 l 1,59,-1
 404 409 l 1,60,61
 419 428 419 428 419 457 c 128,-1,62
 419 486 419 486 394 486 c 0,63,64
 357 486 357 486 350 445 c 2,65,-1
 333 351 l 2,66,67
 332 343 332 343 332 337 c 0,68,69
 332 307 332 307 359 307 c 0,70,71
 393 307 393 307 400 347 c 1,72,-1
 493 347 l 1,73,-1
 490 332 l 1,74,44
 470 225 470 225 343 225 c 0,45,46
EndSplineSet
EndChar

StartChar: ordfeminine
Encoding: 170 170 107
Width: 373
GlyphClass: 2
Flags: W
LayerCount: 2
Fore
SplineSet
342 564 m 0,0,1
 342 549 342 549 356 549 c 1,2,-1
 377 554 l 1,3,-1
 373 492 l 1,4,5
 346 473 346 473 310 473 c 0,6,7
 256 473 256 473 248 513 c 1,8,9
 225 473 225 473 173 473 c 0,10,11
 89 473 89 473 89 544 c 0,12,13
 89 556 89 556 91 570 c 2,14,-1
 101 628 l 2,15,16
 109 673 109 673 139 700 c 128,-1,17
 169 727 169 727 215.5 727 c 128,-1,18
 262 727 262 727 281 705 c 1,19,-1
 284 720 l 1,20,-1
 369 720 l 1,21,-1
 343 573 l 2,22,23
 342 568 342 568 342 564 c 0,0,1
188 576 m 0,24,25
 188 550 188 550 216 550 c 0,26,27
 233 550 233 550 246 563 c 1,28,-1
 259 638 l 1,29,30
 252 650 252 650 229 650 c 0,31,32
 200 650 200 650 194 613 c 2,33,-1
 189 586 l 2,34,35
 188 581 188 581 188 576 c 0,24,25
EndSplineSet
EndChar

StartChar: guillemotleft
Encoding: 171 171 108
Width: 516
GlyphClass: 2
Flags: W
LayerCount: 2
Fore
SplineSet
148 84 m 1,0,-1
 31 227 l 1,1,-1
 44 302 l 1,2,-1
 211 445 l 1,3,-1
 261 367 l 1,4,-1
 141 264 l 1,5,-1
 225 162 l 1,6,-1
 148 84 l 1,0,-1
379 84 m 1,7,-1
 262 227 l 1,8,-1
 275 302 l 1,9,-1
 442 445 l 1,10,-1
 492 367 l 1,11,-1
 372 264 l 1,12,-1
 456 162 l 1,13,-1
 379 84 l 1,7,-1
EndSplineSet
EndChar

StartChar: logicalnot
Encoding: 172 172 109
Width: 600
GlyphClass: 2
Flags: W
LayerCount: 2
Fore
SplineSet
375 45 m 1,0,-1
 404 209 l 1,1,-1
 31 209 l 1,2,-1
 53 335 l 1,3,-1
 547 335 l 1,4,-1
 496 45 l 1,5,-1
 375 45 l 1,0,-1
EndSplineSet
EndChar

StartChar: registered
Encoding: 174 174 110
Width: 709
GlyphClass: 2
Flags: W
LayerCount: 2
Fore
SplineSet
193.5 664 m 128,-1,1
 280 729 280 729 432 729 c 128,-1,2
 584 729 584 729 647 664 c 0,3,4
 696 613 696 613 696 541 c 0,5,6
 696 520 696 520 692 498 c 2,7,-1
 656 293 l 2,8,9
 635 174 635 174 551 115 c 128,-1,10
 467 56 467 56 311 56 c 128,-1,11
 155 56 155 56 94 116 c 0,12,13
 48 160 48 160 48 237 c 0,14,15
 48 263 48 263 53 293 c 2,16,-1
 89 498 l 2,17,0
 107 599 107 599 193.5 664 c 128,-1,1
161 278 m 2,18,19
 159 266 159 266 159 249.5 c 128,-1,20
 159 233 159 233 172 210.5 c 128,-1,21
 185 188 185 188 216 176 c 0,22,23
 271 154 271 154 316 154 c 128,-1,24
 361 154 361 154 391 159 c 128,-1,25
 421 164 421 164 455 176 c 128,-1,26
 489 188 489 188 513.5 214.5 c 128,-1,27
 538 241 538 241 545 278 c 2,28,-1
 583 494 l 2,29,30
 585 508 585 508 585 523.5 c 128,-1,31
 585 539 585 539 578 559.5 c 128,-1,32
 571 580 571 580 555.5 593 c 128,-1,33
 540 606 540 606 513 613 c 0,34,35
 474 623 474 623 447 623 c 128,-1,36
 420 623 420 623 406 623 c 128,-1,37
 392 623 392 623 377.5 622.5 c 128,-1,38
 363 622 363 622 336.5 619 c 128,-1,39
 310 616 310 616 291 607.5 c 128,-1,40
 272 599 272 599 252 586 c 0,41,42
 212 559 212 559 199 494 c 1,43,-1
 161 278 l 2,18,19
412 561 m 2,44,45
 467 561 467 561 489 540.5 c 128,-1,46
 511 520 511 520 511 493 c 0,47,48
 511 485 511 485 509 476 c 2,49,-1
 503 441 l 2,50,51
 494 386 494 386 456 363 c 1,52,-1
 496 235 l 1,53,-1
 395 235 l 1,54,-1
 360 347 l 1,55,-1
 328 347 l 1,56,-1
 311 235 l 1,57,-1
 214 235 l 1,58,-1
 271 561 l 1,59,-1
 412 561 l 2,44,45
383 480 m 2,60,-1
 349 480 l 1,61,-1
 337 412 l 1,62,-1
 370 412 l 2,63,64
 414 412 414 412 414 455 c 0,65,66
 414 480 414 480 383 480 c 2,60,-1
EndSplineSet
EndChar

StartChar: degree
Encoding: 176 176 111
Width: 344
GlyphClass: 2
Flags: W
LayerCount: 2
Fore
SplineSet
329 690.5 m 128,-1,1
 362 656 362 656 362 599.5 c 128,-1,2
 362 543 362 543 311.5 496.5 c 128,-1,3
 261 450 261 450 204.5 450 c 128,-1,4
 148 450 148 450 115.5 483.5 c 128,-1,5
 83 517 83 517 83 573.5 c 128,-1,6
 83 630 83 630 133 677.5 c 128,-1,7
 183 725 183 725 239.5 725 c 128,-1,0
 296 725 296 725 329 690.5 c 128,-1,1
255 555 m 128,-1,9
 273 572 273 572 273 592 c 128,-1,10
 273 612 273 612 261 624.5 c 128,-1,11
 249 637 249 637 228.5 637 c 128,-1,12
 208 637 208 637 190 620 c 128,-1,13
 172 603 172 603 172 582.5 c 128,-1,14
 172 562 172 562 184 550 c 128,-1,15
 196 538 196 538 216.5 538 c 128,-1,8
 237 538 237 538 255 555 c 128,-1,9
EndSplineSet
EndChar

StartChar: plusminus
Encoding: 177 177 112
Width: 483
GlyphClass: 2
Flags: W
LayerCount: 2
Fore
SplineSet
172 235 m 1,0,-1
 195 364 l 1,1,-1
 69 364 l 1,2,-1
 90 482 l 1,3,-1
 216 482 l 1,4,-1
 237 606 l 1,5,-1
 355 606 l 1,6,-1
 334 482 l 1,7,-1
 461 482 l 1,8,-1
 440 364 l 1,9,-1
 313 364 l 1,10,-1
 290 235 l 1,11,-1
 172 235 l 1,0,-1
384 48 m 1,12,-1
 13 48 l 1,13,-1
 34 166 l 1,14,-1
 405 166 l 1,15,-1
 384 48 l 1,12,-1
EndSplineSet
EndChar

StartChar: twosuperior
Encoding: 178 178 113
Width: 378
GlyphClass: 2
Flags: W
LayerCount: 2
Fore
SplineSet
287 611 m 128,-1,1
 287 640 287 640 250 640 c 0,2,3
 225 640 225 640 211.5 625 c 128,-1,4
 198 610 198 610 198 584 c 1,5,-1
 201 563 l 1,6,-1
 103 563 l 1,7,8
 100 575 100 575 100 594 c 0,9,10
 100 655 100 655 142 691 c 128,-1,11
 184 727 184 727 262 727 c 0,12,13
 389 727 389 727 389 628 c 0,14,15
 389 587 389 587 362.5 553 c 128,-1,16
 336 519 336 519 304.5 502 c 128,-1,17
 273 485 273 485 245 471 c 128,-1,18
 217 457 217 457 216 452 c 1,19,-1
 350 452 l 1,20,-1
 334 364 l 1,21,-1
 67 364 l 1,22,-1
 74 401 l 2,23,24
 82 446 82 446 117.5 477.5 c 128,-1,25
 153 509 153 509 190 523 c 128,-1,26
 227 537 227 537 257 559.5 c 128,-1,0
 287 582 287 582 287 611 c 128,-1,1
EndSplineSet
EndChar

StartChar: threesuperior
Encoding: 179 179 114
Width: 371
GlyphClass: 2
Flags: W
LayerCount: 2
Fore
SplineSet
173 477 m 1,0,1
 167 444 167 444 212 444 c 0,2,3
 232 444 232 444 245 455 c 128,-1,4
 258 466 258 466 258 483 c 0,5,6
 258 508 258 508 225 508 c 2,7,-1
 174 508 l 1,8,-1
 184 562 l 1,9,-1
 224 562 l 1,10,11
 248 563 248 563 264 577 c 128,-1,12
 280 591 280 591 280 608 c 0,13,14
 280 640 280 640 239 640 c 128,-1,15
 198 640 198 640 198 601 c 1,16,-1
 201 585 l 1,17,-1
 102 585 l 1,18,19
 100 594 100 594 100 608 c 0,20,21
 100 663 100 663 141 695 c 128,-1,22
 182 727 182 727 250.5 727 c 128,-1,23
 319 727 319 727 351 702 c 128,-1,24
 383 677 383 677 383 637.5 c 128,-1,25
 383 598 383 598 359 566.5 c 128,-1,26
 335 535 335 535 305 535 c 1,27,-1
 305 534 l 1,28,29
 329 534 329 534 342.5 517.5 c 128,-1,30
 356 501 356 501 356 474 c 0,31,32
 356 356 356 356 194 356 c 0,33,34
 126 356 126 356 98 382 c 128,-1,35
 70 408 70 408 70 448 c 0,36,37
 70 461 70 461 73 477 c 1,38,-1
 173 477 l 1,0,1
EndSplineSet
EndChar

StartChar: acute
Encoding: 180 180 115
Width: 402
GlyphClass: 2
Flags: W
LayerCount: 2
Fore
SplineSet
298 568 m 1,0,-1
 150 568 l 1,1,-1
 314 807 l 1,2,-1
 494 807 l 1,3,-1
 298 568 l 1,0,-1
EndSplineSet
EndChar

StartChar: mu
Encoding: 181 181 116
AltUni2: 0003bc.ffffffff.0
Width: 594
GlyphClass: 2
Flags: W
LayerCount: 2
Fore
SplineSet
183 -14 m 2,0,-1
 176 -14 l 1,1,-1
 129 -278 l 1,2,-1
 -41 -278 l 1,3,-1
 93 481 l 1,4,-1
 263 481 l 1,5,-1
 216 215 l 2,6,7
 213 197 213 197 213 179 c 0,8,9
 213 131 213 131 267 131 c 0,10,11
 311 131 311 131 340 162 c 1,12,-1
 396 481 l 1,13,-1
 566 481 l 1,14,-1
 482 0 l 1,15,-1
 333 0 l 1,16,-1
 346 75 l 1,17,18
 286 -14 286 -14 183 -14 c 2,0,-1
EndSplineSet
EndChar

StartChar: paragraph
Encoding: 182 182 117
Width: 750
GlyphClass: 2
Flags: W
LayerCount: 2
Fore
SplineSet
252 219 m 2,0,1
 147 219 147 219 92 272 c 1,2,3
 49 315 49 315 49 375 c 0,4,5
 49 391 49 391 52 409 c 2,6,-1
 72 522 l 2,7,8
 88 614 88 614 154 667 c 128,-1,9
 220 720 220 720 334 720 c 2,10,-1
 573 720 l 1,11,-1
 446 0 l 1,12,-1
 332 0 l 1,13,-1
 371 219 l 1,14,-1
 252 219 l 2,0,1
518 0 m 1,15,-1
 646 727 l 1,16,-1
 756 727 l 1,17,-1
 628 0 l 1,18,-1
 518 0 l 1,15,-1
EndSplineSet
EndChar

StartChar: periodcentered
Encoding: 183 183 118
Width: 286
GlyphClass: 2
Flags: W
LayerCount: 2
Fore
SplineSet
49 310 m 0,0,1
 49 374 49 374 77.5 403.5 c 128,-1,2
 106 433 106 433 166 433 c 0,3,4
 250 433 250 433 250 359 c 0,5,6
 250 296 250 296 221.5 267 c 128,-1,7
 193 238 193 238 132 238 c 0,8,9
 49 238 49 238 49 310 c 0,0,1
EndSplineSet
EndChar

StartChar: cedilla
Encoding: 184 184 119
Width: 317
GlyphClass: 2
Flags: W
LayerCount: 2
Fore
SplineSet
251 -85 m 0,0,1
 251 -139 251 -139 212.5 -166.5 c 128,-1,2
 174 -194 174 -194 133 -194 c 128,-1,3
 92 -194 92 -194 67.5 -182 c 128,-1,4
 43 -170 43 -170 34 -158 c 1,5,-1
 24 -147 l 1,6,-1
 81 -88 l 1,7,8
 84 -100 84 -100 97.5 -111 c 128,-1,9
 111 -122 111 -122 127 -122 c 0,10,11
 174 -122 174 -122 174 -90 c 0,12,13
 174 -61 174 -61 117 -61 c 1,14,-1
 158 8 l 1,15,-1
 215 8 l 1,16,-1
 194 -24 l 1,17,18
 220 -24 220 -24 235.5 -39.5 c 128,-1,19
 251 -55 251 -55 251 -85 c 0,0,1
EndSplineSet
EndChar

StartChar: onesuperior
Encoding: 185 185 120
Width: 308
GlyphClass: 2
Flags: W
LayerCount: 2
Fore
SplineSet
260 360 m 1,0,-1
 155 360 l 1,1,-1
 194 585 l 1,2,3
 182 565 182 565 150.5 547 c 128,-1,4
 119 529 119 529 84 529 c 1,5,-1
 79 628 l 1,6,7
 126 628 126 628 167 656.5 c 128,-1,8
 208 685 208 685 218 720 c 1,9,-1
 323 720 l 1,10,-1
 260 360 l 1,0,-1
EndSplineSet
EndChar

StartChar: ordmasculine
Encoding: 186 186 121
Width: 333
GlyphClass: 2
Flags: W
LayerCount: 2
Fore
SplineSet
242 727 m 1,0,1
 351 727 351 727 351 651 c 0,2,3
 351 640 351 640 349 628 c 2,4,-1
 339 569 l 2,5,6
 322 472 322 472 197 472 c 0,7,8
 88 472 88 472 88 545 c 0,9,10
 88 556 88 556 90 569 c 2,11,-1
 100 628 l 2,12,13
 117 725 117 725 242 727 c 1,0,1
186 571 m 0,14,15
 186 547 186 547 211 547 c 0,16,17
 225 547 225 547 234.5 556.5 c 128,-1,18
 244 566 244 566 246 580 c 2,19,-1
 253 618 l 2,20,21
 254 623 254 623 254 627 c 0,22,23
 254 652 254 652 229 652 c 0,24,25
 200 652 200 652 194 618 c 2,26,-1
 187 580 l 2,27,28
 186 575 186 575 186 571 c 0,14,15
EndSplineSet
EndChar

StartChar: guillemotright
Encoding: 187 187 122
Width: 516
GlyphClass: 2
Flags: W
LayerCount: 2
Fore
SplineSet
460 227 m 1,0,-1
 293 84 l 1,1,-1
 244 162 l 1,2,-1
 364 264 l 1,3,-1
 280 367 l 1,4,-1
 357 445 l 1,5,-1
 474 302 l 1,6,-1
 460 227 l 1,0,-1
229 227 m 1,7,-1
 62 84 l 1,8,-1
 13 162 l 1,9,-1
 133 264 l 1,10,-1
 49 367 l 1,11,-1
 126 445 l 1,12,-1
 243 302 l 1,13,-1
 229 227 l 1,7,-1
EndSplineSet
EndChar

StartChar: onequarter
Encoding: 188 188 123
Width: 789
GlyphClass: 2
Flags: W
LayerCount: 2
Fore
SplineSet
76 0 m 1,0,-1
 596 727 l 1,1,-1
 736 727 l 1,2,-1
 216 0 l 1,3,-1
 76 0 l 1,0,-1
262 360 m 1,4,-1
 157 360 l 1,5,-1
 197 585 l 1,6,7
 185 565 185 565 153 547 c 128,-1,8
 121 529 121 529 86 529 c 1,9,-1
 82 628 l 1,10,11
 129 628 129 628 170 656.5 c 128,-1,12
 211 685 211 685 221 720 c 1,13,-1
 326 720 l 1,14,-1
 262 360 l 1,4,-1
660 0 m 1,15,-1
 556 0 l 1,16,-1
 567 63 l 1,17,-1
 415 63 l 1,18,-1
 436 179 l 1,19,-1
 579 360 l 1,20,-1
 684 360 l 1,21,-1
 538 164 l 1,22,-1
 533 135 l 1,23,-1
 587 135 l 1,24,-1
 599 204 l 1,25,-1
 696 204 l 1,26,-1
 684 135 l 1,27,-1
 734 135 l 1,28,-1
 721 63 l 1,29,-1
 671 63 l 1,30,-1
 660 0 l 1,15,-1
EndSplineSet
EndChar

StartChar: onehalf
Encoding: 189 189 124
Width: 780
GlyphClass: 2
Flags: W
LayerCount: 2
Fore
SplineSet
51 0 m 1,0,-1
 571 727 l 1,1,-1
 711 727 l 1,2,-1
 191 0 l 1,3,-1
 51 0 l 1,0,-1
263 360 m 1,4,-1
 158 360 l 1,5,-1
 198 585 l 1,6,7
 186 565 186 565 154 547 c 128,-1,8
 122 529 122 529 87 529 c 1,9,-1
 83 628 l 1,10,11
 130 628 130 628 171 656.5 c 128,-1,12
 212 685 212 685 222 720 c 1,13,-1
 327 720 l 1,14,-1
 263 360 l 1,4,-1
638 247 m 128,-1,16
 638 276 638 276 601 276 c 0,17,18
 576 276 576 276 562.5 261 c 128,-1,19
 549 246 549 246 549 220 c 1,20,-1
 552 199 l 1,21,-1
 454 199 l 1,22,23
 451 211 451 211 451 230 c 0,24,25
 451 291 451 291 493 327 c 128,-1,26
 535 363 535 363 613 363 c 0,27,28
 740 363 740 363 740 264 c 0,29,30
 740 223 740 223 713.5 189 c 128,-1,31
 687 155 687 155 655.5 138 c 128,-1,32
 624 121 624 121 596 107 c 128,-1,33
 568 93 568 93 567 88 c 1,34,-1
 701 88 l 1,35,-1
 685 0 l 1,36,-1
 418 0 l 1,37,-1
 425 37 l 2,38,39
 433 82 433 82 468.5 113.5 c 128,-1,40
 504 145 504 145 541 159 c 128,-1,41
 578 173 578 173 608 195.5 c 128,-1,15
 638 218 638 218 638 247 c 128,-1,16
EndSplineSet
EndChar

StartChar: threequarters
Encoding: 190 190 125
Width: 775
GlyphClass: 2
Flags: W
LayerCount: 2
Fore
SplineSet
64 0 m 1,0,-1
 584 727 l 1,1,-1
 724 727 l 1,2,-1
 204 0 l 1,3,-1
 64 0 l 1,0,-1
166 477 m 1,4,5
 160 444 160 444 204 444 c 0,6,7
 225 444 225 444 238 455 c 128,-1,8
 251 466 251 466 251 483 c 0,9,10
 251 508 251 508 218 508 c 2,11,-1
 167 508 l 1,12,-1
 177 562 l 1,13,-1
 217 562 l 1,14,15
 241 563 241 563 257 577 c 128,-1,16
 273 591 273 591 273 608 c 0,17,18
 273 640 273 640 232 640 c 128,-1,19
 191 640 191 640 191 601 c 1,20,-1
 194 585 l 1,21,-1
 95 585 l 1,22,23
 93 594 93 594 93 608 c 0,24,25
 93 663 93 663 134 695 c 128,-1,26
 175 727 175 727 243.5 727 c 128,-1,27
 312 727 312 727 344 702 c 128,-1,28
 376 677 376 677 376 637.5 c 128,-1,29
 376 598 376 598 352 566.5 c 128,-1,30
 328 535 328 535 298 535 c 1,31,-1
 298 534 l 1,32,33
 322 534 322 534 335.5 517.5 c 128,-1,34
 349 501 349 501 349 474 c 0,35,36
 349 356 349 356 187 356 c 0,37,38
 119 356 119 356 91 382 c 128,-1,39
 63 408 63 408 63 448 c 0,40,41
 63 461 63 461 66 477 c 1,42,-1
 166 477 l 1,4,5
648 0 m 1,43,-1
 544 0 l 1,44,-1
 555 63 l 1,45,-1
 403 63 l 1,46,-1
 423 179 l 1,47,-1
 567 360 l 1,48,-1
 672 360 l 1,49,-1
 526 164 l 1,50,-1
 521 135 l 1,51,-1
 575 135 l 1,52,-1
 587 204 l 1,53,-1
 684 204 l 1,54,-1
 672 135 l 1,55,-1
 722 135 l 1,56,-1
 709 63 l 1,57,-1
 659 63 l 1,58,-1
 648 0 l 1,43,-1
EndSplineSet
EndChar

StartChar: questiondown
Encoding: 191 191 126
Width: 588
GlyphClass: 2
Flags: W
LayerCount: 2
Fore
SplineSet
320 -38 m 0,0,1
 320 -15 320 -15 313 4 c 1,2,-1
 490 4 l 1,3,4
 496 -20 496 -20 496 -58 c 0,5,6
 496 -174 496 -174 415 -241.5 c 128,-1,7
 334 -309 334 -309 183 -309 c 0,8,9
 64 -309 64 -309 6.5 -264.5 c 128,-1,10
 -51 -220 -51 -220 -51 -142 c 0,11,12
 -51 -87 -51 -87 -24.5 -40 c 128,-1,13
 2 7 2 7 41 38 c 128,-1,14
 80 69 80 69 119 95 c 128,-1,15
 158 121 158 121 188 146 c 128,-1,16
 218 171 218 171 222 194 c 2,17,-1
 234 259 l 1,18,-1
 402 259 l 1,19,-1
 391 194 l 2,20,21
 382 145 382 145 354 110.5 c 128,-1,22
 326 76 326 76 292.5 57.5 c 128,-1,23
 259 39 259 39 226 21 c 0,24,25
 150 -21 150 -21 150 -100 c 0,26,27
 150 -154 150 -154 220 -154 c 0,28,29
 268 -154 268 -154 294 -122.5 c 128,-1,30
 320 -91 320 -91 320 -38 c 0,0,1
447 423 m 0,31,32
 447 359 447 359 418.5 329.5 c 128,-1,33
 390 300 390 300 330 300 c 0,34,35
 246 300 246 300 246 374 c 0,36,37
 246 437 246 437 274.5 466 c 128,-1,38
 303 495 303 495 364 495 c 0,39,40
 447 495 447 495 447 423 c 0,31,32
EndSplineSet
EndChar

StartChar: Aacute
Encoding: 193 193 128
Width: 641
GlyphClass: 2
Flags: W
LayerCount: 2
Fore
SplineSet
375 0 m 1,0,-1
 381 157 l 1,1,-1
 214 157 l 1,2,-1
 165 0 l 1,3,-1
 -26 0 l 1,4,-1
 231 720 l 1,5,-1
 561 720 l 1,6,-1
 565 0 l 1,7,-1
 375 0 l 1,0,-1
334 545 m 1,8,-1
 255 291 l 1,9,-1
 386 291 l 1,10,-1
 397 545 l 1,11,-1
 334 545 l 1,8,-1
468 807 m 1,12,-1
 320 807 l 1,13,-1
 484 1046 l 1,14,-1
 664 1046 l 1,15,-1
 468 807 l 1,12,-1
EndSplineSet
EndChar

StartChar: Atilde
Encoding: 195 195 130
Width: 641
GlyphClass: 2
Flags: W
LayerCount: 2
Fore
SplineSet
375 0 m 1,0,-1
 381 157 l 1,1,-1
 214 157 l 1,2,-1
 165 0 l 1,3,-1
 -26 0 l 1,4,-1
 231 720 l 1,5,-1
 561 720 l 1,6,-1
 565 0 l 1,7,-1
 375 0 l 1,0,-1
334 545 m 1,8,-1
 255 291 l 1,9,-1
 386 291 l 1,10,-1
 397 545 l 1,11,-1
 334 545 l 1,8,-1
506 823 m 128,-1,13
 474 823 474 823 420 844.5 c 128,-1,14
 366 866 366 866 332 866 c 0,15,16
 272 866 272 866 221 846 c 1,17,-1
 204 840 l 1,18,-1
 224 951 l 1,19,20
 228 957 228 957 236.5 966 c 128,-1,21
 245 975 245 975 277.5 990 c 128,-1,22
 310 1005 310 1005 351 1005 c 128,-1,23
 392 1005 392 1005 452.5 982 c 128,-1,24
 513 959 513 959 548.5 959 c 128,-1,25
 584 959 584 959 609.5 966.5 c 128,-1,26
 635 974 635 974 644 982 c 1,27,-1
 654 989 l 1,28,-1
 634 869 l 1,29,30
 612 851 612 851 575 837 c 128,-1,12
 538 823 538 823 506 823 c 128,-1,13
EndSplineSet
EndChar

StartChar: Aring
Encoding: 197 197 132
Width: 641
GlyphClass: 2
Flags: W
LayerCount: 2
Fore
SplineSet
375 0 m 1,0,-1
 381 157 l 1,1,-1
 214 157 l 1,2,-1
 165 0 l 1,3,-1
 -26 0 l 1,4,-1
 231 720 l 1,5,-1
 561 720 l 1,6,-1
 565 0 l 1,7,-1
 375 0 l 1,0,-1
334 545 m 1,8,-1
 255 291 l 1,9,-1
 386 291 l 1,10,-1
 397 545 l 1,11,-1
 334 545 l 1,8,-1
504.5 825 m 128,-1,13
 465 788 465 788 419.5 788 c 128,-1,14
 374 788 374 788 348 814.5 c 128,-1,15
 322 841 322 841 322 886.5 c 128,-1,16
 322 932 322 932 361.5 969 c 128,-1,17
 401 1006 401 1006 447 1006 c 128,-1,18
 493 1006 493 1006 518.5 979.5 c 128,-1,19
 544 953 544 953 544 907.5 c 128,-1,12
 544 862 544 862 504.5 825 c 128,-1,13
458.5 871.5 m 128,-1,21
 472 884 472 884 472 900.5 c 128,-1,22
 472 917 472 917 463 926 c 128,-1,23
 454 935 454 935 437.5 935 c 128,-1,24
 421 935 421 935 407.5 922.5 c 128,-1,25
 394 910 394 910 394 893.5 c 128,-1,26
 394 877 394 877 403 868 c 128,-1,27
 412 859 412 859 428.5 859 c 128,-1,20
 445 859 445 859 458.5 871.5 c 128,-1,21
EndSplineSet
EndChar

StartChar: AE
Encoding: 198 198 133
Width: 900
GlyphClass: 2
Flags: W
LayerCount: 2
Fore
SplineSet
804 0 m 1,0,-1
 375 0 l 1,1,-1
 381 157 l 1,2,-1
 214 157 l 1,3,-1
 165 0 l 1,4,-1
 -26 0 l 1,5,-1
 231 720 l 1,6,-1
 931 720 l 1,7,-1
 903 564 l 1,8,-1
 561 564 l 1,9,-1
 563 429 l 1,10,-1
 824 429 l 1,11,-1
 796 273 l 1,12,-1
 563 273 l 1,13,-1
 564 156 l 1,14,-1
 832 156 l 1,15,-1
 804 0 l 1,0,-1
334 545 m 1,16,-1
 255 291 l 1,17,-1
 386 291 l 1,18,-1
 397 545 l 1,19,-1
 334 545 l 1,16,-1
EndSplineSet
EndChar

StartChar: Ccedilla
Encoding: 199 199 134
Width: 648
GlyphClass: 2
Flags: W
LayerCount: 2
Fore
SplineSet
351 -85 m 0,0,1
 351 -139 351 -139 312.5 -166.5 c 128,-1,2
 274 -194 274 -194 233 -194 c 128,-1,3
 192 -194 192 -194 167.5 -182 c 128,-1,4
 143 -170 143 -170 134 -158 c 1,5,-1
 124 -147 l 1,6,-1
 181 -88 l 1,7,8
 184 -100 184 -100 197.5 -111 c 128,-1,9
 211 -122 211 -122 227 -122 c 0,10,11
 274 -122 274 -122 274 -90 c 0,12,13
 274 -61 274 -61 217 -61 c 1,14,-1
 245 -13 l 1,15,16
 117 -8 117 -8 68 54 c 1,17,18
 36 97 36 97 36 169 c 0,19,20
 36 203 36 203 43 244 c 2,21,-1
 84 474 l 2,22,23
 129 727 129 727 409 727 c 0,24,25
 525 727 525 727 585 677.5 c 128,-1,26
 645 628 645 628 645 542 c 0,27,28
 645 502 645 502 633.5 462.5 c 128,-1,29
 622 423 622 423 611 404 c 2,30,-1
 600 384 l 1,31,-1
 423 384 l 1,32,33
 456 422 456 422 456 492 c 0,34,35
 456 529 456 529 437 550.5 c 128,-1,36
 418 572 418 572 381 572 c 0,37,38
 280 572 280 572 261 460 c 2,39,-1
 226 258 l 2,40,41
 221 232 221 232 221 207 c 0,42,43
 221 141 221 141 300 141 c 0,44,45
 395 141 395 141 414 248 c 1,46,-1
 594 248 l 1,47,-1
 589 219 l 1,48,49
 550 -1 550 -1 301 -13 c 1,50,-1
 294 -24 l 1,51,52
 320 -24 320 -24 335.5 -39.5 c 128,-1,53
 351 -55 351 -55 351 -85 c 0,0,1
EndSplineSet
EndChar

StartChar: Eacute
Encoding: 201 201 136
Width: 617
GlyphClass: 2
Flags: W
LayerCount: 2
Fore
SplineSet
521 0 m 1,0,-1
 19 0 l 1,1,-1
 146 720 l 1,2,-1
 648 720 l 1,3,-1
 620 564 l 1,4,-1
 298 564 l 1,5,-1
 275 429 l 1,6,-1
 541 429 l 1,7,-1
 513 273 l 1,8,-1
 247 273 l 1,9,-1
 227 156 l 1,10,-1
 549 156 l 1,11,-1
 521 0 l 1,0,-1
484 807 m 1,12,-1
 336 807 l 1,13,-1
 500 1046 l 1,14,-1
 680 1046 l 1,15,-1
 484 807 l 1,12,-1
EndSplineSet
EndChar

StartChar: Edieresis
Encoding: 203 203 138
Width: 617
GlyphClass: 2
Flags: W
LayerCount: 2
Fore
SplineSet
521 0 m 1,0,-1
 19 0 l 1,1,-1
 146 720 l 1,2,-1
 648 720 l 1,3,-1
 620 564 l 1,4,-1
 298 564 l 1,5,-1
 275 429 l 1,6,-1
 541 429 l 1,7,-1
 513 273 l 1,8,-1
 247 273 l 1,9,-1
 227 156 l 1,10,-1
 549 156 l 1,11,-1
 521 0 l 1,0,-1
254 861 m 0,12,13
 254 912 254 912 277 935.5 c 128,-1,14
 300 959 300 959 348 959 c 0,15,16
 415 959 415 959 415 901 c 0,17,18
 415 850 415 850 392 826.5 c 128,-1,19
 369 803 369 803 320 803 c 0,20,21
 254 803 254 803 254 861 c 0,12,13
536 861 m 0,22,23
 536 912 536 912 559 935.5 c 128,-1,24
 582 959 582 959 630 959 c 0,25,26
 697 959 697 959 697 901 c 0,27,28
 697 850 697 850 674 826.5 c 128,-1,29
 651 803 651 803 602 803 c 0,30,31
 536 803 536 803 536 861 c 0,22,23
EndSplineSet
EndChar

StartChar: Iacute
Encoding: 205 205 140
Width: 322
GlyphClass: 2
Flags: W
LayerCount: 2
Fore
SplineSet
326 720 m 1,0,-1
 200 0 l 1,1,-1
 19 0 l 1,2,-1
 146 720 l 1,3,-1
 326 720 l 1,0,-1
322 807 m 1,4,-1
 174 807 l 1,5,-1
 338 1046 l 1,6,-1
 518 1046 l 1,7,-1
 322 807 l 1,4,-1
EndSplineSet
EndChar

StartChar: Idieresis
Encoding: 207 207 142
Width: 322
GlyphClass: 2
Flags: W
LayerCount: 2
Fore
SplineSet
326 720 m 1,0,-1
 200 0 l 1,1,-1
 19 0 l 1,2,-1
 146 720 l 1,3,-1
 326 720 l 1,0,-1
40 861 m 0,4,5
 40 912 40 912 63 935.5 c 128,-1,6
 86 959 86 959 134 959 c 0,7,8
 201 959 201 959 201 901 c 0,9,10
 201 850 201 850 178 826.5 c 128,-1,11
 155 803 155 803 106 803 c 0,12,13
 40 803 40 803 40 861 c 0,4,5
322 861 m 0,14,15
 322 912 322 912 345 935.5 c 128,-1,16
 368 959 368 959 416 959 c 0,17,18
 483 959 483 959 483 901 c 0,19,20
 483 850 483 850 460 826.5 c 128,-1,21
 437 803 437 803 388 803 c 0,22,23
 322 803 322 803 322 861 c 0,14,15
EndSplineSet
EndChar

StartChar: Eth
Encoding: 208 208 143
Width: 669
GlyphClass: 2
Flags: W
LayerCount: 2
Fore
SplineSet
426 720 m 2,0,1
 557 720 557 720 613 654 c 1,2,3
 654 604 654 604 654 529 c 0,4,5
 654 502 654 502 649 472 c 2,6,-1
 610 249 l 2,7,8
 590 136 590 136 512 68 c 128,-1,9
 434 0 434 0 310 0 c 2,10,-1
 19 0 l 1,11,-1
 146 720 l 1,12,-1
 426 720 l 2,0,1
322 156 m 2,13,14
 369 156 369 156 395.5 181.5 c 128,-1,15
 422 207 422 207 432 265 c 2,16,-1
 461 429 l 2,17,18
 465 451 465 451 465 469 c 0,19,20
 465 564 465 564 363 564 c 2,21,-1
 298 564 l 1,22,-1
 273 421 l 1,23,-1
 381 421 l 1,24,-1
 359 295 l 1,25,-1
 251 295 l 1,26,-1
 227 156 l 1,27,-1
 322 156 l 2,13,14
EndSplineSet
EndChar

StartChar: Oacute
Encoding: 211 211 146
Width: 664
GlyphClass: 2
Flags: W
LayerCount: 2
Fore
SplineSet
408 727 m 0,0,1
 649 727 649 727 649 530 c 0,2,3
 649 497 649 497 642 459 c 2,4,-1
 607 259 l 2,5,6
 583 120 583 120 503 53 c 128,-1,7
 423 -14 423 -14 278 -14 c 128,-1,8
 133 -14 133 -14 76 53 c 0,9,10
 37 99 37 99 37 180 c 0,11,12
 37 216 37 216 45 259 c 2,13,-1
 80 459 l 2,14,15
 127 727 127 727 408 727 c 0,0,1
305 141 m 0,16,17
 355 141 355 141 385 167 c 128,-1,18
 415 193 415 193 427 263 c 2,19,-1
 461 455 l 2,20,21
 464 475 464 475 464 491 c 0,22,23
 464 572 464 572 382 572 c 1,24,25
 279 570 279 570 259 455 c 2,26,-1
 225 263 l 2,27,28
 221 238 221 238 221 211 c 0,29,30
 221 141 221 141 305 141 c 0,16,17
480 807 m 1,31,-1
 332 807 l 1,32,-1
 496 1046 l 1,33,-1
 676 1046 l 1,34,-1
 480 807 l 1,31,-1
EndSplineSet
EndChar

StartChar: Otilde
Encoding: 213 213 148
Width: 664
GlyphClass: 2
Flags: W
LayerCount: 2
Fore
SplineSet
408 727 m 0,0,1
 649 727 649 727 649 530 c 0,2,3
 649 497 649 497 642 459 c 2,4,-1
 607 259 l 2,5,6
 583 120 583 120 503 53 c 128,-1,7
 423 -14 423 -14 278 -14 c 128,-1,8
 133 -14 133 -14 76 53 c 0,9,10
 37 99 37 99 37 180 c 0,11,12
 37 216 37 216 45 259 c 2,13,-1
 80 459 l 2,14,15
 127 727 127 727 408 727 c 0,0,1
305 141 m 0,16,17
 355 141 355 141 385 167 c 128,-1,18
 415 193 415 193 427 263 c 2,19,-1
 461 455 l 2,20,21
 464 475 464 475 464 491 c 0,22,23
 464 572 464 572 382 572 c 1,24,25
 279 570 279 570 259 455 c 2,26,-1
 225 263 l 2,27,28
 221 238 221 238 221 211 c 0,29,30
 221 141 221 141 305 141 c 0,16,17
517 823 m 128,-1,32
 485 823 485 823 431.5 844.5 c 128,-1,33
 378 866 378 866 343 866 c 0,34,35
 283 866 283 866 232 846 c 1,36,-1
 215 840 l 1,37,-1
 235 951 l 1,38,39
 239 957 239 957 247.5 966 c 128,-1,40
 256 975 256 975 288.5 990 c 128,-1,41
 321 1005 321 1005 362 1005 c 128,-1,42
 403 1005 403 1005 463.5 982 c 128,-1,43
 524 959 524 959 559.5 959 c 128,-1,44
 595 959 595 959 620.5 966.5 c 128,-1,45
 646 974 646 974 656 982 c 2,46,-1
 665 989 l 1,47,-1
 645 869 l 1,48,49
 623 851 623 851 586 837 c 128,-1,31
 549 823 549 823 517 823 c 128,-1,32
EndSplineSet
EndChar

StartChar: multiply
Encoding: 215 215 150
Width: 425
GlyphClass: 2
Flags: W
LayerCount: 2
Fore
SplineSet
263 74 m 1,0,-1
 187 165 l 1,1,-1
 82 76 l 1,2,-1
 14 160 l 1,3,-1
 119 249 l 1,4,-1
 46 337 l 1,5,-1
 145 420 l 1,6,-1
 216 332 l 1,7,-1
 322 422 l 1,8,-1
 392 339 l 1,9,-1
 286 249 l 1,10,-1
 361 158 l 1,11,-1
 263 74 l 1,0,-1
EndSplineSet
EndChar

StartChar: Oslash
Encoding: 216 216 151
Width: 664
GlyphClass: 2
Flags: W
LayerCount: 2
Fore
SplineSet
408 727 m 0,0,1
 423 727 423 727 447 725 c 1,2,-1
 464 760 l 1,3,-1
 601 760 l 1,4,-1
 568 692 l 1,5,6
 648 644 648 644 648 529 c 0,7,8
 648 497 648 497 642 459 c 2,9,-1
 607 259 l 2,10,11
 583 120 583 120 503 53 c 128,-1,12
 423 -14 423 -14 278 -14 c 0,13,14
 260 -14 260 -14 232 -12 c 1,15,-1
 205 -69 l 1,16,-1
 67 -69 l 1,17,-1
 111 23 l 1,18,19
 38 69 38 69 38 182 c 0,20,21
 38 217 38 217 45 259 c 2,22,-1
 80 459 l 2,23,24
 127 727 127 727 408 727 c 0,0,1
305 141 m 1,25,26
 355 141 355 141 385 167 c 128,-1,27
 415 193 415 193 427 263 c 2,28,-1
 461 455 l 2,29,30
 463 467 463 467 463 472 c 1,31,-1
 305 141 l 1,25,26
259 455 m 2,32,-1
 224 260 l 1,33,-1
 374 572 l 1,34,35
 279 565 279 565 259 455 c 2,32,-1
EndSplineSet
EndChar

StartChar: Uacute
Encoding: 218 218 153
Width: 691
GlyphClass: 2
Flags: W
LayerCount: 2
Fore
SplineSet
291 -14 m 128,-1,1
 146 -14 146 -14 90 53 c 1,2,3
 50 99 50 99 50 180 c 0,4,5
 50 216 50 216 58 259 c 2,6,-1
 139 720 l 1,7,-1
 319 720 l 1,8,-1
 238 263 l 2,9,10
 234 238 234 238 234 211 c 0,11,12
 234 141 234 141 318 141 c 0,13,14
 368 141 368 141 398 167 c 128,-1,15
 428 193 428 193 440 263 c 2,16,-1
 521 720 l 1,17,-1
 701 720 l 1,18,-1
 620 259 l 2,19,20
 595 119 595 119 515.5 52.5 c 128,-1,0
 436 -14 436 -14 291 -14 c 128,-1,1
488 807 m 1,21,-1
 340 807 l 1,22,-1
 504 1046 l 1,23,-1
 684 1046 l 1,24,-1
 488 807 l 1,21,-1
EndSplineSet
EndChar

StartChar: Udieresis
Encoding: 220 220 155
Width: 691
GlyphClass: 2
Flags: W
LayerCount: 2
Fore
SplineSet
291 -14 m 128,-1,1
 146 -14 146 -14 90 53 c 1,2,3
 50 99 50 99 50 180 c 0,4,5
 50 216 50 216 58 259 c 2,6,-1
 139 720 l 1,7,-1
 319 720 l 1,8,-1
 238 263 l 2,9,10
 234 238 234 238 234 211 c 0,11,12
 234 141 234 141 318 141 c 0,13,14
 368 141 368 141 398 167 c 128,-1,15
 428 193 428 193 440 263 c 2,16,-1
 521 720 l 1,17,-1
 701 720 l 1,18,-1
 620 259 l 2,19,20
 595 119 595 119 515.5 52.5 c 128,-1,0
 436 -14 436 -14 291 -14 c 128,-1,1
232 861 m 0,21,22
 232 912 232 912 255 935.5 c 128,-1,23
 278 959 278 959 326 959 c 0,24,25
 393 959 393 959 393 901 c 0,26,27
 393 850 393 850 370 826.5 c 128,-1,28
 347 803 347 803 298 803 c 0,29,30
 232 803 232 803 232 861 c 0,21,22
514 861 m 0,31,32
 514 912 514 912 537 935.5 c 128,-1,33
 560 959 560 959 608 959 c 0,34,35
 675 959 675 959 675 901 c 0,36,37
 675 850 675 850 652 826.5 c 128,-1,38
 629 803 629 803 580 803 c 0,39,40
 514 803 514 803 514 861 c 0,31,32
EndSplineSet
EndChar

StartChar: Thorn
Encoding: 222 222 157
Width: 642
GlyphClass: 2
Flags: W
LayerCount: 2
Fore
SplineSet
431 612 m 2,0,1
 544 612 544 612 592 560 c 1,2,3
 627 520 627 520 627 458 c 0,4,5
 627 437 627 437 623 414 c 2,6,-1
 603 301 l 2,7,8
 588 218 588 218 515 164.5 c 128,-1,9
 442 111 442 111 337 111 c 2,10,-1
 218 111 l 1,11,-1
 198 0 l 1,12,-1
 18 0 l 1,13,-1
 145 721 l 1,14,-1
 325 721 l 1,15,-1
 306 612 l 1,16,-1
 431 612 l 2,0,1
368 456 m 2,17,-1
 278 456 l 1,18,-1
 245 267 l 1,19,-1
 334 267 l 2,20,21
 416 267 416 267 429 340 c 2,22,-1
 436 381 l 2,23,24
 438 390 438 390 438 405 c 128,-1,25
 438 420 438 420 423 438 c 128,-1,26
 408 456 408 456 368 456 c 2,17,-1
EndSplineSet
EndChar

StartChar: germandbls
Encoding: 223 223 158
Width: 645
GlyphClass: 2
Flags: W
LayerCount: 2
Fore
SplineSet
395 727 m 0,0,1
 494 727 494 727 562 687 c 0,2,3
 597 666 597 666 613 626 c 0,4,5
 623 601 623 601 623 577 c 128,-1,6
 623 553 623 553 619 532 c 2,7,-1
 610 484 l 2,8,9
 599 427 599 427 567.5 395 c 128,-1,10
 536 363 536 363 512 363 c 1,11,-1
 511 355 l 1,12,13
 539 355 539 355 568 324 c 128,-1,14
 597 293 597 293 597 251 c 0,15,16
 597 234 597 234 593 215 c 2,17,-1
 587 184 l 2,18,19
 571 98 571 98 510.5 49 c 128,-1,20
 450 0 450 0 342 0 c 0,21,22
 306 0 306 0 282.5 7.5 c 128,-1,23
 259 15 259 15 254 22 c 2,24,-1
 248 30 l 1,25,-1
 276 186 l 1,26,27
 280 175 280 175 298 165.5 c 128,-1,28
 316 156 316 156 342.5 156 c 128,-1,29
 369 156 369 156 392 178.5 c 128,-1,30
 415 201 415 201 415 232 c 0,31,32
 415 294 415 294 335 294 c 2,33,-1
 300 294 l 1,34,-1
 321 415 l 1,35,-1
 335 415 l 2,36,37
 432 415 432 415 432 504 c 0,38,39
 432 533 432 533 415 552.5 c 128,-1,40
 398 572 398 572 364 572 c 0,41,42
 289 572 289 572 272 475 c 2,43,-1
 188 0 l 1,44,-1
 8 0 l 1,45,-1
 92 474 l 2,46,47
 137 727 137 727 395 727 c 0,0,1
EndSplineSet
EndChar

StartChar: agrave
Encoding: 224 224 159
Width: 602
GlyphClass: 2
Flags: W
LayerCount: 2
Fore
SplineSet
491 154 m 0,0,1
 491 128 491 128 517.5 128 c 128,-1,2
 544 128 544 128 562 138 c 1,3,-1
 557 25 l 1,4,5
 509 -14 509 -14 449 -14 c 0,6,7
 339 -14 339 -14 327 66 c 1,8,9
 277 -14 277 -14 180 -14 c 0,10,11
 16 -14 16 -14 16 127 c 0,12,13
 16 151 16 151 21 180 c 2,14,-1
 42 297 l 2,15,16
 58 387 58 387 115.5 440.5 c 128,-1,17
 173 494 173 494 265.5 494 c 128,-1,18
 358 494 358 494 391 451 c 1,19,-1
 396 481 l 1,20,-1
 548 481 l 1,21,-1
 492 166 l 2,22,23
 491 160 491 160 491 154 c 0,0,1
195 202 m 2,24,25
 193 193 193 193 193 177 c 128,-1,26
 193 161 193 161 208 145.5 c 128,-1,27
 223 130 223 130 258.5 130 c 128,-1,28
 294 130 294 130 320 158 c 1,29,-1
 350 326 l 1,30,31
 339 351 339 351 298 351 c 0,32,33
 221 351 221 351 208 277 c 2,34,-1
 195 202 l 2,24,25
436 568 m 1,35,-1
 288 568 l 1,36,-1
 176 807 l 1,37,-1
 356 807 l 1,38,-1
 436 568 l 1,35,-1
EndSplineSet
EndChar

StartChar: ae
Encoding: 230 230 165
Width: 854
GlyphClass: 2
Flags: W
LayerCount: 2
Fore
SplineSet
526 -14 m 0,0,1
 376 -14 376 -14 335 58 c 1,2,3
 312 30 312 30 270.5 8 c 128,-1,4
 229 -14 229 -14 175 -14 c 0,5,6
 82 -14 82 -14 43 36 c 0,7,8
 16 71 16 71 16 127 c 0,9,10
 16 151 16 151 21 180 c 2,11,-1
 42 297 l 2,12,13
 58 387 58 387 115.5 440.5 c 128,-1,14
 173 494 173 494 265.5 494 c 128,-1,15
 358 494 358 494 391 451 c 1,16,-1
 396 481 l 1,17,-1
 507 481 l 1,18,19
 558 496 558 496 621 496 c 0,20,21
 823 496 823 496 823 346 c 0,22,23
 823 323 823 323 818 296 c 2,24,-1
 806 225 l 1,25,-1
 502 225 l 1,26,-1
 496 189 l 2,27,28
 495 182 495 182 495 176 c 0,29,30
 495 150 495 150 512.5 137.5 c 128,-1,31
 530 125 530 125 545 125 c 0,32,33
 599 125 599 125 621 175 c 1,34,-1
 787 173 l 1,35,36
 754 -14 754 -14 526 -14 c 0,0,1
195 202 m 2,37,38
 193 193 193 193 193 177 c 128,-1,39
 193 161 193 161 208 145.5 c 128,-1,40
 223 130 223 130 258.5 130 c 128,-1,41
 294 130 294 130 319 157 c 1,42,-1
 350 326 l 1,43,44
 339 351 339 351 298 351 c 0,45,46
 221 351 221 351 208 277 c 2,47,-1
 195 202 l 2,37,38
646 286 m 1,48,49
 650 303 650 303 650 317.5 c 128,-1,50
 650 332 650 332 637 347 c 128,-1,51
 624 362 624 362 597 362 c 0,52,53
 537 362 537 362 514 292 c 2,54,-1
 512 286 l 1,55,-1
 646 286 l 1,48,49
EndSplineSet
EndChar

StartChar: ccedilla
Encoding: 231 231 166
Width: 551
GlyphClass: 2
Flags: W
LayerCount: 2
Fore
SplineSet
288 -85 m 0,0,1
 288 -139 288 -139 249.5 -166.5 c 128,-1,2
 211 -194 211 -194 170 -194 c 128,-1,3
 129 -194 129 -194 104.5 -182 c 128,-1,4
 80 -170 80 -170 70 -158 c 2,5,-1
 61 -147 l 1,6,-1
 118 -88 l 1,7,8
 121 -100 121 -100 134.5 -111 c 128,-1,9
 148 -122 148 -122 164 -122 c 0,10,11
 211 -122 211 -122 211 -90 c 0,12,13
 211 -61 211 -61 154 -61 c 1,14,-1
 183 -12 l 1,15,16
 18 3 18 3 18 131 c 0,17,18
 18 151 18 151 22 173 c 2,19,-1
 43 297 l 2,20,21
 59 393 59 393 130.5 444 c 128,-1,22
 202 495 202 495 312 496 c 1,23,24
 525 496 525 496 525 348 c 0,25,26
 525 316 525 316 517.5 290.5 c 128,-1,27
 510 265 510 265 502 256 c 2,28,-1
 494 246 l 1,29,-1
 324 246 l 1,30,31
 349 268 349 268 349 298 c 0,32,33
 349 352 349 352 295 352 c 0,34,35
 263 352 263 352 240 333 c 128,-1,36
 217 314 217 314 210 275 c 2,37,-1
 197 202 l 2,38,39
 195 192 195 192 195 183 c 0,40,41
 195 130 195 130 261 130 c 0,42,43
 283 130 283 130 300.5 143 c 128,-1,44
 318 156 318 156 321 173 c 1,45,-1
 487 173 l 1,46,47
 454 -10 454 -10 237 -14 c 1,48,-1
 231 -24 l 1,49,50
 257 -24 257 -24 272.5 -39.5 c 128,-1,51
 288 -55 288 -55 288 -85 c 0,0,1
EndSplineSet
EndChar

StartChar: egrave
Encoding: 232 232 167
Width: 552
GlyphClass: 2
Flags: W
LayerCount: 2
Fore
SplineSet
224 -14 m 0,0,1
 16 -14 16 -14 16 130 c 0,2,3
 16 150 16 150 20 173 c 2,4,-1
 41 297 l 2,5,6
 58 393 58 393 129.5 444.5 c 128,-1,7
 201 496 201 496 319 496 c 0,8,9
 520 496 520 496 520 344 c 0,10,11
 520 322 520 322 516 296 c 2,12,-1
 504 225 l 1,13,-1
 199 225 l 1,14,-1
 195 202 l 2,15,16
 193 190 193 190 193 180 c 0,17,18
 193 125 193 125 258 125 c 0,19,20
 282 125 282 125 299 140 c 128,-1,21
 316 155 316 155 319 175 c 1,22,-1
 485 173 l 1,23,24
 452 -14 452 -14 224 -14 c 0,0,1
344 286 m 1,25,26
 348 303 348 303 348 317.5 c 128,-1,27
 348 332 348 332 335 347 c 128,-1,28
 322 362 322 362 293.5 362 c 128,-1,29
 265 362 265 362 241.5 343 c 128,-1,30
 218 324 218 324 209 286 c 1,31,-1
 344 286 l 1,25,26
408 568 m 1,32,-1
 260 568 l 1,33,-1
 148 807 l 1,34,-1
 328 807 l 1,35,-1
 408 568 l 1,32,-1
EndSplineSet
EndChar

StartChar: eacute
Encoding: 233 233 168
Width: 552
GlyphClass: 2
Flags: W
LayerCount: 2
Fore
SplineSet
224 -14 m 0,0,1
 16 -14 16 -14 16 130 c 0,2,3
 16 150 16 150 20 173 c 2,4,-1
 41 297 l 2,5,6
 58 393 58 393 129.5 444.5 c 128,-1,7
 201 496 201 496 319 496 c 0,8,9
 520 496 520 496 520 344 c 0,10,11
 520 322 520 322 516 296 c 2,12,-1
 504 225 l 1,13,-1
 199 225 l 1,14,-1
 195 202 l 2,15,16
 193 190 193 190 193 180 c 0,17,18
 193 125 193 125 258 125 c 0,19,20
 282 125 282 125 299 140 c 128,-1,21
 316 155 316 155 319 175 c 1,22,-1
 485 173 l 1,23,24
 452 -14 452 -14 224 -14 c 0,0,1
344 286 m 1,25,26
 348 303 348 303 348 317.5 c 128,-1,27
 348 332 348 332 335 347 c 128,-1,28
 322 362 322 362 293.5 362 c 128,-1,29
 265 362 265 362 241.5 343 c 128,-1,30
 218 324 218 324 209 286 c 1,31,-1
 344 286 l 1,25,26
393 568 m 1,32,-1
 245 568 l 1,33,-1
 409 807 l 1,34,-1
 589 807 l 1,35,-1
 393 568 l 1,32,-1
EndSplineSet
EndChar

StartChar: edieresis
Encoding: 235 235 170
Width: 552
GlyphClass: 2
Flags: W
LayerCount: 2
Fore
SplineSet
224 -14 m 0,0,1
 16 -14 16 -14 16 130 c 0,2,3
 16 150 16 150 20 173 c 2,4,-1
 41 297 l 2,5,6
 58 393 58 393 129.5 444.5 c 128,-1,7
 201 496 201 496 319 496 c 0,8,9
 520 496 520 496 520 344 c 0,10,11
 520 322 520 322 516 296 c 2,12,-1
 504 225 l 1,13,-1
 199 225 l 1,14,-1
 195 202 l 2,15,16
 193 190 193 190 193 180 c 0,17,18
 193 125 193 125 258 125 c 0,19,20
 282 125 282 125 299 140 c 128,-1,21
 316 155 316 155 319 175 c 1,22,-1
 485 173 l 1,23,24
 452 -14 452 -14 224 -14 c 0,0,1
344 286 m 1,25,26
 348 303 348 303 348 317.5 c 128,-1,27
 348 332 348 332 335 347 c 128,-1,28
 322 362 322 362 293.5 362 c 128,-1,29
 265 362 265 362 241.5 343 c 128,-1,30
 218 324 218 324 209 286 c 1,31,-1
 344 286 l 1,25,26
119 622 m 0,32,33
 119 673 119 673 142 696.5 c 128,-1,34
 165 720 165 720 213 720 c 0,35,36
 280 720 280 720 280 662 c 0,37,38
 280 611 280 611 257 587.5 c 128,-1,39
 234 564 234 564 185 564 c 0,40,41
 119 564 119 564 119 622 c 0,32,33
401 622 m 0,42,43
 401 673 401 673 424 696.5 c 128,-1,44
 447 720 447 720 495 720 c 0,45,46
 562 720 562 720 562 662 c 0,47,48
 562 611 562 611 539 587.5 c 128,-1,49
 516 564 516 564 467 564 c 0,50,51
 401 564 401 564 401 622 c 0,42,43
EndSplineSet
EndChar

StartChar: igrave
Encoding: 236 236 171
Width: 313
GlyphClass: 2
Flags: W
LayerCount: 2
Fore
SplineSet
203 154 m 0,0,1
 203 128 203 128 229.5 128 c 128,-1,2
 256 128 256 128 274 138 c 1,3,-1
 269 25 l 1,4,5
 221 -14 221 -14 161 -14 c 0,6,7
 70 -14 70 -14 44 28 c 1,8,9
 26 55 26 55 26 87 c 128,-1,10
 26 119 26 119 30 143 c 2,11,-1
 90 481 l 1,12,-1
 260 481 l 1,13,-1
 204 166 l 2,14,15
 203 160 203 160 203 154 c 0,0,1
263 568 m 1,16,-1
 115 568 l 1,17,-1
 3 807 l 1,18,-1
 183 807 l 1,19,-1
 263 568 l 1,16,-1
EndSplineSet
EndChar

StartChar: iacute
Encoding: 237 237 172
Width: 313
GlyphClass: 2
Flags: W
LayerCount: 2
Fore
SplineSet
202 154 m 0,0,1
 202 128 202 128 228.5 128 c 128,-1,2
 255 128 255 128 273 138 c 1,3,-1
 268 25 l 1,4,5
 220 -14 220 -14 160 -14 c 0,6,7
 69 -14 69 -14 42 28 c 0,8,9
 25 55 25 55 25 87 c 128,-1,10
 25 119 25 119 29 143 c 2,11,-1
 89 481 l 1,12,-1
 259 481 l 1,13,-1
 203 166 l 2,14,15
 202 160 202 160 202 154 c 0,0,1
258 568 m 1,16,-1
 110 568 l 1,17,-1
 274 807 l 1,18,-1
 454 807 l 1,19,-1
 258 568 l 1,16,-1
EndSplineSet
EndChar

StartChar: icircumflex
Encoding: 238 238 173
Width: 313
GlyphClass: 2
Flags: W
LayerCount: 2
Fore
SplineSet
203 154 m 0,0,1
 203 128 203 128 229.5 128 c 128,-1,2
 256 128 256 128 274 138 c 1,3,-1
 269 25 l 1,4,5
 221 -14 221 -14 161 -14 c 0,6,7
 70 -14 70 -14 44 28 c 1,8,9
 26 55 26 55 26 87 c 128,-1,10
 26 119 26 119 30 143 c 2,11,-1
 90 481 l 1,12,-1
 260 481 l 1,13,-1
 204 166 l 2,14,15
 203 160 203 160 203 154 c 0,0,1
122 568 m 1,16,-1
 -21 568 l 1,17,-1
 142 807 l 1,18,-1
 323 807 l 1,19,-1
 402 568 l 1,20,-1
 259 568 l 1,21,-1
 211 686 l 1,22,-1
 122 568 l 1,16,-1
EndSplineSet
EndChar

StartChar: idieresis
Encoding: 239 239 174
Width: 313
GlyphClass: 2
Flags: W
LayerCount: 2
Fore
SplineSet
203 154 m 0,0,1
 203 128 203 128 229.5 128 c 128,-1,2
 256 128 256 128 274 138 c 1,3,-1
 269 25 l 1,4,5
 221 -14 221 -14 161 -14 c 0,6,7
 70 -14 70 -14 44 28 c 1,8,9
 26 55 26 55 26 87 c 128,-1,10
 26 119 26 119 30 143 c 2,11,-1
 90 481 l 1,12,-1
 260 481 l 1,13,-1
 204 166 l 2,14,15
 203 160 203 160 203 154 c 0,0,1
-14 622 m 0,16,17
 -14 673 -14 673 9 696.5 c 128,-1,18
 32 720 32 720 80 720 c 0,19,20
 147 720 147 720 147 662 c 0,21,22
 147 611 147 611 124 587.5 c 128,-1,23
 101 564 101 564 52 564 c 0,24,25
 -14 564 -14 564 -14 622 c 0,16,17
268 622 m 0,26,27
 268 673 268 673 291 696.5 c 128,-1,28
 314 720 314 720 362 720 c 0,29,30
 429 720 429 720 429 662 c 0,31,32
 429 611 429 611 406 587.5 c 128,-1,33
 383 564 383 564 334 564 c 0,34,35
 268 564 268 564 268 622 c 0,26,27
EndSplineSet
EndChar

StartChar: eth
Encoding: 240 240 175
Width: 628
GlyphClass: 2
Flags: W
LayerCount: 2
Fore
SplineSet
370 571 m 1,0,-1
 356 572 l 1,1,2
 257 572 257 572 257 492 c 1,3,-1
 260 464 l 1,4,-1
 83 464 l 1,5,6
 79 480 79 480 79 506 c 0,7,8
 79 609 79 609 157 668 c 128,-1,9
 235 727 235 727 382 727 c 0,10,11
 467 727 467 727 525 702 c 1,12,-1
 589 756 l 1,13,-1
 653 679 l 1,14,-1
 599 634 l 1,15,16
 619 595 619 595 619 552 c 128,-1,17
 619 509 619 509 613 474 c 2,18,-1
 573 244 l 2,19,20
 550 111 550 111 473 48.5 c 128,-1,21
 396 -14 396 -14 253 -14 c 0,22,23
 13 -14 13 -14 13 172 c 0,24,25
 13 279 13 279 77 350.5 c 128,-1,26
 141 422 141 422 259 422 c 2,27,-1
 424 422 l 1,28,-1
 431 460 l 2,29,30
 434 480 434 480 434 495 c 1,31,-1
 381 450 l 1,32,-1
 318 527 l 1,33,-1
 370 571 l 1,0,-1
280 141 m 0,34,35
 327 141 327 141 355.5 166 c 128,-1,36
 384 191 384 191 395 258 c 2,37,-1
 400 287 l 1,38,-1
 297 287 l 2,39,40
 254 287 254 287 224.5 265.5 c 128,-1,41
 195 244 195 244 195 197 c 0,42,43
 195 141 195 141 280 141 c 0,34,35
EndSplineSet
EndChar

StartChar: oacute
Encoding: 243 243 178
Width: 564
GlyphClass: 2
Flags: W
LayerCount: 2
Fore
SplineSet
321 495 m 0,0,1
 429 495 429 495 484 448 c 0,2,3
 527 411 527 411 527 345 c 0,4,5
 527 323 527 323 522 297 c 2,6,-1
 501 180 l 2,7,8
 482 74 482 74 412.5 30 c 128,-1,9
 343 -14 343 -14 227 -14 c 128,-1,10
 111 -14 111 -14 57 30 c 0,11,12
 17 63 17 63 17 129 c 0,13,14
 17 152 17 152 22 180 c 2,15,-1
 43 297 l 2,16,17
 78 495 78 495 321 495 c 0,0,1
348 277 m 2,18,19
 350 287 350 287 350 302.5 c 128,-1,20
 350 318 350 318 337 337 c 128,-1,21
 324 356 324 356 291.5 356 c 128,-1,22
 259 356 259 356 237 334.5 c 128,-1,23
 215 313 215 313 209 277 c 2,24,-1
 196 202 l 2,25,26
 194 192 194 192 194 176.5 c 128,-1,27
 194 161 194 161 207 143 c 128,-1,28
 220 125 220 125 252.5 125 c 128,-1,29
 285 125 285 125 307 147.5 c 128,-1,30
 329 170 329 170 335 202 c 2,31,-1
 348 277 l 2,18,19
388 568 m 1,32,-1
 240 568 l 1,33,-1
 404 807 l 1,34,-1
 584 807 l 1,35,-1
 388 568 l 1,32,-1
EndSplineSet
EndChar

StartChar: ocircumflex
Encoding: 244 244 179
Width: 564
GlyphClass: 2
Flags: W
LayerCount: 2
Fore
SplineSet
321 495 m 0,0,1
 429 495 429 495 484 448 c 0,2,3
 527 411 527 411 527 345 c 0,4,5
 527 323 527 323 522 297 c 2,6,-1
 501 180 l 2,7,8
 482 74 482 74 412.5 30 c 128,-1,9
 343 -14 343 -14 227 -14 c 128,-1,10
 111 -14 111 -14 57 30 c 0,11,12
 17 63 17 63 17 129 c 0,13,14
 17 152 17 152 22 180 c 2,15,-1
 43 297 l 2,16,17
 78 495 78 495 321 495 c 0,0,1
348 277 m 2,18,19
 350 287 350 287 350 302.5 c 128,-1,20
 350 318 350 318 337 337 c 128,-1,21
 324 356 324 356 291.5 356 c 128,-1,22
 259 356 259 356 237 334.5 c 128,-1,23
 215 313 215 313 209 277 c 2,24,-1
 196 202 l 2,25,26
 194 192 194 192 194 176.5 c 128,-1,27
 194 161 194 161 207 143 c 128,-1,28
 220 125 220 125 252.5 125 c 128,-1,29
 285 125 285 125 307 147.5 c 128,-1,30
 329 170 329 170 335 202 c 2,31,-1
 348 277 l 2,18,19
258 568 m 1,32,-1
 115 568 l 1,33,-1
 278 807 l 1,34,-1
 459 807 l 1,35,-1
 538 568 l 1,36,-1
 395 568 l 1,37,-1
 347 686 l 1,38,-1
 258 568 l 1,32,-1
EndSplineSet
EndChar

StartChar: odieresis
Encoding: 246 246 181
Width: 564
GlyphClass: 2
Flags: W
LayerCount: 2
Fore
SplineSet
321 495 m 0,0,1
 429 495 429 495 484 448 c 0,2,3
 527 411 527 411 527 345 c 0,4,5
 527 323 527 323 522 297 c 2,6,-1
 501 180 l 2,7,8
 482 74 482 74 412.5 30 c 128,-1,9
 343 -14 343 -14 227 -14 c 128,-1,10
 111 -14 111 -14 57 30 c 0,11,12
 17 63 17 63 17 129 c 0,13,14
 17 152 17 152 22 180 c 2,15,-1
 43 297 l 2,16,17
 78 495 78 495 321 495 c 0,0,1
348 277 m 2,18,19
 350 287 350 287 350 302.5 c 128,-1,20
 350 318 350 318 337 337 c 128,-1,21
 324 356 324 356 291.5 356 c 128,-1,22
 259 356 259 356 237 334.5 c 128,-1,23
 215 313 215 313 209 277 c 2,24,-1
 196 202 l 2,25,26
 194 192 194 192 194 176.5 c 128,-1,27
 194 161 194 161 207 143 c 128,-1,28
 220 125 220 125 252.5 125 c 128,-1,29
 285 125 285 125 307 147.5 c 128,-1,30
 329 170 329 170 335 202 c 2,31,-1
 348 277 l 2,18,19
119 622 m 0,32,33
 119 673 119 673 142 696.5 c 128,-1,34
 165 720 165 720 213 720 c 0,35,36
 280 720 280 720 280 662 c 0,37,38
 280 611 280 611 257 587.5 c 128,-1,39
 234 564 234 564 185 564 c 0,40,41
 119 564 119 564 119 622 c 0,32,33
401 622 m 0,42,43
 401 673 401 673 424 696.5 c 128,-1,44
 447 720 447 720 495 720 c 0,45,46
 562 720 562 720 562 662 c 0,47,48
 562 611 562 611 539 587.5 c 128,-1,49
 516 564 516 564 467 564 c 0,50,51
 401 564 401 564 401 622 c 0,42,43
EndSplineSet
EndChar

StartChar: divide
Encoding: 247 247 182
Width: 438
GlyphClass: 2
Flags: W
LayerCount: 2
Fore
SplineSet
397 244 m 1,0,-1
 26 244 l 1,1,-1
 47 362 l 1,2,-1
 418 362 l 1,3,-1
 397 244 l 1,0,-1
76 83 m 0,4,5
 76 147 76 147 104.5 176.5 c 128,-1,6
 133 206 133 206 184 206 c 128,-1,7
 235 206 235 206 256 188.5 c 128,-1,8
 277 171 277 171 277 132 c 0,9,10
 277 69 277 69 248.5 40 c 128,-1,11
 220 11 220 11 159 11 c 0,12,13
 76 11 76 11 76 83 c 0,4,5
145 476 m 0,14,15
 145 540 145 540 173.5 569.5 c 128,-1,16
 202 599 202 599 253.5 599 c 128,-1,17
 305 599 305 599 325.5 581.5 c 128,-1,18
 346 564 346 564 346 525 c 0,19,20
 346 462 346 462 317.5 433 c 128,-1,21
 289 404 289 404 228 404 c 0,22,23
 145 404 145 404 145 476 c 0,14,15
EndSplineSet
EndChar

StartChar: oslash
Encoding: 248 248 183
Width: 564
GlyphClass: 2
Flags: W
LayerCount: 2
Fore
SplineSet
227 -14 m 1,0,-1
 192 -13 l 1,1,-1
 165 -69 l 1,2,-1
 80 -69 l 1,3,-1
 114 0 l 1,4,5
 17 30 17 30 17 132 c 0,6,7
 17 154 17 154 22 180 c 2,8,-1
 43 297 l 2,9,10
 60 394 60 394 130 444.5 c 128,-1,11
 200 495 200 495 317 495 c 0,12,13
 341 495 341 495 353 494 c 1,14,-1
 381 550 l 1,15,-1
 465 550 l 1,16,-1
 430 479 l 1,17,18
 526 444 526 444 526 343 c 0,19,20
 526 321 526 321 522 297 c 2,21,-1
 501 180 l 2,22,23
 482 74 482 74 412.5 30 c 128,-1,24
 343 -14 343 -14 227 -14 c 1,0,-1
196 202 m 2,25,26
 194 189 194 189 194 181 c 128,-1,27
 194 173 194 173 195 168 c 1,28,-1
 286 356 l 1,29,30
 255 354 255 354 235 333 c 128,-1,31
 215 312 215 312 209 277 c 2,32,-1
 196 202 l 2,25,26
350 296.5 m 128,-1,34
 350 305 350 305 348 311 c 1,35,-1
 259 125 l 1,36,37
 288 127 288 127 308.5 149.5 c 128,-1,38
 329 172 329 172 335 202 c 2,39,-1
 348 277 l 2,40,33
 350 288 350 288 350 296.5 c 128,-1,34
EndSplineSet
EndChar

StartChar: uacute
Encoding: 250 250 185
Width: 615
GlyphClass: 2
Flags: W
LayerCount: 2
Fore
SplineSet
504 154 m 0,0,1
 504 128 504 128 530.5 128 c 128,-1,2
 557 128 557 128 575 138 c 1,3,-1
 570 25 l 1,4,5
 522 -14 522 -14 462 -14 c 0,6,7
 349 -14 349 -14 339 73 c 1,8,9
 279 -14 279 -14 177.5 -14 c 128,-1,10
 76 -14 76 -14 46 32 c 0,11,12
 26 61 26 61 26 98 c 128,-1,13
 26 135 26 135 32 166 c 2,14,-1
 88 481 l 1,15,-1
 258 481 l 1,16,-1
 211 215 l 2,17,18
 208 197 208 197 208 179 c 0,19,20
 208 131 208 131 262 131 c 0,21,22
 307 131 307 131 334 162 c 1,23,-1
 391 481 l 1,24,-1
 561 481 l 1,25,-1
 505 166 l 2,26,27
 504 160 504 160 504 154 c 0,0,1
392 568 m 1,28,-1
 244 568 l 1,29,-1
 408 807 l 1,30,-1
 588 807 l 1,31,-1
 392 568 l 1,28,-1
EndSplineSet
EndChar

StartChar: udieresis
Encoding: 252 252 187
Width: 615
GlyphClass: 2
Flags: W
LayerCount: 2
Fore
SplineSet
504 154 m 0,0,1
 504 128 504 128 530.5 128 c 128,-1,2
 557 128 557 128 575 138 c 1,3,-1
 570 25 l 1,4,5
 522 -14 522 -14 462 -14 c 0,6,7
 349 -14 349 -14 339 73 c 1,8,9
 279 -14 279 -14 177.5 -14 c 128,-1,10
 76 -14 76 -14 46 32 c 0,11,12
 26 61 26 61 26 98 c 128,-1,13
 26 135 26 135 32 166 c 2,14,-1
 88 481 l 1,15,-1
 258 481 l 1,16,-1
 211 215 l 2,17,18
 208 197 208 197 208 179 c 0,19,20
 208 131 208 131 262 131 c 0,21,22
 307 131 307 131 334 162 c 1,23,-1
 391 481 l 1,24,-1
 561 481 l 1,25,-1
 505 166 l 2,26,27
 504 160 504 160 504 154 c 0,0,1
142 622 m 0,28,29
 142 673 142 673 165 696.5 c 128,-1,30
 188 720 188 720 236 720 c 0,31,32
 303 720 303 720 303 662 c 0,33,34
 303 611 303 611 280 587.5 c 128,-1,35
 257 564 257 564 208 564 c 0,36,37
 142 564 142 564 142 622 c 0,28,29
424 622 m 0,38,39
 424 673 424 673 447 696.5 c 128,-1,40
 470 720 470 720 518 720 c 0,41,42
 585 720 585 720 585 662 c 0,43,44
 585 611 585 611 562 587.5 c 128,-1,45
 539 564 539 564 490 564 c 0,46,47
 424 564 424 564 424 622 c 0,38,39
EndSplineSet
EndChar

StartChar: thorn
Encoding: 254 254 189
Width: 575
GlyphClass: 2
Flags: W
LayerCount: 2
Fore
SplineSet
368 494 m 0,0,1
 470 494 470 494 509 440 c 1,2,3
 537 403 537 403 537 346 c 0,4,5
 537 323 537 323 532 297 c 2,6,-1
 512 180 l 2,7,8
 495 85 495 85 439 35.5 c 128,-1,9
 383 -14 383 -14 299 -14 c 128,-1,10
 215 -14 215 -14 182 31 c 1,11,-1
 128 -278 l 1,12,-1
 -42 -278 l 1,13,-1
 142 759 l 1,14,-1
 311 759 l 1,15,-1
 256 454 l 1,16,17
 296 494 296 494 368 494 c 0,0,1
264 130 m 0,18,19
 292 130 292 130 316 148 c 128,-1,20
 340 166 340 166 346 202 c 2,21,-1
 359 277 l 2,22,23
 361 287 361 287 361 302 c 128,-1,24
 361 317 361 317 348 334 c 128,-1,25
 335 351 335 351 303 351 c 0,26,27
 251 351 251 351 235 326 c 1,28,-1
 205 158 l 1,29,30
 219 130 219 130 264 130 c 0,18,19
EndSplineSet
EndChar

StartChar: Lslash
Encoding: 321 321 191
Width: 593
GlyphClass: 2
Flags: W
LayerCount: 2
Fore
SplineSet
531 0 m 1,0,-1
 75 0 l 1,1,-1
 117 237 l 1,2,-1
 39 196 l 1,3,-1
 -5 305 l 1,4,-1
 142 382 l 1,5,-1
 202 720 l 1,6,-1
 382 720 l 1,7,-1
 341 486 l 1,8,-1
 466 552 l 1,9,-1
 509 443 l 1,10,-1
 315 341 l 1,11,-1
 283 156 l 1,12,-1
 559 156 l 1,13,-1
 531 0 l 1,0,-1
EndSplineSet
EndChar

StartChar: lslash
Encoding: 322 322 192
Width: 399
GlyphClass: 2
Flags: W
LayerCount: 2
Fore
SplineSet
296 128 m 0,0,1
 319 128 319 128 337 138 c 1,2,-1
 332 25 l 1,3,4
 284 -14 284 -14 224 -14 c 0,5,6
 133 -14 133 -14 106 28 c 0,7,8
 89 55 89 55 89 87 c 128,-1,9
 89 119 89 119 93 143 c 2,10,-1
 116 273 l 1,11,-1
 58 243 l 1,12,-1
 14 352 l 1,13,-1
 142 419 l 1,14,-1
 202 759 l 1,15,-1
 372 759 l 1,16,-1
 329 517 l 1,17,-1
 396 553 l 1,18,-1
 440 444 l 1,19,-1
 303 372 l 1,20,-1
 267 166 l 2,21,22
 266 160 266 160 266 155 c 0,23,24
 266 128 266 128 296 128 c 0,0,1
EndSplineSet
EndChar

StartChar: OE
Encoding: 338 338 193
Width: 980
GlyphClass: 2
Flags: W
LayerCount: 2
Fore
SplineSet
278 0 m 2,0,1
 134 0 134 0 78 61 c 0,2,3
 39 104 39 104 39 184 c 0,4,5
 39 218 39 218 46 259 c 2,6,-1
 81 459 l 2,7,8
 104 590 104 590 184 655 c 128,-1,9
 264 720 264 720 408 720 c 2,10,-1
 1011 720 l 1,11,-1
 983 564 l 1,12,-1
 661 564 l 1,13,-1
 637 429 l 1,14,-1
 903 429 l 1,15,-1
 876 273 l 1,16,-1
 610 273 l 1,17,-1
 589 156 l 1,18,-1
 911 156 l 1,19,-1
 884 0 l 1,20,-1
 278 0 l 2,0,1
306 141 m 0,21,22
 356 141 356 141 386 167 c 128,-1,23
 416 193 416 193 428 263 c 2,24,-1
 462 455 l 2,25,26
 465 475 465 475 465 491 c 0,27,28
 465 572 465 572 383 572 c 1,29,30
 280 570 280 570 260 455 c 2,31,-1
 226 263 l 2,32,33
 222 238 222 238 222 211 c 0,34,35
 222 141 222 141 306 141 c 0,21,22
EndSplineSet
EndChar

StartChar: oe
Encoding: 339 339 194
Width: 862
GlyphClass: 2
Flags: W
LayerCount: 2
Fore
SplineSet
535 -14 m 0,0,1
 441 -14 441 -14 387 16 c 1,2,3
 326 -14 326 -14 218.5 -14 c 128,-1,4
 111 -14 111 -14 57 30 c 0,5,6
 17 63 17 63 17 129 c 0,7,8
 17 152 17 152 22 180 c 2,9,-1
 43 297 l 2,10,11
 60 394 60 394 130 444.5 c 128,-1,12
 200 495 200 495 306.5 495 c 128,-1,13
 413 495 413 495 467 460 c 1,14,15
 534 496 534 496 630 496 c 0,16,17
 832 496 832 496 832 344 c 0,18,19
 832 322 832 322 828 296 c 2,20,-1
 816 225 l 1,21,-1
 510 225 l 1,22,-1
 506 202 l 2,23,24
 504 190 504 190 504 180 c 0,25,26
 504 125 504 125 570 125 c 0,27,28
 594 125 594 125 610.5 140 c 128,-1,29
 627 155 627 155 630 175 c 1,30,-1
 796 173 l 1,31,32
 763 -14 763 -14 535 -14 c 0,0,1
348 277 m 2,33,34
 350 287 350 287 350 302.5 c 128,-1,35
 350 318 350 318 337 337 c 128,-1,36
 324 356 324 356 291.5 356 c 128,-1,37
 259 356 259 356 237 334.5 c 128,-1,38
 215 313 215 313 209 277 c 2,39,-1
 196 202 l 2,40,41
 194 192 194 192 194 176.5 c 128,-1,42
 194 161 194 161 207 143 c 128,-1,43
 220 125 220 125 252.5 125 c 128,-1,44
 285 125 285 125 307 147.5 c 128,-1,45
 329 170 329 170 335 202 c 2,46,-1
 348 277 l 2,33,34
656 286 m 1,47,48
 660 303 660 303 660 317.5 c 128,-1,49
 660 332 660 332 646.5 347 c 128,-1,50
 633 362 633 362 604.5 362 c 128,-1,51
 576 362 576 362 553 343 c 128,-1,52
 530 324 530 324 521 286 c 1,53,-1
 656 286 l 1,47,48
EndSplineSet
EndChar

StartChar: scaron
Encoding: 353 353 196
Width: 549
GlyphClass: 2
Flags: W
LayerCount: 2
Fore
SplineSet
522 377 m 0,0,1
 522 344 522 344 502 316 c 1,2,-1
 338 316 l 1,3,4
 346 322 346 322 346 336 c 128,-1,5
 346 350 346 350 330 358.5 c 128,-1,6
 314 367 314 367 289 367 c 0,7,8
 214 367 214 367 214 321 c 0,9,10
 214 303 214 303 242 295 c 128,-1,11
 270 287 270 287 310 282 c 128,-1,12
 350 277 350 277 390 267.5 c 128,-1,13
 430 258 430 258 458 230 c 128,-1,14
 486 202 486 202 486 155 c 0,15,16
 486 72 486 72 419.5 29 c 128,-1,17
 353 -14 353 -14 226 -14 c 128,-1,18
 99 -14 99 -14 48 27 c 0,19,20
 8 59 8 59 8 115 c 0,21,22
 8 131 8 131 11 148 c 1,23,-1
 178 150 l 1,24,25
 176 136 176 136 194.5 125.5 c 128,-1,26
 213 115 213 115 249 115 c 128,-1,27
 285 115 285 115 301 122.5 c 128,-1,28
 317 130 317 130 317 151 c 0,29,30
 317 165 317 165 289 170.5 c 128,-1,31
 261 176 261 176 220.5 180 c 128,-1,32
 180 184 180 184 139.5 193 c 128,-1,33
 99 202 99 202 71 231 c 128,-1,34
 43 260 43 260 43 307 c 0,35,36
 43 398 43 398 113.5 447 c 128,-1,37
 184 496 184 496 317 496 c 0,38,39
 522 496 522 496 522 377 c 0,0,1
248 568 m 1,40,-1
 248 569 l 1,41,-1
 169 807 l 1,42,-1
 312 807 l 1,43,-1
 359 689 l 1,44,-1
 449 807 l 1,45,-1
 592 807 l 1,46,-1
 428 569 l 1,47,-1
 429 568 l 1,48,-1
 248 568 l 1,40,-1
EndSplineSet
EndChar

StartChar: Zcaron
Encoding: 381 381 198
Width: 618
GlyphClass: 2
Flags: W
LayerCount: 2
Fore
SplineSet
520 0 m 1,0,-1
 -7 0 l 1,1,-1
 21 156 l 1,2,-1
 22 156 l 1,3,-1
 409 564 l 1,4,-1
 92 564 l 1,5,-1
 120 720 l 1,6,-1
 648 720 l 1,7,-1
 620 564 l 1,8,-1
 233 156 l 1,9,-1
 548 156 l 1,10,-1
 520 0 l 1,0,-1
285 807 m 1,11,-1
 285 808 l 1,12,-1
 206 1046 l 1,13,-1
 349 1046 l 1,14,-1
 396 928 l 1,15,-1
 486 1046 l 1,16,-1
 629 1046 l 1,17,-1
 465 808 l 1,18,-1
 466 807 l 1,19,-1
 285 807 l 1,11,-1
EndSplineSet
EndChar

StartChar: florin
Encoding: 402 402 200
Width: 552
GlyphClass: 2
Flags: W
LayerCount: 2
Fore
SplineSet
460 -18 m 0,0,1
 460 -164 460 -164 385.5 -257.5 c 128,-1,2
 311 -351 311 -351 183.5 -351 c 128,-1,3
 56 -351 56 -351 14 -288 c 0,4,5
 -12 -248 -12 -248 -12 -190.5 c 128,-1,6
 -12 -133 -12 -133 -2 -76 c 2,7,-1
 126 648 l 1,8,-1
 296 648 l 1,9,-1
 266 481 l 1,10,-1
 515 481 l 1,11,-1
 490 340 l 1,12,-1
 294 340 l 1,13,14
 365 283 365 283 412.5 192 c 128,-1,15
 460 101 460 101 460 -18 c 0,0,1
284 -24 m 0,16,17
 284 121 284 121 224 245 c 1,18,-1
 168 -75 l 2,19,20
 162 -110 162 -110 162 -136 c 0,21,22
 162 -208 162 -208 209 -208 c 0,23,24
 240 -208 240 -208 262 -158 c 128,-1,25
 284 -108 284 -108 284 -24 c 0,16,17
EndSplineSet
EndChar

StartChar: circumflex
Encoding: 710 710 201
Width: 523
GlyphClass: 2
Flags: W
LayerCount: 2
Fore
SplineSet
293 568 m 1,0,-1
 150 568 l 1,1,-1
 313 807 l 1,2,-1
 494 807 l 1,3,-1
 573 568 l 1,4,-1
 430 568 l 1,5,-1
 382 686 l 1,6,-1
 293 568 l 1,0,-1
EndSplineSet
EndChar

StartChar: caron
Encoding: 711 711 202
Width: 523
GlyphClass: 2
Flags: W
LayerCount: 2
Fore
SplineSet
271 568 m 1,0,-1
 271 569 l 1,1,-1
 192 807 l 1,2,-1
 335 807 l 1,3,-1
 382 689 l 1,4,-1
 472 807 l 1,5,-1
 615 807 l 1,6,-1
 451 569 l 1,7,-1
 452 568 l 1,8,-1
 271 568 l 1,0,-1
EndSplineSet
EndChar

StartChar: breve
Encoding: 728 728 203
Width: 396
GlyphClass: 2
Flags: W
LayerCount: 2
Fore
SplineSet
275 711 m 0,0,1
 275 669 275 669 316 669 c 0,2,3
 343 669 343 669 357.5 685 c 128,-1,4
 372 701 372 701 378 736 c 1,5,-1
 476 736 l 1,6,7
 464 666 464 666 422.5 619.5 c 128,-1,8
 381 573 381 573 300 573 c 0,9,10
 175 573 175 573 175 687 c 0,11,12
 175 709 175 709 180 736 c 1,13,-1
 277 736 l 1,14,15
 275 722 275 722 275 711 c 0,0,1
EndSplineSet
EndChar

StartChar: ring
Encoding: 730 730 204
Width: 318
GlyphClass: 2
Flags: W
LayerCount: 2
Fore
SplineSet
346.5 586 m 128,-1,1
 307 549 307 549 261.5 549 c 128,-1,2
 216 549 216 549 190 575.5 c 128,-1,3
 164 602 164 602 164 647.5 c 128,-1,4
 164 693 164 693 203.5 730 c 128,-1,5
 243 767 243 767 289 767 c 128,-1,6
 335 767 335 767 360.5 740.5 c 128,-1,7
 386 714 386 714 386 668.5 c 128,-1,0
 386 623 386 623 346.5 586 c 128,-1,1
300.5 632.5 m 128,-1,9
 314 645 314 645 314 661.5 c 128,-1,10
 314 678 314 678 305 687 c 128,-1,11
 296 696 296 696 279.5 696 c 128,-1,12
 263 696 263 696 249.5 683.5 c 128,-1,13
 236 671 236 671 236 654.5 c 128,-1,14
 236 638 236 638 245 629 c 128,-1,15
 254 620 254 620 270.5 620 c 128,-1,8
 287 620 287 620 300.5 632.5 c 128,-1,9
EndSplineSet
EndChar

StartChar: ogonek
Encoding: 731 731 205
Width: 317
GlyphClass: 2
Flags: W
LayerCount: 2
Fore
SplineSet
121.5 -194 m 128,-1,1
 86 -194 86 -194 58.5 -174 c 128,-1,2
 31 -154 31 -154 31 -110.5 c 128,-1,3
 31 -67 31 -67 73 -32 c 128,-1,4
 115 3 115 3 157 14 c 2,5,-1
 199 25 l 1,6,-1
 230 2 l 1,7,8
 161 -15 161 -15 133 -52 c 0,9,10
 121 -67 121 -67 121 -82.5 c 128,-1,11
 121 -98 121 -98 131 -107.5 c 128,-1,12
 141 -117 141 -117 157.5 -117 c 128,-1,13
 174 -117 174 -117 188 -109 c 128,-1,14
 202 -101 202 -101 208 -93 c 2,15,-1
 215 -85 l 1,16,-1
 241 -147 l 1,17,18
 222 -166 222 -166 189.5 -180 c 128,-1,0
 157 -194 157 -194 121.5 -194 c 128,-1,1
EndSplineSet
EndChar

StartChar: tilde
Encoding: 732 732 206
Width: 525
GlyphClass: 2
Flags: W
LayerCount: 2
Fore
SplineSet
458 584 m 128,-1,1
 426 584 426 584 372 605.5 c 128,-1,2
 318 627 318 627 284 627 c 0,3,4
 224 627 224 627 173 608 c 1,5,-1
 156 601 l 1,6,-1
 176 712 l 1,7,8
 180 718 180 718 188.5 727 c 128,-1,9
 197 736 197 736 229.5 751 c 128,-1,10
 262 766 262 766 303 766 c 128,-1,11
 344 766 344 766 404.5 743 c 128,-1,12
 465 720 465 720 500.5 720 c 128,-1,13
 536 720 536 720 561.5 727.5 c 128,-1,14
 587 735 587 735 596 742 c 2,15,-1
 606 750 l 1,16,-1
 586 630 l 1,17,18
 564 612 564 612 527 598 c 128,-1,0
 490 584 490 584 458 584 c 128,-1,1
EndSplineSet
EndChar

StartChar: hungarumlaut
Encoding: 733 733 207
Width: 715
GlyphClass: 2
Flags: W
LayerCount: 2
Fore
SplineSet
298 568 m 1,0,-1
 150 568 l 1,1,-1
 314 807 l 1,2,-1
 494 807 l 1,3,-1
 298 568 l 1,0,-1
611 568 m 1,4,-1
 463 568 l 1,5,-1
 627 807 l 1,6,-1
 807 807 l 1,7,-1
 611 568 l 1,4,-1
EndSplineSet
EndChar

StartChar: endash
Encoding: 8211 8211 208
Width: 607
GlyphClass: 2
Flags: W
LayerCount: 2
Fore
SplineSet
535 209 m 1,0,-1
 41 209 l 1,1,-1
 63 335 l 1,2,-1
 557 335 l 1,3,-1
 535 209 l 1,0,-1
EndSplineSet
EndChar

StartChar: emdash
Encoding: 8212 8212 209
Width: 813
GlyphClass: 2
Flags: W
LayerCount: 2
Fore
SplineSet
741 209 m 1,0,-1
 41 209 l 1,1,-1
 63 335 l 1,2,-1
 763 335 l 1,3,-1
 741 209 l 1,0,-1
EndSplineSet
EndChar

StartChar: quoteleft
Encoding: 8216 8216 210
Width: 292
GlyphClass: 2
Flags: W
LayerCount: 2
Fore
SplineSet
295 545 m 0,0,1
 295 481 295 481 266.5 451.5 c 128,-1,2
 238 422 238 422 178 422 c 0,3,4
 87 422 87 422 87 511 c 0,5,6
 87 662 87 662 159.5 733.5 c 128,-1,7
 232 805 232 805 365 805 c 1,8,-1
 353 733 l 1,9,10
 317 733 317 733 269.5 702.5 c 128,-1,11
 222 672 222 672 212 617 c 1,12,13
 295 617 295 617 295 545 c 0,0,1
EndSplineSet
EndChar

StartChar: quoteright
Encoding: 8217 8217 211
Width: 316
GlyphClass: 2
Flags: W
LayerCount: 2
Fore
SplineSet
136 682 m 0,0,1
 136 746 136 746 164.5 775.5 c 128,-1,2
 193 805 193 805 253 805 c 0,3,4
 344 805 344 805 344 716 c 0,5,6
 344 422 344 422 65 422 c 1,7,-1
 78 494 l 1,8,9
 114 494 114 494 161.5 524.5 c 128,-1,10
 209 555 209 555 219 610 c 1,11,12
 136 610 136 610 136 682 c 0,0,1
EndSplineSet
EndChar

StartChar: quotesinglbase
Encoding: 8218 8218 212
Width: 295
GlyphClass: 2
Flags: W
LayerCount: 2
Fore
SplineSet
5 58 m 0,0,1
 5 122 5 122 33.5 151.5 c 128,-1,2
 62 181 62 181 123 181 c 0,3,4
 213 181 213 181 213 92 c 0,5,6
 213 -202 213 -202 -65 -202 c 1,7,-1
 -52 -130 l 1,8,9
 1 -130 1 -130 53 -80 c 0,10,11
 82 -52 82 -52 88 -14 c 1,12,13
 5 -14 5 -14 5 58 c 0,0,1
EndSplineSet
EndChar

StartChar: quotedblleft
Encoding: 8220 8220 213
Width: 562
GlyphClass: 2
Flags: W
LayerCount: 2
Fore
SplineSet
565 545 m 0,0,1
 565 481 565 481 536.5 451.5 c 128,-1,2
 508 422 508 422 448 422 c 0,3,4
 357 422 357 422 357 511 c 0,5,6
 357 662 357 662 429.5 733.5 c 128,-1,7
 502 805 502 805 635 805 c 1,8,-1
 623 733 l 1,9,10
 587 733 587 733 539.5 702.5 c 128,-1,11
 492 672 492 672 482 617 c 1,12,13
 565 617 565 617 565 545 c 0,0,1
295 545 m 0,14,15
 295 481 295 481 266.5 451.5 c 128,-1,16
 238 422 238 422 178 422 c 0,17,18
 87 422 87 422 87 511 c 0,19,20
 87 662 87 662 159.5 733.5 c 128,-1,21
 232 805 232 805 365 805 c 1,22,-1
 353 733 l 1,23,24
 317 733 317 733 269.5 702.5 c 128,-1,25
 222 672 222 672 212 617 c 1,26,27
 295 617 295 617 295 545 c 0,14,15
EndSplineSet
EndChar

StartChar: quotedblright
Encoding: 8221 8221 214
Width: 586
GlyphClass: 2
Flags: W
LayerCount: 2
Fore
SplineSet
136 682 m 0,0,1
 136 746 136 746 164.5 775.5 c 128,-1,2
 193 805 193 805 253 805 c 0,3,4
 344 805 344 805 344 716 c 0,5,6
 344 422 344 422 65 422 c 1,7,-1
 78 494 l 1,8,9
 114 494 114 494 161.5 524.5 c 128,-1,10
 209 555 209 555 219 610 c 1,11,12
 136 610 136 610 136 682 c 0,0,1
406 682 m 0,13,14
 406 746 406 746 434.5 775.5 c 128,-1,15
 463 805 463 805 523 805 c 0,16,17
 614 805 614 805 614 716 c 0,18,19
 614 422 614 422 335 422 c 1,20,-1
 348 494 l 1,21,22
 384 494 384 494 431.5 524.5 c 128,-1,23
 479 555 479 555 489 610 c 1,24,25
 406 610 406 610 406 682 c 0,13,14
EndSplineSet
EndChar

StartChar: quotedblbase
Encoding: 8222 8222 215
Width: 566
GlyphClass: 2
Flags: W
LayerCount: 2
Fore
SplineSet
5 58 m 0,0,1
 5 122 5 122 33.5 151.5 c 128,-1,2
 62 181 62 181 123 181 c 0,3,4
 213 181 213 181 213 92 c 0,5,6
 213 -202 213 -202 -65 -202 c 1,7,-1
 -52 -130 l 1,8,9
 1 -130 1 -130 53 -80 c 0,10,11
 82 -52 82 -52 88 -14 c 1,12,13
 5 -14 5 -14 5 58 c 0,0,1
276 58 m 0,14,15
 276 122 276 122 305 151.5 c 128,-1,16
 334 181 334 181 394 181 c 0,17,18
 484 181 484 181 484 92 c 0,19,20
 484 -202 484 -202 206 -202 c 1,21,-1
 219 -130 l 1,22,23
 272 -130 272 -130 324 -80 c 0,24,25
 353 -52 353 -52 359 -14 c 1,26,27
 276 -14 276 -14 276 58 c 0,14,15
EndSplineSet
EndChar

StartChar: dagger
Encoding: 8224 8224 216
Width: 383
GlyphClass: 2
Flags: W
LayerCount: 2
Fore
SplineSet
200 98 m 1,0,-1
 113 98 l 1,1,-1
 160 479 l 1,2,-1
 59 479 l 1,3,-1
 75 569 l 1,4,-1
 176 569 l 1,5,-1
 209 759 l 1,6,-1
 336 759 l 1,7,-1
 303 569 l 1,8,-1
 405 569 l 1,9,-1
 389 479 l 1,10,-1
 287 479 l 1,11,-1
 200 98 l 1,0,-1
EndSplineSet
EndChar

StartChar: daggerdbl
Encoding: 8225 8225 217
Width: 409
GlyphClass: 2
Flags: W
LayerCount: 2
Fore
SplineSet
213 99 m 1,0,-1
 126 99 l 1,1,-1
 149 281 l 1,2,-1
 37 281 l 1,3,-1
 53 371 l 1,4,-1
 160 371 l 1,5,-1
 173 479 l 1,6,-1
 72 479 l 1,7,-1
 88 569 l 1,8,-1
 189 569 l 1,9,-1
 222 759 l 1,10,-1
 349 759 l 1,11,-1
 316 569 l 1,12,-1
 418 569 l 1,13,-1
 402 479 l 1,14,-1
 300 479 l 1,15,-1
 275 371 l 1,16,-1
 383 371 l 1,17,-1
 367 281 l 1,18,-1
 254 281 l 1,19,-1
 213 99 l 1,0,-1
EndSplineSet
EndChar

StartChar: bullet
Encoding: 8226 8226 218
Width: 406
GlyphClass: 2
Flags: W
LayerCount: 2
Fore
SplineSet
61 253 m 0,0,1
 61 343 61 343 100.5 384 c 128,-1,2
 140 425 140 425 225 425 c 0,3,4
 283 425 283 425 312.5 401 c 128,-1,5
 342 377 342 377 342 322 c 0,6,7
 342 233 342 233 301.5 192.5 c 128,-1,8
 261 152 261 152 177 152 c 0,9,10
 118 152 118 152 89.5 175.5 c 128,-1,11
 61 199 61 199 61 253 c 0,0,1
EndSplineSet
EndChar

StartChar: ellipsis
Encoding: 8230 8230 219
Width: 786
GlyphClass: 2
Flags: W
LayerCount: 2
Fore
SplineSet
5 58 m 0,0,1
 5 122 5 122 33 151.5 c 128,-1,2
 61 181 61 181 122 181 c 0,3,4
 206 181 206 181 206 107 c 0,5,6
 206 44 206 44 177.5 15 c 128,-1,7
 149 -14 149 -14 88 -14 c 0,8,9
 5 -14 5 -14 5 58 c 0,0,1
253 58 m 0,10,11
 253 122 253 122 281.5 151.5 c 128,-1,12
 310 181 310 181 370 181 c 0,13,14
 454 181 454 181 454 107 c 0,15,16
 454 44 454 44 425.5 15 c 128,-1,17
 397 -14 397 -14 336 -14 c 0,18,19
 253 -14 253 -14 253 58 c 0,10,11
508 58 m 0,20,21
 508 122 508 122 536 151.5 c 128,-1,22
 564 181 564 181 625 181 c 0,23,24
 709 181 709 181 709 107 c 0,25,26
 709 44 709 44 680.5 15 c 128,-1,27
 652 -14 652 -14 591 -14 c 0,28,29
 508 -14 508 -14 508 58 c 0,20,21
EndSplineSet
EndChar

StartChar: perthousand
Encoding: 8240 8240 220
Width: 1205
GlyphClass: 2
Flags: W
LayerCount: 2
Fore
SplineSet
258 727 m 0,0,1
 385 727 385 727 385 618 c 0,2,3
 385 600 385 600 381 578 c 2,4,-1
 369 508 l 2,5,6
 342 356 342 356 192 356 c 0,7,8
 64 356 64 356 64 465 c 0,9,10
 64 485 64 485 68 508 c 2,11,-1
 80 578 l 2,12,13
 105 727 105 727 258 727 c 0,0,1
170 482 m 0,14,15
 170 444 170 444 208 444 c 0,16,17
 230 444 230 444 243.5 458 c 128,-1,18
 257 472 257 472 264 510 c 2,19,-1
 276 576 l 2,20,21
 278 588 278 588 278 598 c 0,22,23
 278 639 278 639 242 639 c 0,24,25
 196 639 196 639 185 576 c 2,26,-1
 173 510 l 2,27,28
 170 494 170 494 170 482 c 0,14,15
103 0 m 1,29,-1
 624 727 l 1,30,-1
 764 727 l 1,31,-1
 243 0 l 1,32,-1
 103 0 l 1,29,-1
670 355 m 0,33,34
 798 355 798 355 798 248 c 0,35,36
 798 229 798 229 794 206 c 2,37,-1
 781 136 l 2,38,39
 767 59 767 59 724.5 21.5 c 128,-1,40
 682 -16 682 -16 605 -16 c 0,41,42
 476 -16 476 -16 476 93 c 0,43,44
 476 112 476 112 480 136 c 2,45,-1
 493 206 l 2,46,47
 520 355 520 355 670 355 c 0,33,34
584 111 m 0,48,49
 584 72 584 72 620 72 c 0,50,51
 642 72 642 72 656.5 86 c 128,-1,52
 671 100 671 100 677 138 c 2,53,-1
 688 204 l 2,54,55
 690 216 690 216 690 226 c 0,56,57
 690 267 690 267 654 267 c 0,58,59
 608 267 608 267 597 204 c 2,60,-1
 586 138 l 2,61,62
 584 123 584 123 584 111 c 0,48,49
1038 355 m 0,63,64
 1166 355 1166 355 1166 248 c 0,65,66
 1166 229 1166 229 1162 206 c 2,67,-1
 1149 136 l 2,68,69
 1135 59 1135 59 1092.5 21.5 c 128,-1,70
 1050 -16 1050 -16 973 -16 c 0,71,72
 844 -16 844 -16 844 93 c 0,73,74
 844 112 844 112 848 136 c 2,75,-1
 861 206 l 2,76,77
 888 355 888 355 1038 355 c 0,63,64
952 111 m 0,78,79
 952 72 952 72 988 72 c 0,80,81
 1010 72 1010 72 1024.5 86 c 128,-1,82
 1039 100 1039 100 1045 138 c 2,83,-1
 1056 204 l 2,84,85
 1058 216 1058 216 1058 226 c 0,86,87
 1058 267 1058 267 1022 267 c 0,88,89
 976 267 976 267 965 204 c 2,90,-1
 954 138 l 2,91,92
 952 123 952 123 952 111 c 0,78,79
EndSplineSet
EndChar

StartChar: guilsinglleft
Encoding: 8249 8249 221
Width: 285
GlyphClass: 2
Flags: W
LayerCount: 2
Fore
SplineSet
148 84 m 1,0,-1
 31 227 l 1,1,-1
 44 302 l 1,2,-1
 211 445 l 1,3,-1
 261 367 l 1,4,-1
 141 264 l 1,5,-1
 225 162 l 1,6,-1
 148 84 l 1,0,-1
EndSplineSet
EndChar

StartChar: guilsinglright
Encoding: 8250 8250 222
Width: 285
GlyphClass: 2
Flags: W
LayerCount: 2
Fore
SplineSet
229 227 m 1,0,-1
 62 84 l 1,1,-1
 13 162 l 1,2,-1
 133 264 l 1,3,-1
 49 367 l 1,4,-1
 126 445 l 1,5,-1
 243 302 l 1,6,-1
 229 227 l 1,0,-1
EndSplineSet
EndChar

StartChar: Euro
Encoding: 8364 8364 223
Width: 697
GlyphClass: 2
Flags: W
LayerCount: 2
Fore
SplineSet
324 -14 m 0,0,1
 182 -14 182 -14 127 48 c 0,2,3
 88 92 88 92 88 169 c 0,4,5
 88 202 88 202 95 240 c 1,6,-1
 23 240 l 1,7,-1
 39 329 l 1,8,-1
 111 329 l 1,9,-1
 121 389 l 1,10,-1
 49 389 l 1,11,-1
 65 478 l 1,12,-1
 137 478 l 1,13,14
 182 727 182 727 462 727 c 0,15,16
 595 727 595 727 653 668 c 0,17,18
 697 622 697 622 697 550 c 0,19,20
 697 528 697 528 693 503 c 1,21,-1
 512 503 l 1,22,23
 513 510 513 510 513 516 c 0,24,25
 513 537 513 537 495.5 554.5 c 128,-1,26
 478 572 478 572 434 572 c 0,27,28
 342 572 342 572 317 478 c 1,29,-1
 461 478 l 1,30,-1
 445 389 l 1,31,-1
 301 389 l 1,32,-1
 291 329 l 1,33,-1
 435 329 l 1,34,-1
 419 240 l 1,35,-1
 275 240 l 1,36,37
 274 227 274 227 274 216 c 0,38,39
 274 179 274 179 291.5 160 c 128,-1,40
 309 141 309 141 353 141 c 0,41,42
 447 141 447 141 466 248 c 1,43,-1
 646 248 l 1,44,-1
 641 219 l 2,45,46
 601 -14 601 -14 324 -14 c 0,0,1
EndSplineSet
EndChar

StartChar: trademark
Encoding: 8482 8482 224
Width: 965
GlyphClass: 2
Flags: W
LayerCount: 2
Fore
SplineSet
684 759 m 1,0,-1
 734 577 l 1,1,-1
 849 759 l 1,2,-1
 982 759 l 1,3,-1
 911 355 l 1,4,-1
 794 355 l 1,5,-1
 830 563 l 1,6,-1
 745 427 l 1,7,-1
 671 427 l 1,8,-1
 632 563 l 1,9,-1
 596 355 l 1,10,-1
 479 355 l 1,11,-1
 550 759 l 1,12,-1
 684 759 l 1,0,-1
486 651 m 1,13,-1
 364 651 l 1,14,-1
 312 355 l 1,15,-1
 179 355 l 1,16,-1
 231 651 l 1,17,-1
 109 651 l 1,18,-1
 128 759 l 1,19,-1
 505 759 l 1,20,-1
 486 651 l 1,13,-1
EndSplineSet
EndChar

StartChar: notequal
Encoding: 8800 8800 225
Width: 481
GlyphClass: 2
Flags: W
LayerCount: 2
Fore
SplineSet
390 95 m 1,0,-1
 231 95 l 1,1,-1
 190 0 l 1,2,-1
 50 0 l 1,3,-1
 91 95 l 1,4,-1
 19 95 l 1,5,-1
 40 213 l 1,6,-1
 143 213 l 1,7,-1
 184 306 l 1,8,-1
 56 306 l 1,9,-1
 77 424 l 1,10,-1
 235 424 l 1,11,-1
 297 564 l 1,12,-1
 437 564 l 1,13,-1
 375 424 l 1,14,-1
 448 424 l 1,15,-1
 427 306 l 1,16,-1
 324 306 l 1,17,-1
 283 213 l 1,18,-1
 411 213 l 1,19,-1
 390 95 l 1,0,-1
EndSplineSet
EndChar

StartChar: fi
Encoding: 64257 64257 226
Width: 820
GlyphClass: 2
Flags: W
LayerCount: 2
Fore
SplineSet
710 154 m 0,0,1
 710 128 710 128 736.5 128 c 128,-1,2
 763 128 763 128 781 138 c 1,3,-1
 776 25 l 1,4,5
 728 -14 728 -14 668 -14 c 0,6,7
 577 -14 577 -14 550 28 c 0,8,9
 533 55 533 55 533 87 c 128,-1,10
 533 119 533 119 537 143 c 2,11,-1
 572 340 l 1,12,-1
 290 340 l 1,13,14
 361 283 361 283 408.5 192 c 128,-1,15
 456 101 456 101 456 -18 c 0,16,17
 456 -164 456 -164 381.5 -257.5 c 128,-1,18
 307 -351 307 -351 179.5 -351 c 128,-1,19
 52 -351 52 -351 10 -288 c 0,20,21
 -16 -248 -16 -248 -16 -190.5 c 128,-1,22
 -16 -133 -16 -133 -6 -76 c 2,23,-1
 122 648 l 1,24,-1
 292 648 l 1,25,-1
 262 481 l 1,26,-1
 767 481 l 1,27,-1
 711 166 l 2,28,29
 710 160 710 160 710 154 c 0,0,1
280 -24 m 0,30,31
 280 121 280 121 220 245 c 1,32,-1
 164 -75 l 2,33,34
 158 -110 158 -110 158 -136 c 0,35,36
 158 -208 158 -208 205 -208 c 0,37,38
 236 -208 236 -208 258 -158 c 128,-1,39
 280 -108 280 -108 280 -24 c 0,30,31
699 572 m 0,40,41
 615 572 615 572 615 635 c 0,42,43
 615 650 615 650 619 669 c 0,44,45
 632 722 632 722 658.5 744.5 c 128,-1,46
 685 767 685 767 730.5 767 c 128,-1,47
 776 767 776 767 796.5 749.5 c 128,-1,48
 817 732 817 732 817 693 c 0,49,50
 817 630 817 630 788.5 601 c 128,-1,51
 760 572 760 572 699 572 c 0,40,41
EndSplineSet
EndChar

StartChar: fl
Encoding: 64258 64258 227
Width: 811
GlyphClass: 2
Flags: W
LayerCount: 2
Fore
SplineSet
456 -18 m 0,0,1
 456 -164 456 -164 381.5 -257.5 c 128,-1,2
 307 -351 307 -351 179.5 -351 c 128,-1,3
 52 -351 52 -351 10 -288 c 0,4,5
 -16 -248 -16 -248 -16 -190.5 c 128,-1,6
 -16 -133 -16 -133 -6 -76 c 2,7,-1
 122 648 l 1,8,-1
 292 648 l 1,9,-1
 262 481 l 1,10,-1
 511 481 l 1,11,-1
 486 340 l 1,12,-1
 290 340 l 1,13,14
 361 283 361 283 408.5 192 c 128,-1,15
 456 101 456 101 456 -18 c 0,0,1
258 -158 m 128,-1,17
 280 -108 280 -108 280 -26.5 c 128,-1,18
 280 55 280 55 263.5 138 c 128,-1,19
 247 221 247 221 224 268 c 1,20,-1
 164 -75 l 2,21,22
 158 -110 158 -110 158 -136 c 0,23,24
 158 -208 158 -208 205 -208 c 0,25,16
 236 -208 236 -208 258 -158 c 128,-1,17
701 154 m 0,26,27
 701 128 701 128 727.5 128 c 128,-1,28
 754 128 754 128 772 138 c 1,29,-1
 767 25 l 1,30,31
 719 -14 719 -14 659 -14 c 0,32,33
 568 -14 568 -14 542 28 c 1,34,35
 524 55 524 55 524 87 c 128,-1,36
 524 119 524 119 528 143 c 2,37,-1
 637 759 l 1,38,-1
 807 759 l 1,39,-1
 702 166 l 2,40,41
 701 160 701 160 701 154 c 0,26,27
EndSplineSet
EndChar

StartChar: apple
Encoding: 65539 -1 228
Width: 1327
GlyphClass: 2
Flags: W
LayerCount: 2
Fore
SplineSet
879 358 m 1,0,-1
 884 264 l 1,1,-1
 771 264 l 1,2,3
 771 424 771 424 779 477 c 2,4,-1
 782 497 l 1,5,-1
 858 497 l 1,6,7
 864 455 864 455 864 423 c 1,8,-1
 866 433 l 1,9,10
 884 501 884 501 945 501 c 0,11,12
 985 501 985 501 1001.5 477.5 c 128,-1,13
 1018 454 1018 454 1019 400 c 2,14,-1
 1021 264 l 1,15,-1
 909 264 l 1,16,-1
 911 358 l 2,17,18
 911 383 911 383 896 383 c 0,19,20
 879 383 879 383 879 358 c 1,0,-1
168 264 m 1,21,-1
 52 264 l 1,22,23
 52 402 52 402 60 532 c 1,24,-1
 63 571 l 1,25,-1
 158 571 l 1,26,27
 168 434 168 434 168 264 c 1,21,-1
1251 468 m 128,-1,29
 1277 435 1277 435 1277 378.5 c 128,-1,30
 1277 322 1277 322 1246.5 290 c 128,-1,31
 1216 258 1216 258 1156.5 258 c 128,-1,32
 1097 258 1097 258 1066.5 290 c 128,-1,33
 1036 322 1036 322 1036 377 c 0,34,35
 1036 501 1036 501 1156 501 c 0,36,28
 1225 501 1225 501 1251 468 c 128,-1,29
1156.5 336 m 128,-1,38
 1180 336 1180 336 1180 364.5 c 128,-1,39
 1180 393 1180 393 1156.5 393 c 128,-1,40
 1133 393 1133 393 1133 364.5 c 128,-1,37
 1133 336 1133 336 1156.5 336 c 128,-1,38
435 264 m 1,41,-1
 359 264 l 1,42,-1
 350 322 l 1,43,44
 338 258 338 258 276 258 c 0,45,46
 187 258 187 258 187 370 c 0,47,48
 187 435 187 435 218 468 c 128,-1,49
 249 501 249 501 319 501 c 0,50,51
 435 501 435 501 435 389 c 2,52,-1
 435 264 l 1,41,-1
314 336 m 0,53,54
 338 336 338 336 338 364.5 c 128,-1,55
 338 393 338 393 314 393 c 0,56,57
 293 393 293 393 293 364.5 c 128,-1,58
 293 336 293 336 314 336 c 0,53,54
625 -57 m 1,59,-1
 498 -57 l 1,60,61
 498 82 498 82 506 192 c 1,62,-1
 509 225 l 1,63,-1
 587 225 l 1,64,65
 594 174 594 174 594 150 c 1,66,67
 608 233 608 233 672 233 c 0,68,69
 707 233 707 233 728.5 203.5 c 128,-1,70
 750 174 750 174 750 114.5 c 128,-1,71
 750 55 750 55 717 20 c 128,-1,72
 684 -15 684 -15 623 -15 c 1,73,74
 625 -30 625 -30 625 -57 c 1,59,-1
646 102 m 0,75,76
 646 123 646 123 627 123 c 0,77,78
 604 123 604 123 604 93 c 1,79,-1
 608 66 l 1,80,81
 622 66 622 66 634 76.5 c 128,-1,82
 646 87 646 87 646 102 c 0,75,76
931 59 m 0,83,84
 953 59 953 59 972 74 c 1,85,-1
 972 1 l 1,86,87
 951 -15 951 -15 892 -15 c 128,-1,88
 833 -15 833 -15 800 17.5 c 128,-1,89
 767 50 767 50 767 106 c 0,90,91
 767 233 767 233 890 233 c 0,92,93
 942 233 942 233 972 202.5 c 128,-1,94
 1002 172 1002 172 1002 119 c 1,95,-1
 997 83 l 1,96,-1
 877 83 l 1,97,98
 877 59 877 59 931 59 c 0,83,84
871 108 m 1,99,-1
 910 108 l 1,100,101
 911 111 911 111 911 116 c 0,102,103
 911 135 911 135 893 135 c 0,104,105
 871 135 871 135 871 108 c 1,99,-1
469 322 m 1,106,-1
 471 408 l 1,107,-1
 448 408 l 1,108,-1
 448 491 l 1,109,-1
 564 527 l 1,110,-1
 568 497 l 1,111,-1
 740 497 l 1,112,113
 748 434 748 434 748 264 c 1,114,-1
 634 264 l 1,115,116
 634 374 634 374 636 408 c 1,117,-1
 579 408 l 1,118,-1
 581 345 l 1,119,120
 583 343 583 343 592 343 c 1,121,-1
 609 347 l 1,122,-1
 609 275 l 1,123,124
 602 258 602 258 547 258 c 0,125,126
 469 258 469 258 469 322 c 1,106,-1
691 510 m 128,-1,128
 666 510 666 510 649 527.5 c 128,-1,129
 632 545 632 545 632 570 c 128,-1,130
 632 595 632 595 649 612.5 c 128,-1,131
 666 630 666 630 691 630 c 128,-1,132
 716 630 716 630 733 612.5 c 128,-1,133
 750 595 750 595 750 570 c 128,-1,134
 750 545 750 545 733 527.5 c 128,-1,127
 716 510 716 510 691 510 c 128,-1,128
443 -24 m 128,-1,136
 407 -57 407 -57 337.5 -57 c 128,-1,137
 268 -57 268 -57 236 -36 c 1,138,-1
 236 47 l 1,139,140
 261 28 261 28 299 28 c 128,-1,141
 337 28 337 28 355 37 c 128,-1,142
 373 46 373 46 376 55 c 2,143,-1
 380 64 l 1,144,145
 369 49 369 49 323 49 c 0,146,147
 230 49 230 49 230 123 c 2,148,-1
 230 131 l 1,149,-1
 185 131 l 1,150,-1
 187 70 l 1,151,152
 203 70 203 70 215 76 c 1,153,-1
 215 2 l 1,154,155
 197 -15 197 -15 148 -15 c 0,156,157
 75 -15 75 -15 75 49 c 1,158,-1
 77 131 l 1,159,-1
 50 131 l 1,160,-1
 50 214 l 1,161,-1
 171 254 l 1,162,-1
 175 225 l 1,163,-1
 340 225 l 1,164,165
 338 123 338 123 338 119 c 0,166,167
 338 93 338 93 353.5 93 c 128,-1,168
 369 93 369 93 369 119 c 2,169,-1
 367 225 l 1,170,-1
 473 225 l 1,171,172
 479 167 479 167 479 88 c 128,-1,135
 479 9 479 9 443 -24 c 128,-1,136
1056 183 m 1,173,-1
 1056 172 l 1,174,-1
 1048 172 l 1,175,-1
 1048 209 l 1,176,-1
 1064 209 l 2,177,178
 1079 209 1079 209 1079 197 c 0,179,180
 1079 188 1079 188 1071 185 c 1,181,-1
 1079 172 l 1,182,-1
 1070 172 l 1,183,-1
 1063 183 l 1,184,-1
 1056 183 l 1,173,-1
1056 190 m 1,185,-1
 1064 190 l 2,186,187
 1071 190 1071 190 1071 196 c 128,-1,188
 1071 202 1071 202 1064 202 c 2,189,-1
 1056 202 l 1,190,-1
 1056 190 l 1,185,-1
1062 153 m 128,-1,192
 1047 153 1047 153 1036 164 c 128,-1,193
 1025 175 1025 175 1025 190 c 128,-1,194
 1025 205 1025 205 1036 216 c 128,-1,195
 1047 227 1047 227 1062 227 c 128,-1,196
 1077 227 1077 227 1088 216 c 128,-1,197
 1099 205 1099 205 1099 190 c 128,-1,198
 1099 175 1099 175 1088 164 c 128,-1,191
 1077 153 1077 153 1062 153 c 128,-1,192
1092 190 m 128,-1,200
 1092 202 1092 202 1083 211 c 128,-1,201
 1074 220 1074 220 1062 220 c 128,-1,202
 1050 220 1050 220 1041 211 c 128,-1,203
 1032 202 1032 202 1032 190 c 128,-1,204
 1032 178 1032 178 1041 169 c 128,-1,205
 1050 160 1050 160 1062 160 c 128,-1,206
 1074 160 1074 160 1083 169 c 128,-1,199
 1092 178 1092 178 1092 190 c 128,-1,200
EndSplineSet
EndChar
